<?xml version="1.0" encoding="UTF-8" standalone="no"?>
<!-- Created with Inkscape (http://www.inkscape.org/) -->

<svg
   xmlns:dc="http://purl.org/dc/elements/1.1/"
   xmlns:cc="http://creativecommons.org/ns#"
   xmlns:rdf="http://www.w3.org/1999/02/22-rdf-syntax-ns#"
   xmlns:svg="http://www.w3.org/2000/svg"
   xmlns="http://www.w3.org/2000/svg"
   xmlns:sodipodi="http://sodipodi.sourceforge.net/DTD/sodipodi-0.dtd"
   xmlns:inkscape="http://www.inkscape.org/namespaces/inkscape"
   width="210mm"
   height="297mm"
   viewBox="0 0 210 297"
   version="1.1"
   id="svg3140"
   inkscape:version="0.92.4 (unknown)"
   sodipodi:docname="anemonasinh.svg">
  <defs
     id="defs3134" />
  <sodipodi:namedview
     id="base"
     pagecolor="#ffffff"
     bordercolor="#666666"
     borderopacity="1.0"
     inkscape:pageopacity="0.0"
     inkscape:pageshadow="2"
     inkscape:zoom="0.35"
     inkscape:cx="171.42857"
     inkscape:cy="560"
     inkscape:document-units="mm"
     inkscape:current-layer="layer1"
     showgrid="false"
     inkscape:window-width="1301"
     inkscape:window-height="744"
     inkscape:window-x="65"
     inkscape:window-y="24"
     inkscape:window-maximized="1" />
  <metadata
     id="metadata3137">
    <rdf:RDF>
      <cc:Work
         rdf:about="">
        <dc:format>image/svg+xml</dc:format>
        <dc:type
           rdf:resource="http://purl.org/dc/dcmitype/StillImage" />
        <dc:title></dc:title>
      </cc:Work>
    </rdf:RDF>
  </metadata>
  <g
     inkscape:label="Layer 1"
     inkscape:groupmode="layer"
     id="layer1">
    <path
       style="fill:none;stroke:#000000;stroke-width:0.26458332px;stroke-linecap:butt;stroke-linejoin:miter;stroke-opacity:1"
       d="m 27.970239,134.47023 c 0,0 -9.07143,-4.53572 1.511903,-18.89881 10.583333,-14.3631 46.869048,-16.630955 45.357142,-17.386906 -1.511903,-0.755952 -0.755952,-7.559524 26.458336,-5.291667 27.21428,2.267858 29.48214,4.535715 47.625,12.095243 18.14285,7.55952 26.45833,17.3869 28.72619,30.23809 2.26785,12.85119 -22.67857,15.875 -22.67857,15.875 0,0 -13.60715,-1.5119 -15.11905,3.02381 -1.51191,4.53571 7.55952,11.33929 14.36309,10.58333 6.80358,-0.75595 5.29167,12.09524 5.29167,12.09524 0,0 15.875,2.26786 6.80357,16.63095 -9.07143,14.3631 -18.14286,-9.82738 -18.14286,-9.82738 0,0 -3.77976,-19.65476 -9.82738,-12.09524 -6.04762,7.55953 6.80358,8.31548 6.80358,16.63096 0,8.31547 -14.3631,16.63095 -15.11905,12.85119 -0.75595,-3.77976 4.53571,-11.33929 0,-15.11905 -4.53572,-3.77976 -7.55953,-6.80357 -7.55953,-3.77976 0,3.02381 0,8.31547 0,8.31547 0,0 0.75596,23.43453 9.07143,30.2381 8.31548,6.80357 49.13691,-5.29167 55.18453,3.02381 6.04762,8.31547 9.82738,22.67857 6.04762,30.23809 -3.77977,7.55953 -5.29167,11.3393 -6.04762,6.04762 -0.75596,-5.29167 -0.75596,-15.11904 -0.75596,-15.11904 0,0 3.77977,-14.3631 -5.29166,-13.60715 -9.07143,0.75595 -23.43453,-2.26785 -31.75,0.75595 -8.31548,3.02381 -14.3631,3.02381 -14.3631,3.02381 0,0 -6.04762,0 -11.33928,-4.53571 -5.29167,-4.53572 -5.29167,-27.21429 -9.82738,-30.2381 -4.53572,-3.0238 -6.04762,-5.29166 -5.29167,0.75596 0.75595,6.04761 0.75595,7.55952 6.04762,23.43452 5.29166,15.875 24.19047,24.94643 31.75,24.94643 7.55952,0 27.97024,-3.77976 29.48214,4.53571 1.51191,8.31548 6.04762,20.41073 2.26786,25.70239 -3.77976,5.29167 -9.07143,4.5357 -9.07143,-1.51191 0,-6.04763 1.5119,-21.16667 -4.53572,-21.16667 -6.04761,0 -16.63095,1.51191 -21.16666,1.51191 -4.53572,0 -29.48214,-12.85119 -29.48214,-12.85119 l -9.07143,-16.63095 -4.535716,-23.43453 -6.047621,-4.53571 -1.511903,6.04761 2.267857,26.45834 -2.267857,26.45833 -20.410715,9.07144 c 0,0 -46.113094,-2.26788 -46.869047,-2.26788 -0.755952,0 0,-10.58332 0,-10.58332 H 31.75 l 14.363094,4.53572 25.702381,1.5119 11.339285,-6.80357 1.511906,-23.43453 -4.535715,-22.67857 -3.779761,-6.04762 v 20.41072 l -2.267858,27.97024 -20.410714,1.5119 -17.386903,-2.26786 -18.142858,-6.04761 6.047619,-10.58334 12.095239,5.29167 25.702378,3.02381 6.803573,-22.67857 v -16.63096 c 0,0 9.071427,-3.02381 0,-5.29166 -9.071428,-2.26786 -18.142857,-4.53572 -18.142857,-9.07143 0,-4.53571 10.583333,-3.02381 6.047618,-9.07143 -4.535713,-6.04762 -11.339285,1.51191 -12.851188,-6.04762 -1.511906,-7.55952 12.851188,-4.53571 4.535712,-10.58333 -8.315476,-6.04762 -20.410712,13.60714 -22.67857,6.04762 -2.267857,-7.55953 4.535713,-7.55953 3.779761,-15.11905 -0.755952,-7.55953 -12.85119,-2.26786 -12.85119,-7.55953 0,-5.29166 11.339287,-12.09523 11.339287,-12.09523 z"
       id="path3142"
       inkscape:connector-curvature="0" />
    <path
       style="fill:none;stroke:#000000;stroke-width:0.26458332px;stroke-linecap:butt;stroke-linejoin:miter;stroke-opacity:1"
       d="m 46.113094,144.29761 24.190478,6.80357 22.678569,3.02381 h 17.386909 l 17.3869,-7.55953 11.33929,-6.80357 v -6.80357 l -16.63096,9.82738 -17.3869,4.53572 H 84.666666 l -19.654761,-6.80357 -12.095239,-3.77976 -7.559524,-3.77977 z"
       id="path3163"
       inkscape:connector-curvature="0" />
  </g>
</svg>
