<?xml version="1.0" encoding="UTF-8" standalone="no"?>
<!-- Created with Inkscape (http://www.inkscape.org/) -->

<svg
   xmlns:dc="http://purl.org/dc/elements/1.1/"
   xmlns:cc="http://creativecommons.org/ns#"
   xmlns:rdf="http://www.w3.org/1999/02/22-rdf-syntax-ns#"
   xmlns:svg="http://www.w3.org/2000/svg"
   xmlns="http://www.w3.org/2000/svg"
   xmlns:sodipodi="http://sodipodi.sourceforge.net/DTD/sodipodi-0.dtd"
   xmlns:inkscape="http://www.inkscape.org/namespaces/inkscape"
   width="210mm"
   height="297mm"
   viewBox="0 0 210 297"
   version="1.1"
   id="svg3422"
   inkscape:version="0.92.4 (unknown)"
   sodipodi:docname="ballenasinh.svg">
  <defs
     id="defs3416" />
  <sodipodi:namedview
     id="base"
     pagecolor="#ffffff"
     bordercolor="#666666"
     borderopacity="1.0"
     inkscape:pageopacity="0.0"
     inkscape:pageshadow="2"
     inkscape:zoom="0.35"
     inkscape:cx="400"
     inkscape:cy="674.28571"
     inkscape:document-units="mm"
     inkscape:current-layer="layer1"
     showgrid="false"
     inkscape:window-width="1301"
     inkscape:window-height="744"
     inkscape:window-x="65"
     inkscape:window-y="24"
     inkscape:window-maximized="1" />
  <metadata
     id="metadata3419">
    <rdf:RDF>
      <cc:Work
         rdf:about="">
        <dc:format>image/svg+xml</dc:format>
        <dc:type
           rdf:resource="http://purl.org/dc/dcmitype/StillImage" />
        <dc:title></dc:title>
      </cc:Work>
    </rdf:RDF>
  </metadata>
  <g
     inkscape:label="Layer 1"
     inkscape:groupmode="layer"
     id="layer1">
    <path
       style="fill:none;stroke:#000000;stroke-width:0.26458332px;stroke-linecap:butt;stroke-linejoin:miter;stroke-opacity:1"
       d="M 55.184523,157.1488 68.035714,149.58928 89.202381,141.2738 127,139.00594 127.75595,126.9107 V 93.648799 l -12.85119,-3.023809 -2.26786,-4.535713 13.60715,-10.583333 4.53571,7.559521 16.63095,1.511906 c 0,0 10.58334,-9.071427 11.33929,-6.047618 0.75595,3.023809 0.75595,15.875 0.75595,15.875 l -15.11905,2.267857 -9.82738,-3.023811 h -2.26786 v 45.357141 l 23.43453,4.53572 19.65476,13.60714 5.29167,12.09524 v 12.85119 l -10.58334,4.53571 h -18.89881 -31.75 l -30.238089,3.02381 H 60.47619 L 34.017857,178.31546 21.166666,185.87499 9.0714284,197.21428 v -56.69643 l 7.5595236,2.26785 9.071429,18.89881 7.559524,3.02381 z"
       id="path3424"
       inkscape:connector-curvature="0" />
    <path
       style="fill:none;stroke:#000000;stroke-width:0.26458332px;stroke-linecap:butt;stroke-linejoin:miter;stroke-opacity:1"
       d="m 143.63095,157.1488 -1.5119,9.07143 h 7.55952 l 2.26786,-3.77977 z"
       id="path3426"
       inkscape:connector-curvature="0" />
  </g>
</svg>
