<?xml version="1.0" encoding="UTF-8" standalone="no"?>
<!DOCTYPE svg PUBLIC "-//W3C//DTD SVG 20010904//EN"
              "http://www.w3.org/TR/2001/REC-SVG-20010904/DTD/svg10.dtd">

<svg xmlns="http://www.w3.org/2000/svg"
     width="8.88889in" height="5.55556in"
     viewBox="0 0 640 400">
  <path id="B"
        fill="none" stroke="black" stroke-width="1"
        d="M 153.19,99.00
           C 154.14,99.00 154.85,99.16 155.31,99.48
             155.77,99.81 156.00,100.31 156.00,101.00
             156.00,101.68 155.77,102.18 155.31,102.52
             154.85,102.84 154.14,103.00 153.19,103.00
             153.19,103.00 151.00,103.00 151.00,103.00
             151.00,103.00 151.00,99.00 151.00,99.00
             151.00,99.00 153.19,99.00 153.19,99.00 Z
           M 153.02,94.00
           C 153.68,94.00 154.18,94.12 154.50,94.38
             154.83,94.62 155.00,95.00 155.00,95.50
             155.00,96.01 154.83,96.39 154.50,96.64
             154.18,96.88 153.68,97.00 153.02,97.00
             153.02,97.00 151.00,97.00 151.00,97.00
             151.00,97.00 151.00,94.00 151.00,94.00
             151.00,94.00 153.02,94.00 153.02,94.00 Z
           M 149.00,105.00
           C 149.00,105.00 153.25,105.00 153.25,105.00
             154.77,105.00 155.94,104.68 156.77,104.05
             157.59,103.40 158.00,102.48 158.00,101.30
             158.00,100.40 157.71,99.66 157.12,99.06
             156.54,98.46 155.72,98.06 154.67,97.88
             155.43,97.76 156.01,97.48 156.41,97.02
             156.80,96.56 157.00,95.94 157.00,95.16
             157.00,94.15 156.66,93.37 155.98,92.83
             155.32,92.28 154.36,92.00 153.12,92.00
             153.12,92.00 149.00,92.00 149.00,92.00
             149.00,92.00 149.00,105.00 149.00,105.00 Z" />
</svg>
