<?xml version="1.0" encoding="UTF-8" standalone="no"?>
<!-- Created with Inkscape (http://www.inkscape.org/) -->

<svg
   xmlns:dc="http://purl.org/dc/elements/1.1/"
   xmlns:cc="http://creativecommons.org/ns#"
   xmlns:rdf="http://www.w3.org/1999/02/22-rdf-syntax-ns#"
   xmlns:svg="http://www.w3.org/2000/svg"
   xmlns="http://www.w3.org/2000/svg"
   xmlns:sodipodi="http://sodipodi.sourceforge.net/DTD/sodipodi-0.dtd"
   xmlns:inkscape="http://www.inkscape.org/namespaces/inkscape"
   width="210mm"
   height="297mm"
   viewBox="0 0 210 297"
   version="1.1"
   id="svg2438"
   inkscape:version="0.92.4 (unknown)"
   sodipodi:docname="caballo0h.svg">
  <defs
     id="defs2432" />
  <sodipodi:namedview
     id="base"
     pagecolor="#ffffff"
     bordercolor="#666666"
     borderopacity="1.0"
     inkscape:pageopacity="0.0"
     inkscape:pageshadow="2"
     inkscape:zoom="0.35"
     inkscape:cx="400"
     inkscape:cy="560"
     inkscape:document-units="mm"
     inkscape:current-layer="layer1"
     showgrid="false"
     inkscape:window-width="1301"
     inkscape:window-height="744"
     inkscape:window-x="65"
     inkscape:window-y="24"
     inkscape:window-maximized="1" />
  <metadata
     id="metadata2435">
    <rdf:RDF>
      <cc:Work
         rdf:about="">
        <dc:format>image/svg+xml</dc:format>
        <dc:type
           rdf:resource="http://purl.org/dc/dcmitype/StillImage" />
        <dc:title></dc:title>
      </cc:Work>
    </rdf:RDF>
  </metadata>
  <g
     inkscape:label="Layer 1"
     inkscape:groupmode="layer"
     id="layer1">
    <path
       style="fill:none;stroke:#000000;stroke-width:0.26458332px;stroke-linecap:butt;stroke-linejoin:miter;stroke-opacity:1"
       d="m 46.113094,73.994038 17.386905,-49.892856 12.095239,40.065475 15.875,12.095239 9.071432,-9.827382 12.85119,-37.797618 9.82738,17.386903 L 127,73.238087 V 83.82142 l 17.3869,25.70238 4.53572,18.14286 -12.85119,8.31547 29.48214,71.05952 7.55952,23.43453 -13.60714,34.01786 -18.14286,0.75596 -18.89881,1.51188 -21.92261,-18.8988 5.29166,-22.67857 -2.26786,-3.77976 -21.922614,-18.14286 -20.410714,12.09524 -35.529761,-43.08928 -0.755953,-27.21429 13.607144,-18.14286 -6.047621,-2.26785 -18.142856,19.65476 -11.3392856,-31.75 z"
       id="path2440"
       inkscape:connector-curvature="0" />
    <path
       style="fill:none;stroke:#000000;stroke-width:0.26458332px;stroke-linecap:butt;stroke-linejoin:miter;stroke-opacity:1"
       d="M 69.547617,120.10713 H 83.15476 l 13.607145,20.41072 -24.94643,6.80357 z"
       id="path2442"
       inkscape:connector-curvature="0" />
    <path
       style="fill:none;stroke:#000000;stroke-width:0.26458332px;stroke-linecap:butt;stroke-linejoin:miter;stroke-opacity:1"
       d="m 124.73214,250.13094 -1.5119,-11.33929 13.60714,-12.85119 3.77976,-1.5119"
       id="path2444"
       inkscape:connector-curvature="0" />
    <path
       style="fill:none;stroke:#000000;stroke-width:0.26458332px;stroke-linecap:butt;stroke-linejoin:miter;stroke-opacity:1"
       d="M 55.184523,231.23213 46.113094,287.92855 6.8035714,283.39285 6.047619,174.5357 6.8035714,162.44046 31.75,191.92261 Z"
       id="path2446"
       inkscape:connector-curvature="0" />
  </g>
</svg>
