<?xml version="1.0" encoding="UTF-8" standalone="no"?>
<!-- Created with Inkscape (http://www.inkscape.org/) -->

<svg
   xmlns:dc="http://purl.org/dc/elements/1.1/"
   xmlns:cc="http://creativecommons.org/ns#"
   xmlns:rdf="http://www.w3.org/1999/02/22-rdf-syntax-ns#"
   xmlns:svg="http://www.w3.org/2000/svg"
   xmlns="http://www.w3.org/2000/svg"
   xmlns:sodipodi="http://sodipodi.sourceforge.net/DTD/sodipodi-0.dtd"
   xmlns:inkscape="http://www.inkscape.org/namespaces/inkscape"
   width="210mm"
   height="297mm"
   viewBox="0 0 210 297"
   version="1.1"
   id="svg926"
   inkscape:version="0.92.4 (unknown)"
   sodipodi:docname="cabeza.svg">
  <defs
     id="defs920" />
  <sodipodi:namedview
     id="base"
     pagecolor="#ffffff"
     bordercolor="#666666"
     borderopacity="1.0"
     inkscape:pageopacity="0.0"
     inkscape:pageshadow="2"
     inkscape:zoom="0.35"
     inkscape:cx="84.285714"
     inkscape:cy="560"
     inkscape:document-units="mm"
     inkscape:current-layer="layer1"
     showgrid="false"
     inkscape:window-width="1301"
     inkscape:window-height="744"
     inkscape:window-x="65"
     inkscape:window-y="24"
     inkscape:window-maximized="1" />
  <metadata
     id="metadata923">
    <rdf:RDF>
      <cc:Work
         rdf:about="">
        <dc:format>image/svg+xml</dc:format>
        <dc:type
           rdf:resource="http://purl.org/dc/dcmitype/StillImage" />
        <dc:title></dc:title>
      </cc:Work>
    </rdf:RDF>
  </metadata>
  <g
     inkscape:label="Layer 1"
     inkscape:groupmode="layer"
     id="layer1">
    <path
       style="fill:none;stroke:#000000;stroke-width:0.26458332px;stroke-linecap:butt;stroke-linejoin:miter;stroke-opacity:1"
       d="M 46.113094,73.994046 57.452381,57.363095 c 0,0 8.315476,-6.803573 18.142857,-6.803573 9.827379,0 14.363094,-2.267855 21.922618,0 7.559524,2.267858 22.678574,8.315479 28.726194,11.339288 6.04762,3.023809 9.82738,12.095236 12.85119,17.386903 3.02381,5.291666 6.04762,10.583333 6.80357,21.166667 0.75595,10.58333 0.75595,30.99405 0.75595,30.99405 0,0 -3.77976,5.29166 -3.77976,12.85119 0,7.55952 5.29166,-4.53572 7.55952,-8.31548 2.26786,-3.77976 6.04762,-11.33929 9.82738,-11.33929 3.77976,0 8.31548,12.09524 8.31548,12.09524 0,0 2.26786,16.63096 -3.02381,22.67858 -5.29167,6.04761 -4.53571,17.3869 -10.58333,19.65476 -6.04762,2.26785 -13.60715,-3.77976 -13.60715,-3.77976 0,0 3.02381,6.04761 -4.53571,18.14285 -7.55952,12.09524 -6.80357,17.38691 -15.11905,21.92262 -8.31547,4.53571 -16.63095,12.09524 -30.238092,12.09524 -13.607145,0 -12.851191,7.55952 -24.94643,-3.02381 -12.095236,-10.58333 -13.607142,-21.16667 -15.119048,-31.75 -1.511903,-10.58333 -4.535712,-13.60714 -9.071427,-27.97024 -4.535715,-14.36309 -7.559524,-19.65476 -6.803573,-33.2619 0.755955,-13.60715 6.047621,-11.33929 7.559524,-17.38691 1.511906,-6.04762 4.535715,-4.53571 1.511906,-12.09524 -3.023809,-7.559519 -9.07143,3.02381 -3.023809,-13.607137 6.047618,-16.630954 4.535713,-14.363097 4.535713,-14.363097 z"
       id="path1471"
       inkscape:connector-curvature="0" />
    <path
       style="fill:none;stroke:#000000;stroke-width:0.26458332px;stroke-linecap:butt;stroke-linejoin:miter;stroke-opacity:1"
       d="m 52.160714,101.96428 c 3.023809,-0.75595 4.535713,-2.267853 9.827379,3.77977 5.291667,6.04762 6.047621,3.77976 6.047621,14.36309 0,10.58334 3.779761,15.11905 0,23.43453 -3.779763,8.31547 -5.291666,13.60714 -5.291666,16.63095 0,3.02381 -0.755955,6.04762 6.047618,6.04762 6.803572,0 15.119048,5.29166 19.65476,0 4.535715,-5.29167 13.607144,-10.58334 7.559524,-15.11905 -6.047618,-4.53571 -7.559524,-5.29167 -7.559524,-5.29167"
       id="path1473"
       inkscape:connector-curvature="0" />
    <path
       style="fill:none;stroke:#000000;stroke-width:0.26458332px;stroke-linecap:butt;stroke-linejoin:miter;stroke-opacity:1"
       d="m 108.10119,113.30357 c 0,0 -1.51191,-1.5119 7.55952,-2.26786 9.07143,-0.75595 14.3631,8.31548 14.3631,8.31548 l -13.60714,10.58333 -18.898814,-3.77976 -6.047618,-9.07143 z"
       id="path1475"
       inkscape:connector-curvature="0" />
    <path
       style="fill:none;stroke:#000000;stroke-width:0.26458332px;stroke-linecap:butt;stroke-linejoin:miter;stroke-opacity:1"
       d="m 49.892857,119.35119 6.047618,-2.26786 7.559524,3.77976 0.755952,6.80358 -13.607142,0.75595 z"
       id="path1477"
       inkscape:connector-curvature="0" />
    <path
       style="fill:none;stroke:#000000;stroke-width:0.26458332px;stroke-linecap:butt;stroke-linejoin:miter;stroke-opacity:1"
       d="m 33.261905,34.684522 27.214285,-13.607141 40.06548,-0.755953 32.50595,9.071428 20.41071,21.92262 16.63095,27.214285 5.29167,22.678569 9.07143,30.99405 -4.53572,43.84524 -16.63095,30.23809 -15.875,14.3631 v 0 l 53.67262,20.41071"
       id="path1485"
       inkscape:connector-curvature="0" />
    <path
       style="fill:none;stroke:#000000;stroke-width:0.26458332px;stroke-linecap:butt;stroke-linejoin:miter;stroke-opacity:1"
       d="m 66.523808,187.3869 22.678573,2.26786 16.630949,-8.31548"
       id="path1487"
       inkscape:connector-curvature="0" />
    <path
       style="fill:none;stroke:#000000;stroke-width:0.26458332px;stroke-linecap:butt;stroke-linejoin:miter;stroke-opacity:1"
       d="M 23.434524,49.803571 16.630952,76.261904 15.875,106.5 24.190476,145.05357 31.75,188.89881 35.52976,219.1369 9.0714284,241.05952"
       id="path1489"
       inkscape:connector-curvature="0" />
    <path
       style="fill:none;stroke:#000000;stroke-width:0.26458332px;stroke-linecap:butt;stroke-linejoin:miter;stroke-opacity:1"
       d="m 60.47619,236.52381 -7.559524,20.41071 15.875,9.07142 33.261904,-2.26785 15.11905,-17.3869 2.26785,-15.875 -31.749995,15.11904 z"
       id="path1491"
       inkscape:connector-curvature="0" />
  </g>
</svg>
