<?xml version="1.0" encoding="UTF-8" standalone="no"?>
<!-- Created with Inkscape (http://www.inkscape.org/) -->

<svg
   xmlns:dc="http://purl.org/dc/elements/1.1/"
   xmlns:cc="http://creativecommons.org/ns#"
   xmlns:rdf="http://www.w3.org/1999/02/22-rdf-syntax-ns#"
   xmlns:svg="http://www.w3.org/2000/svg"
   xmlns="http://www.w3.org/2000/svg"
   xmlns:sodipodi="http://sodipodi.sourceforge.net/DTD/sodipodi-0.dtd"
   xmlns:inkscape="http://www.inkscape.org/namespaces/inkscape"
   width="210mm"
   height="297mm"
   viewBox="0 0 210 297"
   version="1.1"
   id="svg8"
   sodipodi:docname="cara.svg"
   inkscape:version="0.92.4 (unknown)">
  <defs
     id="defs2" />
  <sodipodi:namedview
     id="base"
     pagecolor="#ffffff"
     bordercolor="#666666"
     borderopacity="1.0"
     inkscape:pageopacity="0.0"
     inkscape:pageshadow="2"
     inkscape:zoom="0.35"
     inkscape:cx="-144.28571"
     inkscape:cy="560"
     inkscape:document-units="mm"
     inkscape:current-layer="layer1"
     showgrid="false"
     inkscape:window-width="1301"
     inkscape:window-height="744"
     inkscape:window-x="65"
     inkscape:window-y="24"
     inkscape:window-maximized="1" />
  <metadata
     id="metadata5">
    <rdf:RDF>
      <cc:Work
         rdf:about="">
        <dc:format>image/svg+xml</dc:format>
        <dc:type
           rdf:resource="http://purl.org/dc/dcmitype/StillImage" />
        <dc:title></dc:title>
      </cc:Work>
    </rdf:RDF>
  </metadata>
  <g
     inkscape:label="Layer 1"
     inkscape:groupmode="layer"
     id="layer1">
    <g
       style="font-style:normal;font-weight:normal;font-size:40px;line-height:1.25;font-family:sans-serif;letter-spacing:0px;word-spacing:0px;fill:#000000;fill-opacity:1;stroke:none"
       id="flowRoot815" />
    <text
       xml:space="preserve"
       style="font-style:normal;font-weight:normal;font-size:10.58333302px;line-height:1.25;font-family:sans-serif;letter-spacing:0px;word-spacing:0px;fill:#000000;fill-opacity:1;stroke:none;stroke-width:0.26458332"
       x="53.672619"
       y="72.482147"
       id="text845"><tspan
         sodipodi:role="line"
         id="tspan843"
         x="53.672619"
         y="81.845917"
         style="stroke-width:0.26458332"></tspan></text>
    <path
       style="fill:none;stroke:#000000;stroke-width:0.26458332px;stroke-linecap:butt;stroke-linejoin:miter;stroke-opacity:1"
       d="m 36.285715,116.32738 c 7.559524,-28.726192 -0.755955,-9.07143 7.559524,-28.726192 8.315475,-19.65476 28.726188,-38.553569 36.285712,-38.553569 7.559524,0 6.803572,-6.047618 27.214289,-3.779763 20.41071,2.267857 46.11309,22.678572 46.11309,22.678572 0,0 11.33929,1.511906 18.89881,25.702381 7.55952,24.190471 4.53572,58.208331 4.53572,58.208331 0,0 -7.55953,23.43453 -22.67858,34.77381 -15.11904,11.33929 -51.40476,10.58333 -51.40476,10.58333 0,0 -20.410712,1.51191 -34.017854,-10.58333 -13.607143,-12.09524 -21.922618,-24.94643 -23.434524,-34.77381 -1.511903,-9.82738 -9.071427,-35.52976 -9.071427,-35.52976 z"
       id="path891"
       inkscape:connector-curvature="0" />
    <path
       style="fill:none;stroke:#000000;stroke-width:0.26458332px;stroke-linecap:butt;stroke-linejoin:miter;stroke-opacity:1"
       d="m 61.988093,89.869046 c -4.535712,9.07143 -10.583333,14.363094 -3.77976,17.386904 6.803572,3.02381 14.363094,6.80357 17.386905,3.02381 C 78.619047,106.5 85.422617,98.940476 83.15476,95.160713 80.886905,91.380952 61.988093,89.869046 61.988093,89.869046 Z"
       id="path893"
       inkscape:connector-curvature="0" />
    <path
       style="fill:none;stroke:#000000;stroke-width:0.26458332px;stroke-linecap:butt;stroke-linejoin:miter;stroke-opacity:1"
       d="m 119.44047,92.892855 c -5.29166,6.803572 -12.85119,11.339285 -5.29166,15.874995 7.55952,4.53572 14.36309,10.58334 20.41071,4.53572 6.04762,-6.04762 12.85119,-12.09524 6.04762,-16.630952 -6.80357,-4.535715 -21.16667,-3.779763 -21.16667,-3.779763 z"
       id="path895"
       inkscape:connector-curvature="0" />
    <path
       style="fill:none;stroke:#000000;stroke-width:0.26458332px;stroke-linecap:butt;stroke-linejoin:miter;stroke-opacity:1"
       d="m 92.982141,105.74405 c -9.071427,43.08928 -12.85119,55.18452 -1.511903,55.18452 11.339282,0 26.458332,-6.04762 24.946432,-15.11905 -1.51191,-9.07143 -11.33929,-6.04762 -11.33929,-10.58333 0,-4.53571 -12.095239,-29.48214 -12.095239,-29.48214 z"
       id="path897"
       inkscape:connector-curvature="0" />
    <path
       style="fill:none;stroke:#000000;stroke-width:0.26458332px;stroke-linecap:butt;stroke-linejoin:miter;stroke-opacity:1"
       d="m 78.619047,169.24404 c 0,0 -1.511905,6.80358 16.630952,6.04763 18.142861,-0.75596 19.654761,-4.53572 26.458331,-9.07143 6.80357,-4.53572 21.16667,-8.31548 10.58333,3.0238 -10.58333,11.33929 -16.63095,16.63096 -31.74999,12.8512 -15.119053,-3.77977 -21.922623,-12.8512 -21.922623,-12.8512 z"
       id="path899"
       inkscape:connector-curvature="0" />
  </g>
</svg>
