<?xml version="1.0" encoding="UTF-8" standalone="no"?>
<!-- Created with Inkscape (http://www.inkscape.org/) -->

<svg
   xmlns:dc="http://purl.org/dc/elements/1.1/"
   xmlns:cc="http://creativecommons.org/ns#"
   xmlns:rdf="http://www.w3.org/1999/02/22-rdf-syntax-ns#"
   xmlns:svg="http://www.w3.org/2000/svg"
   xmlns="http://www.w3.org/2000/svg"
   xmlns:sodipodi="http://sodipodi.sourceforge.net/DTD/sodipodi-0.dtd"
   xmlns:inkscape="http://www.inkscape.org/namespaces/inkscape"
   width="210mm"
   height="297mm"
   viewBox="0 0 210 297"
   version="1.1"
   id="svg1614"
   inkscape:version="0.92.4 (unknown)"
   sodipodi:docname="cara0h.svg">
  <defs
     id="defs1608" />
  <sodipodi:namedview
     id="base"
     pagecolor="#ffffff"
     bordercolor="#666666"
     borderopacity="1.0"
     inkscape:pageopacity="0.0"
     inkscape:pageshadow="2"
     inkscape:zoom="0.35"
     inkscape:cx="400"
     inkscape:cy="560"
     inkscape:document-units="mm"
     inkscape:current-layer="layer1"
     showgrid="false"
     inkscape:window-width="1301"
     inkscape:window-height="744"
     inkscape:window-x="65"
     inkscape:window-y="24"
     inkscape:window-maximized="1" />
  <metadata
     id="metadata1611">
    <rdf:RDF>
      <cc:Work
         rdf:about="">
        <dc:format>image/svg+xml</dc:format>
        <dc:type
           rdf:resource="http://purl.org/dc/dcmitype/StillImage" />
        <dc:title></dc:title>
      </cc:Work>
    </rdf:RDF>
  </metadata>
  <g
     inkscape:label="Layer 1"
     inkscape:groupmode="layer"
     id="layer1">
    <path
       style="fill:none;stroke:#000000;stroke-width:0.26458332px;stroke-linecap:butt;stroke-linejoin:miter;stroke-opacity:1"
       d="m 38.553572,85.333323 h 14.363094 l 18.142857,12.851191 6.047619,21.922616 -20.410715,43.08929 c 0,0 -6.80357,6.80357 0,12.85119 6.803572,6.04762 12.095239,12.09524 19.654763,12.09524 7.559524,0 24.19048,1.5119 24.94643,-3.77976 0.75595,-5.29167 -6.803573,-19.65477 -6.803573,-19.65477"
       id="path1616"
       inkscape:connector-curvature="0" />
    <path
       style="fill:none;stroke:#000000;stroke-width:0.26458332px;stroke-linecap:butt;stroke-linejoin:miter;stroke-opacity:1"
       d="m 121.70833,92.136895 c 0,0 3.77976,-1.511905 14.3631,-1.511905 10.58333,0 12.85119,-7.559525 23.43452,4.535715 10.58333,12.095235 -7.55952,17.386905 -7.55952,17.386905 h -15.875 z"
       id="path1618"
       inkscape:connector-curvature="0" />
    <path
       style="fill:none;stroke:#000000;stroke-width:0.26458332px;stroke-linecap:butt;stroke-linejoin:miter;stroke-opacity:1"
       d="m 32.505951,100.45237 10.583333,12.85119 12.095239,3.02381 5.291667,-0.75595 -10.583333,-15.11905 z"
       id="path1620"
       inkscape:connector-curvature="0" />
    <path
       style="fill:none;stroke:#000000;stroke-width:0.26458332px;stroke-linecap:butt;stroke-linejoin:miter;stroke-opacity:1"
       d="m 81.642856,193.43451 -3.023809,22.67857 14.363094,6.04762 18.142859,-5.29166 c 0,0 13.60714,-2.26786 14.36309,-6.04762 0.75596,-3.77977 -3.02381,-16.63096 -3.02381,-19.65477"
       id="path1622"
       inkscape:connector-curvature="0" />
    <path
       style="fill:none;stroke:#000000;stroke-width:0.26458332px;stroke-linecap:butt;stroke-linejoin:miter;stroke-opacity:1"
       d="m 80.886905,232.74404 c 0,13.60714 0,20.41071 9.071427,20.41071 9.071428,0 9.827382,6.80357 17.386908,0 7.55952,-6.80357 10.58333,-3.77976 15.11904,-12.85119 4.53572,-9.07143 -9.07142,-6.80357 -9.07142,-6.80357 l -14.3631,5.29166 z"
       id="path1624"
       inkscape:connector-curvature="0" />
    <path
       style="fill:none;stroke:#000000;stroke-width:0.26458332px;stroke-linecap:butt;stroke-linejoin:miter;stroke-opacity:1"
       d="m 31.75,140.51785 -12.095238,24.94643 c 0,0 -7.559524,-13.60715 2.267857,16.63095 9.827381,30.23809 21.166665,18.14285 24.190475,37.79762 3.023811,19.65476 -0.755952,18.8988 3.023811,34.01785 3.779761,15.11906 3.779761,22.67857 15.875,26.45833 12.095237,3.77976 6.80357,6.04764 36.285715,6.80358 29.48214,0.75594 49.1369,-16.63094 58.96428,-25.70238 9.82738,-9.07143 22.67857,-24.94643 26.45834,-50.64881 3.77976,-25.70238 2.26785,-69.54762 3.02381,-86.17857 C 190.5,108.0119 198.05952,106.49999 190.5,82.309514 182.94047,58.119038 194.27976,54.339278 173.86905,36.19642 153.45833,18.053563 122.46428,17.29761 116.41667,17.29761 c -6.04762,0 -34.017862,-2.267857 -43.089289,-2.267857 -9.07143,0 -24.190476,17.386904 -28.726191,24.190476 -4.535715,6.80357 -18.142857,9.827382 -21.922619,21.922618 -3.779762,12.09524 -8.315476,9.07143 -6.803571,20.410715 1.511905,11.339285 -5.291667,14.363094 -5.291667,21.166668 C 10.583333,109.5238 0,99.69642 31.75,140.51785 Z"
       id="path1632"
       inkscape:connector-curvature="0" />
  </g>
</svg>
