<?xml version="1.0" encoding="UTF-8" standalone="no"?>
<!-- Created with Inkscape (http://www.inkscape.org/) -->

<svg
   xmlns:dc="http://purl.org/dc/elements/1.1/"
   xmlns:cc="http://creativecommons.org/ns#"
   xmlns:rdf="http://www.w3.org/1999/02/22-rdf-syntax-ns#"
   xmlns:svg="http://www.w3.org/2000/svg"
   xmlns="http://www.w3.org/2000/svg"
   xmlns:sodipodi="http://sodipodi.sourceforge.net/DTD/sodipodi-0.dtd"
   xmlns:inkscape="http://www.inkscape.org/namespaces/inkscape"
   width="210mm"
   height="297mm"
   viewBox="0 0 210 297"
   version="1.1"
   id="svg8"
   inkscape:version="0.92.4 (unknown)"
   sodipodi:docname="cConHGrande.svg">
  <defs
     id="defs2" />
  <sodipodi:namedview
     id="base"
     pagecolor="#ffffff"
     bordercolor="#666666"
     borderopacity="1.0"
     inkscape:pageopacity="0.0"
     inkscape:pageshadow="2"
     inkscape:zoom="0.35"
     inkscape:cx="84.285714"
     inkscape:cy="560"
     inkscape:document-units="mm"
     inkscape:current-layer="layer1"
     showgrid="false"
     inkscape:window-width="1301"
     inkscape:window-height="744"
     inkscape:window-x="65"
     inkscape:window-y="24"
     inkscape:window-maximized="1" />
  <metadata
     id="metadata5">
    <rdf:RDF>
      <cc:Work
         rdf:about="">
        <dc:format>image/svg+xml</dc:format>
        <dc:type
           rdf:resource="http://purl.org/dc/dcmitype/StillImage" />
        <dc:title></dc:title>
      </cc:Work>
    </rdf:RDF>
  </metadata>
  <g
     inkscape:label="Layer 1"
     inkscape:groupmode="layer"
     id="layer1">
    <path
       style="fill:none;stroke:#000000;stroke-width:0.26458332px;stroke-linecap:butt;stroke-linejoin:miter;stroke-opacity:1"
       d="m 46.113094,73.994046 c 0,-3.023809 -9.827379,-3.779761 11.339287,-14.363094 21.166666,-10.583333 7.559524,-22.678572 39.309524,-14.363096 31.749995,8.315478 58.964285,12.85119 69.547615,35.529763 10.58334,22.678571 21.16667,43.089281 21.92262,63.500001 0.75595,20.41071 -2.26786,21.92262 -10.58333,46.86905 -8.31548,24.94642 1.5119,37.79761 -22.67857,43.84523 -24.19048,6.04762 -40.82143,15.875 -63.500002,12.85119 C 68.791666,244.83928 43.845239,233.5 39.309524,223.67262 c -4.535715,-9.82738 -15.875,-15.11905 -4.535715,-19.65477 11.339285,-4.53571 11.339285,-7.55952 26.458333,2.26786 15.119048,9.82738 7.559524,14.3631 34.017857,14.3631 26.458331,0 39.309521,0.75595 46.113091,-15.875 6.80357,-16.63096 12.85119,-27.21429 13.60715,-46.1131 0.75595,-18.89881 11.33928,-30.99404 -4.53572,-49.89286 -15.875,-18.898804 -20.41071,-34.773804 -36.28571,-34.773804 -15.875002,0 -24.946429,0 -31.750002,7.559524 -6.80357,7.559524 -17.386903,18.89881 -26.458333,18.89881 -9.071427,0 -15.875,-1.511904 -18.142857,-11.339286 -2.267858,-9.827381 8.315476,-15.119048 8.315476,-15.119048 z"
       id="path815"
       inkscape:connector-curvature="0" />
    <path
       style="fill:none;fill-opacity:1;stroke:none;stroke-width:0.26499999;stroke-miterlimit:4;stroke-dasharray:none;stroke-opacity:1"
       d="M -23.434523,101.96429 H 137.58333 v 93.73809 H -23.434523 Z"
       id="rect817" />
  </g>
</svg>
