<?xml version="1.0" encoding="UTF-8" standalone="no"?>
<!-- Created with Inkscape (http://www.inkscape.org/) -->

<svg
   xmlns:dc="http://purl.org/dc/elements/1.1/"
   xmlns:cc="http://creativecommons.org/ns#"
   xmlns:rdf="http://www.w3.org/1999/02/22-rdf-syntax-ns#"
   xmlns:svg="http://www.w3.org/2000/svg"
   xmlns="http://www.w3.org/2000/svg"
   xmlns:sodipodi="http://sodipodi.sourceforge.net/DTD/sodipodi-0.dtd"
   xmlns:inkscape="http://www.inkscape.org/namespaces/inkscape"
   width="210mm"
   height="297mm"
   viewBox="0 0 210 297"
   version="1.1"
   id="svg8"
   inkscape:version="0.92.4 (unknown)"
   sodipodi:docname="drawing.svg">
  <defs
     id="defs2" />
  <sodipodi:namedview
     id="base"
     pagecolor="#ffffff"
     bordercolor="#666666"
     borderopacity="1.0"
     inkscape:pageopacity="0.0"
     inkscape:pageshadow="2"
     inkscape:zoom="0.35"
     inkscape:cx="-30"
     inkscape:cy="445.71429"
     inkscape:document-units="mm"
     inkscape:current-layer="layer1"
     showgrid="false"
     inkscape:window-width="1272"
     inkscape:window-height="716"
     inkscape:window-x="91"
     inkscape:window-y="24"
     inkscape:window-maximized="0" />
  <metadata
     id="metadata5">
    <rdf:RDF>
      <cc:Work
         rdf:about="">
        <dc:format>image/svg+xml</dc:format>
        <dc:type
           rdf:resource="http://purl.org/dc/dcmitype/StillImage" />
        <dc:title></dc:title>
      </cc:Work>
    </rdf:RDF>
  </metadata>
  <g
     inkscape:label="Layer 1"
     inkscape:groupmode="layer"
     id="layer1">
    <path
       style="fill:none;stroke:#000000;stroke-width:0.26458332px;stroke-linecap:butt;stroke-linejoin:miter;stroke-opacity:1"
       d="m 27.970239,77.017855 c 0,0 -8.315477,-6.047618 6.80357,-18.142854 15.119048,-12.09524 11.339285,-22.678573 40.065475,-22.678573 28.726186,0 25.702386,-5.291666 47.624996,0 21.92262,5.291667 37.04167,-0.755951 42.33334,8.315476 5.29166,9.07143 16.63095,22.678572 3.02381,27.214285 -13.60715,4.535715 -9.82738,0 -37.04167,-0.755952 C 103.56547,70.214285 96.00595,61.89881 83.910714,75.505952 71.815475,89.113094 50.648809,86.089285 50.648809,113.30357 c 0,27.21428 -2.267858,54.42857 0,72.57143 2.267857,18.14285 -19.654761,17.3869 13.607142,30.23809 33.261905,12.85119 37.797619,10.58334 60.476189,14.3631 22.67857,3.77976 30.99405,20.41071 31.75,34.01785 0.75595,13.60714 2.26786,12.09523 -22.67857,12.8512 -24.94643,0.75594 -22.67857,7.55952 -46.113095,-6.04763 -23.434524,-13.60714 -32.505952,-16.63095 -43.845236,-24.94642 -11.339288,-8.31548 -25.702382,-3.77976 -26.458334,-32.50595 -0.755953,-28.7262 -0.755953,-65.01191 -0.755953,-81.64286 0,-16.63095 11.339287,-55.184525 11.339287,-55.184525 z"
       id="path815"
       inkscape:connector-curvature="0" />
    <path
       style="fill:none;fill-opacity:1;stroke:none;stroke-width:0.26499999;stroke-miterlimit:4;stroke-dasharray:none;stroke-opacity:1"
       d="M 66.523811,97.428574 H 292.55357 V 213.84523 H 66.523811 Z"
       id="rect817" />
  </g>
</svg>
