<?xml version="1.0" encoding="UTF-8" standalone="no"?>
<!-- Created with Inkscape (http://www.inkscape.org/) -->

<svg
   xmlns:dc="http://purl.org/dc/elements/1.1/"
   xmlns:cc="http://creativecommons.org/ns#"
   xmlns:rdf="http://www.w3.org/1999/02/22-rdf-syntax-ns#"
   xmlns:svg="http://www.w3.org/2000/svg"
   xmlns="http://www.w3.org/2000/svg"
   xmlns:sodipodi="http://sodipodi.sourceforge.net/DTD/sodipodi-0.dtd"
   xmlns:inkscape="http://www.inkscape.org/namespaces/inkscape"
   width="210mm"
   height="297mm"
   viewBox="0 0 210 297"
   version="1.1"
   id="svg2542"
   inkscape:version="0.92.4 (unknown)"
   sodipodi:docname="csinh.svg">
  <defs
     id="defs2536" />
  <sodipodi:namedview
     id="base"
     pagecolor="#ffffff"
     bordercolor="#666666"
     borderopacity="1.0"
     inkscape:pageopacity="0.0"
     inkscape:pageshadow="2"
     inkscape:zoom="0.35"
     inkscape:cx="285.71429"
     inkscape:cy="560"
     inkscape:document-units="mm"
     inkscape:current-layer="layer1"
     showgrid="false"
     inkscape:window-width="1301"
     inkscape:window-height="744"
     inkscape:window-x="65"
     inkscape:window-y="24"
     inkscape:window-maximized="1" />
  <metadata
     id="metadata2539">
    <rdf:RDF>
      <cc:Work
         rdf:about="">
        <dc:format>image/svg+xml</dc:format>
        <dc:type
           rdf:resource="http://purl.org/dc/dcmitype/StillImage" />
        <dc:title></dc:title>
      </cc:Work>
    </rdf:RDF>
  </metadata>
  <g
     inkscape:label="Layer 1"
     inkscape:groupmode="layer"
     id="layer1">
    <path
       style="fill:none;stroke:#000000;stroke-width:0.26458332px;stroke-linecap:butt;stroke-linejoin:miter;stroke-opacity:1"
       d="M 153.45833,60.386896 136.82738,39.976181 117.92857,34.684514 71.059523,39.220229 58.964284,58.119038 44.60119,86.845229 l -9.07143,64.255951 5.291667,54.42857 28.72619,32.50595 39.309523,11.33929 34.77381,-7.55953 17.38691,-18.14285 13.60714,-25.70238 -4.53572,-15.875 c 0,0 -11.33928,-2.26786 -15.11904,0.75595 -3.77977,3.02381 -21.16667,21.92262 -21.16667,21.92262 0,0 -9.82738,6.04762 -14.3631,7.55952 -4.53571,1.51191 -29.482138,1.51191 -29.482138,1.51191 L 72.571427,198.72618 63.499999,174.5357 60.47619,139.00594 c 0,0 -1.511906,-24.94643 6.047618,-37.79762 7.559524,-12.851188 0.755952,-9.827376 16.630952,-27.214282 15.875,-17.386906 15.119048,-22.678572 27.97024,-18.142857 12.85119,4.535715 30.23809,27.214284 30.23809,27.214284 0,0 8.31548,21.922625 12.85119,21.922625 4.53572,0 15.875,-3.77977 15.875,-3.77977 l 5.29167,-18.142855 z"
       id="path2546"
       inkscape:connector-curvature="0" />
  </g>
</svg>
