<?xml version="1.0" encoding="UTF-8" standalone="no"?>
<!-- Created with Inkscape (http://www.inkscape.org/) -->

<svg
   xmlns:dc="http://purl.org/dc/elements/1.1/"
   xmlns:cc="http://creativecommons.org/ns#"
   xmlns:rdf="http://www.w3.org/1999/02/22-rdf-syntax-ns#"
   xmlns:svg="http://www.w3.org/2000/svg"
   xmlns="http://www.w3.org/2000/svg"
   xmlns:sodipodi="http://sodipodi.sourceforge.net/DTD/sodipodi-0.dtd"
   xmlns:inkscape="http://www.inkscape.org/namespaces/inkscape"
   width="210mm"
   height="297mm"
   viewBox="0 0 210 297"
   version="1.1"
   id="svg2646"
   inkscape:version="0.92.4 (unknown)"
   sodipodi:docname="drawing-9.svg">
  <defs
     id="defs2640" />
  <sodipodi:namedview
     id="base"
     pagecolor="#ffffff"
     bordercolor="#666666"
     borderopacity="1.0"
     inkscape:pageopacity="0.0"
     inkscape:pageshadow="2"
     inkscape:zoom="0.35"
     inkscape:cx="-30"
     inkscape:cy="560"
     inkscape:document-units="mm"
     inkscape:current-layer="layer1"
     showgrid="false"
     inkscape:window-width="1301"
     inkscape:window-height="744"
     inkscape:window-x="65"
     inkscape:window-y="24"
     inkscape:window-maximized="1" />
  <metadata
     id="metadata2643">
    <rdf:RDF>
      <cc:Work
         rdf:about="">
        <dc:format>image/svg+xml</dc:format>
        <dc:type
           rdf:resource="http://purl.org/dc/dcmitype/StillImage" />
        <dc:title></dc:title>
      </cc:Work>
    </rdf:RDF>
  </metadata>
  <g
     inkscape:label="Layer 1"
     inkscape:groupmode="layer"
     id="layer1">
    <path
       style="fill:none;stroke:#000000;stroke-width:0.26458332px;stroke-linecap:butt;stroke-linejoin:miter;stroke-opacity:1"
       d="m 149.67857,120.86309 c 6.04762,28.72619 -15.11905,28.72619 -18.14286,27.97024 -3.02381,-0.75595 -9.82738,-23.43452 -9.82738,18.14286 0,41.57738 0.75595,61.23214 0.75595,73.32738 0,12.09524 -4.53571,19.65476 -20.41071,18.89881 -15.874999,-0.75595 -48.380952,15.11905 -51.404761,-3.02381 -3.02381,-18.14286 -3.779761,-40.06548 -3.779761,-55.94048 0,-15.875 5.291666,-43.08928 2.267857,-53.67261 C 46.113094,135.98214 63.499999,138.25 46.113094,135.98214 28.72619,133.71428 17.386905,156.39285 16.630952,132.20238 15.875,108.0119 5.2916666,101.20833 21.166666,80.041667 c 15.875,-21.166666 31.75,-43.089287 42.333333,-44.60119 10.583333,-1.511906 11.339285,-16.630953 30.994048,-1.511906 19.654763,15.119048 43.845233,37.041666 48.380953,52.916666 4.53571,15.875003 6.80357,34.017853 6.80357,34.017853 z"
       id="path3191"
       inkscape:connector-curvature="0" />
    <path
       style="fill:none;stroke:#000000;stroke-width:0.26458332px;stroke-linecap:butt;stroke-linejoin:miter;stroke-opacity:1"
       d="M 55.184523,69.458334 C 68.791666,59.630952 60.47619,47.535713 84.666666,58.119046 108.85714,68.70238 110.36905,65.67857 112.6369,83.821428 c 2.26786,18.142852 15.11905,27.970242 4.53572,37.041662 -10.58334,9.07143 -22.678573,14.3631 -38.553573,9.07143 -15.874999,-5.29167 -25.702381,-1.5119 -27.970238,-9.07143 -2.267858,-7.55952 4.535714,-51.404756 4.535714,-51.404756 z"
       id="path3193"
       inkscape:connector-curvature="0" />
    <path
       style="fill:none;stroke:#000000;stroke-width:0.26458332px;stroke-linecap:butt;stroke-linejoin:miter;stroke-opacity:1"
       d="m 68.791666,182.09524 c 0,41.57738 -12.095239,52.91666 0,61.23214 12.095239,8.31547 27.214284,12.85119 33.261904,5.29166 6.04762,-7.55952 6.04762,-15.11904 6.04762,-30.99404 0,-15.875 1.5119,-27.97024 -0.75595,-42.33333 -2.26786,-14.3631 -12.095241,-20.41072 -20.410717,-20.41072 -8.315476,0 -16.630951,-5.29167 -18.142857,27.21429 z"
       id="path3195"
       inkscape:connector-curvature="0" />
  </g>
</svg>
