<?xml version="1.0" encoding="UTF-8" standalone="no"?>
<!-- Created with Inkscape (http://www.inkscape.org/) -->

<svg
   xmlns:dc="http://purl.org/dc/elements/1.1/"
   xmlns:cc="http://creativecommons.org/ns#"
   xmlns:rdf="http://www.w3.org/1999/02/22-rdf-syntax-ns#"
   xmlns:svg="http://www.w3.org/2000/svg"
   xmlns="http://www.w3.org/2000/svg"
   xmlns:sodipodi="http://sodipodi.sourceforge.net/DTD/sodipodi-0.dtd"
   xmlns:inkscape="http://www.inkscape.org/namespaces/inkscape"
   width="210mm"
   height="297mm"
   viewBox="0 0 210 297"
   version="1.1"
   id="svg846"
   inkscape:version="0.92.4 (unknown)"
   sodipodi:docname="drawing-8.svg">
  <defs
     id="defs840" />
  <sodipodi:namedview
     id="base"
     pagecolor="#ffffff"
     bordercolor="#666666"
     borderopacity="1.0"
     inkscape:pageopacity="0.0"
     inkscape:pageshadow="2"
     inkscape:zoom="0.35"
     inkscape:cx="-30"
     inkscape:cy="560"
     inkscape:document-units="mm"
     inkscape:current-layer="layer1"
     showgrid="false"
     inkscape:window-width="1301"
     inkscape:window-height="744"
     inkscape:window-x="65"
     inkscape:window-y="24"
     inkscape:window-maximized="1" />
  <metadata
     id="metadata843">
    <rdf:RDF>
      <cc:Work
         rdf:about="">
        <dc:format>image/svg+xml</dc:format>
        <dc:type
           rdf:resource="http://purl.org/dc/dcmitype/StillImage" />
        <dc:title></dc:title>
      </cc:Work>
    </rdf:RDF>
  </metadata>
  <g
     inkscape:label="Layer 1"
     inkscape:groupmode="layer"
     id="layer1">
    <path
       style="fill:none;stroke:#000000;stroke-width:0.26458332px;stroke-linecap:butt;stroke-linejoin:miter;stroke-opacity:1"
       d="m 61.988093,61.142855 c 0,0 -8.315475,-9.071427 16.630954,-8.315475 24.946423,0.755954 31.750003,8.315475 40.065473,21.166666 C 127,86.845237 127,102.72024 130.77976,120.10714 c 3.77976,17.38691 19.65476,36.28571 21.92262,61.9881 2.26786,25.70238 17.3869,39.30952 2.26786,52.91666 -15.11905,13.60714 -27.21429,18.14286 -30.2381,-3.77976 -3.02381,-21.92262 -4.53571,-30.99405 -8.31547,-45.35714 -3.77977,-14.3631 -1.51191,-25.70238 -19.654765,-20.41072 -18.142858,5.29167 -6.803573,-22.67857 -18.898812,5.29167 -12.095236,27.97024 -5.291666,74.83928 -24.190475,65.76786 C 34.773809,227.45238 30.994048,222.91667 31.75,203.2619 32.505951,183.60714 27.214285,167.73214 38.553572,125.39881 49.892857,83.065476 61.988093,61.142855 61.988093,61.142855 Z"
       id="path1393"
       inkscape:connector-curvature="0" />
    <path
       style="fill:none;stroke:#000000;stroke-width:0.26458332px;stroke-linecap:butt;stroke-linejoin:miter;stroke-opacity:1"
       d="M 80.130951,92.892855 C 63.499999,114.81548 51.40476,135.22619 65.767857,139.00595 c 14.363094,3.77976 36.285713,18.14286 41.577383,4.53572 5.29166,-13.60715 7.55952,-47.625003 7.55952,-47.625003 0,0 30.2381,3.023809 -1.5119,0 C 81.642856,92.892855 80.130951,92.892855 80.130951,92.892855 Z"
       id="path1395"
       inkscape:connector-curvature="0" />
  </g>
</svg>
