<?xml version="1.0" encoding="UTF-8" standalone="no"?>
<!-- Created with Inkscape (http://www.inkscape.org/) -->

<svg
   xmlns:dc="http://purl.org/dc/elements/1.1/"
   xmlns:cc="http://creativecommons.org/ns#"
   xmlns:rdf="http://www.w3.org/1999/02/22-rdf-syntax-ns#"
   xmlns:svg="http://www.w3.org/2000/svg"
   xmlns="http://www.w3.org/2000/svg"
   xmlns:sodipodi="http://sodipodi.sourceforge.net/DTD/sodipodi-0.dtd"
   xmlns:inkscape="http://www.inkscape.org/namespaces/inkscape"
   width="210mm"
   height="297mm"
   viewBox="0 0 210 297"
   version="1.1"
   id="svg1071"
   inkscape:version="0.92.4 (unknown)"
   sodipodi:docname="Econ2h.svg">
  <defs
     id="defs1065" />
  <sodipodi:namedview
     id="base"
     pagecolor="#ffffff"
     bordercolor="#666666"
     borderopacity="1.0"
     inkscape:pageopacity="0.0"
     inkscape:pageshadow="2"
     inkscape:zoom="0.35"
     inkscape:cx="285.71429"
     inkscape:cy="674.28571"
     inkscape:document-units="mm"
     inkscape:current-layer="layer1"
     showgrid="false"
     inkscape:window-width="1301"
     inkscape:window-height="744"
     inkscape:window-x="65"
     inkscape:window-y="24"
     inkscape:window-maximized="1" />
  <metadata
     id="metadata1068">
    <rdf:RDF>
      <cc:Work
         rdf:about="">
        <dc:format>image/svg+xml</dc:format>
        <dc:type
           rdf:resource="http://purl.org/dc/dcmitype/StillImage" />
        <dc:title></dc:title>
      </cc:Work>
    </rdf:RDF>
  </metadata>
  <g
     inkscape:label="Layer 1"
     inkscape:groupmode="layer"
     id="layer1">
    <path
       style="fill:none;stroke:#000000;stroke-width:0.26458332px;stroke-linecap:butt;stroke-linejoin:miter;stroke-opacity:1"
       d="M 24.946428,24.857134 28.72619,185.11904 c 0,0 -4.535714,74.08333 0,83.15475 4.535715,9.07143 40.821427,18.14288 78.61905,14.36309 37.79762,-3.77976 47.625,7.55955 64.25595,-2.26785 16.63095,-9.82736 25.70238,-16.63095 16.63095,-20.41071 -9.07143,-3.77976 -12.85119,-13.60714 -44.60119,-11.33928 -31.75,2.26785 -23.43452,3.02381 -52.160712,2.26785 -28.72619,-0.75595 -36.285715,3.77976 -36.285715,-2.26785 0,-6.04762 -3.023809,-14.3631 -3.023809,-21.92262 0,-7.55953 0,-30.99405 0,-41.57738 0,-10.58334 -4.535715,-14.3631 0.755952,-15.875 5.291667,-1.51191 5.291667,-3.02381 34.017857,-3.02381 28.726187,0 47.624997,2.26786 55.184527,0 7.55952,-2.26786 10.58333,-14.3631 10.58333,-14.3631 0,0 -5.29167,-9.07143 -11.33929,-9.07143 -6.04762,0 -37.79762,1.51191 -37.79762,1.51191 0,0 -40.065471,2.26785 -44.601186,0 -4.535712,-2.26786 -5.291666,-3.77976 -5.291666,-11.33929 0,-7.55952 -3.023809,-46.869043 -3.023809,-54.428567 0,-7.559524 -8.315476,-11.339287 0,-18.898809 8.315475,-7.559524 10.583333,-11.339287 32.505951,-10.583333 21.92262,0.755952 18.89881,-0.755954 46.1131,-0.755954 27.21428,0 39.30952,4.535715 44.60119,0 5.29166,-4.535713 6.80357,-24.946428 1.5119,-24.946428 -5.29167,0 -27.97024,-1.511904 -31.75,-1.511904 -3.77976,0 -52.916666,0.755952 -52.916666,0.755952 l -51.40476,-0.755952 z"
       id="path1073"
       inkscape:connector-curvature="0" />
    <path
       style="fill:none;fill-opacity:1;stroke:none;stroke-width:0.26499999;stroke-miterlimit:4;stroke-dasharray:none;stroke-opacity:1"
       d="M 70.303574,63.410706 H 277.43452 V 139.00594 H 70.303574 Z"
       id="rect1075" />
    <path
       style="fill:none;fill-opacity:1;stroke:none;stroke-width:0.26499999;stroke-miterlimit:4;stroke-dasharray:none;stroke-opacity:1"
       d="M 71.059525,179.07141 H 258.53571 v 65.0119 H 71.059525 Z"
       id="rect1081" />
  </g>
</svg>
