<?xml version="1.0" encoding="UTF-8" standalone="no"?>
<!-- Created with Inkscape (http://www.inkscape.org/) -->

<svg
   xmlns:dc="http://purl.org/dc/elements/1.1/"
   xmlns:cc="http://creativecommons.org/ns#"
   xmlns:rdf="http://www.w3.org/1999/02/22-rdf-syntax-ns#"
   xmlns:svg="http://www.w3.org/2000/svg"
   xmlns="http://www.w3.org/2000/svg"
   xmlns:sodipodi="http://sodipodi.sourceforge.net/DTD/sodipodi-0.dtd"
   xmlns:inkscape="http://www.inkscape.org/namespaces/inkscape"
   width="210mm"
   height="297mm"
   viewBox="0 0 210 297"
   version="1.1"
   id="svg2110"
   inkscape:version="0.92.4 (unknown)"
   sodipodi:docname="elefante0h.svg">
  <defs
     id="defs2104" />
  <sodipodi:namedview
     id="base"
     pagecolor="#ffffff"
     bordercolor="#666666"
     borderopacity="1.0"
     inkscape:pageopacity="0.0"
     inkscape:pageshadow="2"
     inkscape:zoom="0.35"
     inkscape:cx="400"
     inkscape:cy="674.28571"
     inkscape:document-units="mm"
     inkscape:current-layer="layer1"
     showgrid="false"
     inkscape:window-width="1301"
     inkscape:window-height="744"
     inkscape:window-x="65"
     inkscape:window-y="24"
     inkscape:window-maximized="1" />
  <metadata
     id="metadata2107">
    <rdf:RDF>
      <cc:Work
         rdf:about="">
        <dc:format>image/svg+xml</dc:format>
        <dc:type
           rdf:resource="http://purl.org/dc/dcmitype/StillImage" />
        <dc:title></dc:title>
      </cc:Work>
    </rdf:RDF>
  </metadata>
  <g
     inkscape:label="Layer 1"
     inkscape:groupmode="layer"
     id="layer1">
    <path
       style="fill:none;stroke:#000000;stroke-width:0.26458332px;stroke-linecap:butt;stroke-linejoin:miter;stroke-opacity:1"
       d="m 33.261905,114.81547 15.875,-9.07143 21.922618,-0.75595 h 20.410715 l 10.583332,10.58333 4.53571,-0.75595 9.07143,-9.07143 17.38691,-10.583335 21.16666,11.339285 9.07143,12.09524 6.04762,15.875 0.75595,26.45833 4.53572,20.41072 2.26786,15.875 c 0,0 -3.77977,7.55952 1.5119,9.82737 5.29167,2.26786 6.04762,-3.77976 6.04762,-3.77976 l 6.80357,6.80357 -7.55952,12.09524 -14.3631,-4.53571 -6.04762,-3.77976 -2.26785,-10.58334 1.5119,-16.63095 -4.53571,-19.65476 -3.02381,-11.33929 -2.26786,4.53572 h -4.53572 c 0,0 -9.82738,-2.26786 -9.82738,0.75595 0,3.02381 7.55953,8.31548 7.55953,8.31548 l 8.31547,8.31547 -3.02381,3.02381 -12.09523,-4.53571 -9.82738,-10.58333 -5.29167,-12.85119 -2.26786,-5.29167 -3.02381,-1.51191 v 8.31548 l 6.04762,10.58333 6.80357,7.55953 -7.55952,2.26785 -8.31548,-7.55952 -6.04762,-1.5119 -0.75595,11.33928 3.02381,12.85119 3.02381,11.33929 0.75595,9.82738 -7.55952,8.31547 -9.07143,-3.02381 -3.02381,-13.60714 -5.291666,-15.875 -3.023809,-12.09524 -9.827382,1.51191 -12.095236,6.04762 H 52.916666 l -7.559524,-9.82738 -3.779761,12.85119 -1.511906,18.14285 -0.755951,12.85119 -9.07143,3.02381 -9.82738,-5.29166 -0.755952,-8.31548 v -29.48214 l 5.291666,-21.92262 v -19.65476 c 0,0 -5.291666,-75.59524 -5.291666,-45.357144 0,30.238094 5.291666,-7.559524 5.291666,-7.559524 l 1.511905,6.80357 V 99.69642 Z"
       id="path2112"
       inkscape:connector-curvature="0" />
    <path
       style="fill:none;stroke:#000000;stroke-width:0.26458332px;stroke-linecap:butt;stroke-linejoin:miter;stroke-opacity:1"
       d="m 137.58333,125.3988 -2.26786,10.58333 6.80358,1.51191 6.04761,-1.51191 2.26786,-6.04762 z"
       id="path2114"
       inkscape:connector-curvature="0" />
  </g>
</svg>
