<?xml version="1.0" encoding="UTF-8" standalone="no"?>
<!-- Created with Inkscape (http://www.inkscape.org/) -->

<svg
   xmlns:dc="http://purl.org/dc/elements/1.1/"
   xmlns:cc="http://creativecommons.org/ns#"
   xmlns:rdf="http://www.w3.org/1999/02/22-rdf-syntax-ns#"
   xmlns:svg="http://www.w3.org/2000/svg"
   xmlns="http://www.w3.org/2000/svg"
   xmlns:sodipodi="http://sodipodi.sourceforge.net/DTD/sodipodi-0.dtd"
   xmlns:inkscape="http://www.inkscape.org/namespaces/inkscape"
   width="210mm"
   height="297mm"
   viewBox="0 0 210 297"
   version="1.1"
   id="svg3271"
   inkscape:version="0.92.4 (unknown)"
   sodipodi:docname="florsinh.svg">
  <defs
     id="defs3265" />
  <sodipodi:namedview
     id="base"
     pagecolor="#ffffff"
     bordercolor="#666666"
     borderopacity="1.0"
     inkscape:pageopacity="0.0"
     inkscape:pageshadow="2"
     inkscape:zoom="0.35"
     inkscape:cx="628.57143"
     inkscape:cy="560"
     inkscape:document-units="mm"
     inkscape:current-layer="layer1"
     showgrid="false"
     inkscape:window-width="1301"
     inkscape:window-height="744"
     inkscape:window-x="65"
     inkscape:window-y="24"
     inkscape:window-maximized="1" />
  <metadata
     id="metadata3268">
    <rdf:RDF>
      <cc:Work
         rdf:about="">
        <dc:format>image/svg+xml</dc:format>
        <dc:type
           rdf:resource="http://purl.org/dc/dcmitype/StillImage" />
        <dc:title></dc:title>
      </cc:Work>
    </rdf:RDF>
  </metadata>
  <g
     inkscape:label="Layer 1"
     inkscape:groupmode="layer"
     id="layer1">
    <path
       style="fill:none;stroke:#000000;stroke-width:0.26458332px;stroke-linecap:butt;stroke-linejoin:miter;stroke-opacity:1"
       d="M 32.505951,73.994038 31.75,53.583323 l 8.315475,-6.803569 14.363097,-2.267858 9.827379,5.291667 v 13.607142 15.119048 l 3.779763,6.80357 h 2.267858 L 68.035714,77.017847 V 59.630944 l 4.535713,-18.142857 20.410714,-9.07143 14.363099,9.07143 3.02381,8.315476 v 18.898809 l -10.583336,1.511905 -8.315476,3.779761 -1.511906,18.898809 7.559524,1.511906 7.559524,-8.315476 -2.26786,-10.583333 15.11905,-4.535715 V 58.119038 l 21.92262,-9.827381 18.14286,8.315475 4.53571,20.410715 -6.04762,15.875 -13.60714,2.267858 -8.31548,-3.02381 -9.82738,-5.291666 -11.33928,11.339285 -3.02381,9.071426 6.80357,3.77976 6.04762,-9.07142 7.55952,-1.51191 9.07143,2.26786 20.41071,-3.779765 37.04167,-5.291666 -3.77976,27.970241 -14.3631,11.33928 -13.60714,-8.31547 -6.80357,-11.33929 h -18.89881 l -9.82738,8.31548 3.02381,12.09524 6.80357,-7.55953 5.29167,-6.80357 12.09523,2.26786 10.58334,12.09524 13.60714,10.58333 -21.92262,27.97024 -20.41071,2.26785 -7.55953,-16.63095 v -12.85119 l -5.29166,-0.75595 -7.55953,9.82738 0.75595,12.85119 19.65477,14.3631 8.31547,25.70237 -22.67857,11.33929 h -18.89881 l -9.071425,-18.14286 12.095235,-16.63095 3.02381,-7.55952 -3.02381,-15.11905 h -7.55952 v 16.63095 l -9.07143,12.09524 -3.023809,19.65476 4.535712,16.63095 -22.67857,9.82739 -17.386905,-13.60715 -1.511904,-21.92262 h 13.607143 l 17.386903,-20.41071 0.755954,-8.31548 -8.315476,-0.75595 c 0,0 -3.023811,9.07143 -6.047621,13.60715 -3.023809,4.53571 -23.434523,8.31547 -23.434523,8.31547 l -6.80357,27.21429 -18.142858,2.26785 -6.803571,-12.85119 -3.779762,-21.16666 v -15.875 l 9.071429,-3.02381 21.922619,-2.26786 6.047618,6.04762 13.607143,-3.77976 3.023809,-7.55953 -1.511903,-4.53571 -8.315476,4.53571 -9.07143,0.75595 L 21.922619,158.6607 7.5595238,145.80951 V 123.8869 l 17.3869042,-6.80358 c 0,0 6.803572,-3.77976 9.071429,0.75596 2.267858,4.53571 5.291667,23.43452 5.291667,23.43452 l 12.85119,5.29166 12.851191,-8.31547 5.291667,-9.82738 -7.559524,0.75595 -11.339288,6.80357 -8.315476,-9.07143 3.02381,-17.3869 -15.119046,-4.53571 -17.386905,-9.827385 3.023809,-7.559525 h 16.630953 l 15.875,1.511906 5.291667,25.702384 25.702379,-0.75596 -0.755952,-5.29166 -9.827382,-3.77976 h -7.559524 l -0.755951,-11.339291 -5.291667,-7.559522 -6.80357,-8.315478 z"
       id="path3273"
       inkscape:connector-curvature="0" />
    <path
       style="fill:none;stroke:#000000;stroke-width:0.26458332px;stroke-linecap:butt;stroke-linejoin:miter;stroke-opacity:1"
       d="m 89.958332,127.66666 0.755952,12.85119 11.339286,1.5119 9.07143,-10.58333 -7.55953,-9.82738 z"
       id="path3277"
       inkscape:connector-curvature="0" />
    <path
       style="fill:none;stroke:#000000;stroke-width:0.26458332px;stroke-linecap:butt;stroke-linejoin:miter;stroke-opacity:1"
       d="m 105.83333,238.79165 28.72619,52.16072 h 9.82738 L 127.75595,265.25 l 6.80357,-5.29168 22.67857,4.53572 22.67857,-0.75596 24.94643,-30.99404 -30.23809,-5.29167 -21.92262,2.26786 -13.60714,19.65476 -15.11905,6.04762 -12.85119,-21.16667 2.26786,-2.26786 z"
       id="path3298"
       inkscape:connector-curvature="0" />
  </g>
</svg>
