<?xml version="1.0" encoding="UTF-8" standalone="no"?>
<!-- Created with Inkscape (http://www.inkscape.org/) -->

<svg
   xmlns:dc="http://purl.org/dc/elements/1.1/"
   xmlns:cc="http://creativecommons.org/ns#"
   xmlns:rdf="http://www.w3.org/1999/02/22-rdf-syntax-ns#"
   xmlns:svg="http://www.w3.org/2000/svg"
   xmlns="http://www.w3.org/2000/svg"
   xmlns:sodipodi="http://sodipodi.sourceforge.net/DTD/sodipodi-0.dtd"
   xmlns:inkscape="http://www.inkscape.org/namespaces/inkscape"
   width="210mm"
   height="297mm"
   viewBox="0 0 210 297"
   version="1.1"
   id="svg3325"
   inkscape:version="0.92.4 (unknown)"
   sodipodi:docname="gatosinh.svg">
  <defs
     id="defs3319" />
  <sodipodi:namedview
     id="base"
     pagecolor="#ffffff"
     bordercolor="#666666"
     borderopacity="1.0"
     inkscape:pageopacity="0.0"
     inkscape:pageshadow="2"
     inkscape:zoom="0.35"
     inkscape:cx="400"
     inkscape:cy="560"
     inkscape:document-units="mm"
     inkscape:current-layer="layer1"
     showgrid="false"
     inkscape:window-width="1301"
     inkscape:window-height="744"
     inkscape:window-x="65"
     inkscape:window-y="24"
     inkscape:window-maximized="1" />
  <metadata
     id="metadata3322">
    <rdf:RDF>
      <cc:Work
         rdf:about="">
        <dc:format>image/svg+xml</dc:format>
        <dc:type
           rdf:resource="http://purl.org/dc/dcmitype/StillImage" />
        <dc:title></dc:title>
      </cc:Work>
    </rdf:RDF>
  </metadata>
  <g
     inkscape:label="Layer 1"
     inkscape:groupmode="layer"
     id="layer1">
    <path
       style="fill:none;stroke:#000000;stroke-width:0.26458332px;stroke-linecap:butt;stroke-linejoin:miter;stroke-opacity:1"
       d="m 27.970239,138.24999 -0.755954,-19.65476 12.095239,12.85119 0.755951,-16.63095 11.339285,15.11904 h 11.339288 l 10.583333,9.82738 3.779761,0.75596 3.779763,-11.33929 c 0,0 13.607142,-17.3869 16.630951,-17.3869 3.023814,0 23.434524,-2.26786 23.434524,-2.26786 l 21.92262,7.55952 12.09524,23.43453 -6.04762,24.94643 -0.75596,15.11904 3.02381,-3.77976 2.26786,-14.3631 4.53572,-17.3869 8.31547,-38.55357 17.38691,-23.434525 18.14285,1.511906 v 11.339285 l -8.31547,0.755954 -8.31548,-3.779763 -14.36309,22.678573 -1.51191,25.70238 -5.29167,21.92262 -3.0238,22.67857 -9.82739,9.82738 -8.31547,-0.75595 -2.26786,-6.04762 -0.75595,-10.58334 v 15.875 l -23.43452,7.55953 H 95.249999 l -3.023809,-8.31548 9.82738,-5.29166 6.04762,1.5119 15.875,1.5119 1.5119,-6.04761 -6.04762,-6.04762 -8.31547,-1.51191 -2.26786,-18.89881 8.31548,-5.29166 v -5.29167 l -12.85119,10.58333 3.02381,18.89881 -19.654765,12.85119 -20.410715,15.11905 -37.041666,6.80357 4.535715,-18.14286 8.315475,1.51191 7.559525,0.75595 20.410714,-7.55952 8.315476,-12.85119 v -6.80357 l -8.315476,9.07142 -16.630951,-3.77976 c 0,0 4.535712,-9.07142 -1.511906,-2.26785 -6.047618,6.80357 -23.434524,13.60714 -23.434524,13.60714 l -11.339285,-3.02381 -5.291667,-10.58333 1.511905,-9.07143 8.315476,-3.77976 v -12.09524 z"
       id="path3327"
       inkscape:connector-curvature="0" />
    <path
       style="fill:none;stroke:#000000;stroke-width:0.26458332px;stroke-linecap:butt;stroke-linejoin:miter;stroke-opacity:1"
       d="m 40.821427,148.07737 8.315478,-1.51191 0.755952,7.55953 -5.291667,3.02381 z"
       id="path3329"
       inkscape:connector-curvature="0" />
  </g>
</svg>
