<?xml version="1.0" encoding="UTF-8" standalone="no"?>
<!-- Created with Inkscape (http://www.inkscape.org/) -->

<svg
   xmlns:dc="http://purl.org/dc/elements/1.1/"
   xmlns:cc="http://creativecommons.org/ns#"
   xmlns:rdf="http://www.w3.org/1999/02/22-rdf-syntax-ns#"
   xmlns:svg="http://www.w3.org/2000/svg"
   xmlns="http://www.w3.org/2000/svg"
   xmlns:sodipodi="http://sodipodi.sourceforge.net/DTD/sodipodi-0.dtd"
   xmlns:inkscape="http://www.inkscape.org/namespaces/inkscape"
   width="210mm"
   height="297mm"
   viewBox="0 0 210 297"
   version="1.1"
   id="svg3453"
   inkscape:version="0.92.4 (unknown)"
   sodipodi:docname="manoFlorsinh.svg">
  <defs
     id="defs3447" />
  <sodipodi:namedview
     id="base"
     pagecolor="#ffffff"
     bordercolor="#666666"
     borderopacity="1.0"
     inkscape:pageopacity="0.0"
     inkscape:pageshadow="2"
     inkscape:zoom="0.35"
     inkscape:cx="400"
     inkscape:cy="560"
     inkscape:document-units="mm"
     inkscape:current-layer="layer1"
     showgrid="false"
     inkscape:window-width="1301"
     inkscape:window-height="744"
     inkscape:window-x="65"
     inkscape:window-y="24"
     inkscape:window-maximized="1" />
  <metadata
     id="metadata3450">
    <rdf:RDF>
      <cc:Work
         rdf:about="">
        <dc:format>image/svg+xml</dc:format>
        <dc:type
           rdf:resource="http://purl.org/dc/dcmitype/StillImage" />
        <dc:title></dc:title>
      </cc:Work>
    </rdf:RDF>
  </metadata>
  <g
     inkscape:label="Layer 1"
     inkscape:groupmode="layer"
     id="layer1">
    <path
       style="fill:none;stroke:#000000;stroke-width:0.26458332px;stroke-linecap:butt;stroke-linejoin:miter;stroke-opacity:1"
       d="m 67.27976,55.851181 -3.023809,24.190475 -5.291667,17.386906 10.583333,34.773808 14.363097,-7.55952 38.553566,-10.58334 37.04167,15.11905 18.89881,-5.29166 13.60714,47.62499 -37.79762,13.60715 -16.63095,6.04761 -49.136904,28.7262 -49.892854,-9.82739 v -17.3869 l 21.166666,2.26786 -0.755954,-3.77977 -24.190475,-7.55952 v -15.875 l 27.970239,6.80357 -1.511906,-6.04761 -29.482142,-7.55953 6.047618,-18.14286 28.72619,9.82739 v -6.04763 L 33.261905,133.71428 34.773809,118.59523 58.208333,120.86309 51.40476,98.184514 53.672618,83.82142 55.940475,61.898799 V 53.583323 H 37.041666 L 31.75,39.220229 34.017857,16.541658 c 0,0 8.315476,-7.5595236 12.851191,-7.5595236 4.535712,0 5.291666,0 14.363094,0 9.07143,0 29.482142,14.3630946 29.482142,14.3630946 l 2.267857,20.410715 -4.535715,9.827379 z"
       id="path3455"
       inkscape:connector-curvature="0" />
    <path
       style="fill:none;stroke:#000000;stroke-width:0.26458332px;stroke-linecap:butt;stroke-linejoin:miter;stroke-opacity:1"
       d="m 83.910714,72.482132 -9.827382,26.458333 12.851191,9.071435 15.874997,3.0238 8.31548,-9.07142 6.04762,-6.803575 25.70238,21.166665 10.58333,-6.80357 -36.28571,-21.166668 h -15.11905 l 0.75595,-14.363094 z"
       id="path3457"
       inkscape:connector-curvature="0" />
    <path
       style="fill:none;stroke:#000000;stroke-width:0.26458332px;stroke-linecap:butt;stroke-linejoin:miter;stroke-opacity:1"
       d="m 94.494047,235.76785 22.678573,47.625 h 11.33928 l -25.70238,-56.69643 z"
       id="path3459"
       inkscape:connector-curvature="0" />
    <path
       style="fill:none;stroke:#000000;stroke-width:0.26458332px;stroke-linecap:butt;stroke-linejoin:miter;stroke-opacity:1"
       d="M 86.178571,89.113086 Z"
       id="path3461"
       inkscape:connector-curvature="0" />
    <path
       style="fill:none;stroke:#000000;stroke-width:0.26458332px;stroke-linecap:butt;stroke-linejoin:miter;stroke-opacity:1"
       d="m 111.88095,30.904754 v 27.214284 l 22.67857,12.095239 15.11905,-9.827381 6.80357,-18.142857 -9.07143,-14.363094 -9.07143,-6.04762 z"
       id="path3465"
       inkscape:connector-curvature="0" />
    <path
       style="fill:none;stroke:#000000;stroke-width:0.26458332px;stroke-linecap:butt;stroke-linejoin:miter;stroke-opacity:1"
       d="m 10.583333,61.898799 15.119048,11.339288 15.875,-3.779764 L 37.797618,87.60118 18.898809,98.940465 6.8035714,97.428562 Z"
       id="path3467"
       inkscape:connector-curvature="0" />
  </g>
</svg>
