<?xml version="1.0" encoding="UTF-8" standalone="no"?>
<!-- Created with Inkscape (http://www.inkscape.org/) -->

<svg
   xmlns:dc="http://purl.org/dc/elements/1.1/"
   xmlns:cc="http://creativecommons.org/ns#"
   xmlns:rdf="http://www.w3.org/1999/02/22-rdf-syntax-ns#"
   xmlns:svg="http://www.w3.org/2000/svg"
   xmlns="http://www.w3.org/2000/svg"
   xmlns:sodipodi="http://sodipodi.sourceforge.net/DTD/sodipodi-0.dtd"
   xmlns:inkscape="http://www.inkscape.org/namespaces/inkscape"
   width="210mm"
   height="297mm"
   viewBox="0 0 210 297"
   version="1.1"
   id="svg3242"
   inkscape:version="0.92.4 (unknown)"
   sodipodi:docname="manosinh.svg">
  <defs
     id="defs3236" />
  <sodipodi:namedview
     id="base"
     pagecolor="#ffffff"
     bordercolor="#666666"
     borderopacity="1.0"
     inkscape:pageopacity="0.0"
     inkscape:pageshadow="2"
     inkscape:zoom="0.35"
     inkscape:cx="514.28571"
     inkscape:cy="445.71429"
     inkscape:document-units="mm"
     inkscape:current-layer="layer1"
     showgrid="false"
     inkscape:window-width="1301"
     inkscape:window-height="744"
     inkscape:window-x="65"
     inkscape:window-y="24"
     inkscape:window-maximized="1" />
  <metadata
     id="metadata3239">
    <rdf:RDF>
      <cc:Work
         rdf:about="">
        <dc:format>image/svg+xml</dc:format>
        <dc:type
           rdf:resource="http://purl.org/dc/dcmitype/StillImage" />
        <dc:title></dc:title>
      </cc:Work>
    </rdf:RDF>
  </metadata>
  <g
     inkscape:label="Layer 1"
     inkscape:groupmode="layer"
     id="layer1">
    <path
       style="fill:none;stroke:#000000;stroke-width:0.26458332px;stroke-linecap:butt;stroke-linejoin:miter;stroke-opacity:1"
       d="M 57.452381,48.291657 44.60119,60.386896 41.577381,79.285705 v 22.678575 l -10.583333,18.14285 c 0,0 -16.630953,19.65476 -16.630953,23.43453 0,3.77976 -0.755952,49.1369 -0.755952,49.1369 l -6.8035716,17.3869 1.5119046,34.01786 49.136905,10.58333 19.654761,-15.875 -5.291667,-28.72619 c 0,0 -18.142857,-22.67857 -3.023809,-25.70237 15.119048,-3.02381 29.482142,-18.14286 29.482142,-18.14286 l 5.291662,-15.11905 16.63096,-15.11905 15.875,-6.80357 12.85119,3.02381 4.53571,30.23809 12.85119,10.58334 6.80357,-10.58334 -6.04762,-13.60714 -0.75595,-19.65476 -10.58333,-18.14286 -27.21429,-3.0238 -19.65476,12.09523 -1.5119,-0.75595 30.23809,-20.410715 30.2381,-1.511903 24.94643,-8.315476 L 190.5,77.017847 163.28571,81.553562 133.80357,84.577371 99.02976,108.76785 v -1.51191 l 34.01786,-26.458329 49.89285,-18.898812 3.77977,-13.607142 -11.33929,-1.511903 -18.89881,6.803569 -31.75,9.827382 -18.14286,15.875 L 91.470238,99.69642 H 87.690475 L 118.68452,56.607132 148.16666,28.636896 138.33928,24.101182 111.125,39.976181 86.934523,64.922611 65.767857,107.25594 70.303572,126.15475 V 158.6607 H 65.767857 V 126.15475 L 61.988093,111.0357 60.47619,98.940465 61.988093,73.238087 86.178571,50.559514 77.107142,38.464278 68.035714,29.392848 Z"
       id="path3244"
       inkscape:connector-curvature="0" />
  </g>
</svg>
