<?xml version="1.0" encoding="UTF-8" standalone="no"?>
<!-- Created with Inkscape (http://www.inkscape.org/) -->

<svg
   xmlns:dc="http://purl.org/dc/elements/1.1/"
   xmlns:cc="http://creativecommons.org/ns#"
   xmlns:rdf="http://www.w3.org/1999/02/22-rdf-syntax-ns#"
   xmlns:svg="http://www.w3.org/2000/svg"
   xmlns="http://www.w3.org/2000/svg"
   xmlns:sodipodi="http://sodipodi.sourceforge.net/DTD/sodipodi-0.dtd"
   xmlns:inkscape="http://www.inkscape.org/namespaces/inkscape"
   width="210mm"
   height="297mm"
   viewBox="0 0 210 297"
   version="1.1"
   id="svg2176"
   inkscape:version="0.92.4 (unknown)"
   sodipodi:docname="ojo0h.svg">
  <defs
     id="defs2170" />
  <sodipodi:namedview
     id="base"
     pagecolor="#ffffff"
     bordercolor="#666666"
     borderopacity="1.0"
     inkscape:pageopacity="0.0"
     inkscape:pageshadow="2"
     inkscape:zoom="0.35"
     inkscape:cx="514.28571"
     inkscape:cy="674.28571"
     inkscape:document-units="mm"
     inkscape:current-layer="layer1"
     showgrid="false"
     inkscape:window-width="1301"
     inkscape:window-height="744"
     inkscape:window-x="65"
     inkscape:window-y="24"
     inkscape:window-maximized="1" />
  <metadata
     id="metadata2173">
    <rdf:RDF>
      <cc:Work
         rdf:about="">
        <dc:format>image/svg+xml</dc:format>
        <dc:type
           rdf:resource="http://purl.org/dc/dcmitype/StillImage" />
        <dc:title></dc:title>
      </cc:Work>
    </rdf:RDF>
  </metadata>
  <g
     inkscape:label="Layer 1"
     inkscape:groupmode="layer"
     id="layer1">
    <path
       style="fill:none;stroke:#000000;stroke-width:0.26458332px;stroke-linecap:butt;stroke-linejoin:miter;stroke-opacity:1"
       d="M 25.702381,132.20237 46.113094,113.30356 65.767857,98.940465 92.22619,92.892847 h 22.67857 l 15.11905,6.803573 30.99405,16.63095 18.8988,15.875 7.55953,6.80357 -9.82738,10.58334 -37.04167,15.11904 c 0,0 -24.19047,11.33929 -32.50595,11.33929 -8.315476,0 -30.994048,0 -30.994048,0 L 51.40476,165.46428 27.214285,147.32142 Z"
       id="path2178"
       inkscape:connector-curvature="0" />
    <path
       style="fill:none;stroke:#000000;stroke-width:0.26458332px;stroke-linecap:butt;stroke-linejoin:miter;stroke-opacity:1"
       d="m 107.34524,108.76785 -24.19048,2.26785 -17.386903,11.33929 -5.291667,12.09524 -0.755952,11.33928 7.559522,11.33929 27.970239,11.33929 22.678571,-7.55953 17.3869,-11.33928 2.26786,-15.875 -3.77976,-12.09524 z"
       id="path2180"
       inkscape:connector-curvature="0" />
    <path
       style="fill:none;stroke:#000000;stroke-width:0.26458332px;stroke-linecap:butt;stroke-linejoin:miter;stroke-opacity:1"
       d="m 8.315476,132.95832 14.363095,-18.89881 30.994047,-25.702378 27.970238,-9.071427 24.190474,-3.779761 27.97024,7.559521 19.65476,11.339288 27.97024,15.119047 14.36309,15.11905"
       id="path2182"
       inkscape:connector-curvature="0" />
    <path
       style="fill:none;stroke:#000000;stroke-width:0.26458332px;stroke-linecap:butt;stroke-linejoin:miter;stroke-opacity:1"
       d="m 88.446426,126.9107 9.07143,-5.29166 12.095234,6.04762 7.55953,12.85119 -11.33929,9.07143 -14.363092,1.5119 -9.07143,-6.04762 -4.535715,-9.82738 z"
       id="path2184"
       inkscape:connector-curvature="0" />
  </g>
</svg>
