<?xml version="1.0" encoding="UTF-8" standalone="no"?>
<!-- Created with Inkscape (http://www.inkscape.org/) -->

<svg
   xmlns:dc="http://purl.org/dc/elements/1.1/"
   xmlns:cc="http://creativecommons.org/ns#"
   xmlns:rdf="http://www.w3.org/1999/02/22-rdf-syntax-ns#"
   xmlns:svg="http://www.w3.org/2000/svg"
   xmlns="http://www.w3.org/2000/svg"
   xmlns:sodipodi="http://sodipodi.sourceforge.net/DTD/sodipodi-0.dtd"
   xmlns:inkscape="http://www.inkscape.org/namespaces/inkscape"
   width="210mm"
   height="297mm"
   viewBox="0 0 210 297"
   version="1.1"
   id="svg2813"
   inkscape:version="0.92.4 (unknown)"
   sodipodi:docname="perasinh.svg">
  <defs
     id="defs2807" />
  <sodipodi:namedview
     id="base"
     pagecolor="#ffffff"
     bordercolor="#666666"
     borderopacity="1.0"
     inkscape:pageopacity="0.0"
     inkscape:pageshadow="2"
     inkscape:zoom="0.35"
     inkscape:cx="514.28571"
     inkscape:cy="674.28571"
     inkscape:document-units="mm"
     inkscape:current-layer="layer1"
     showgrid="false"
     inkscape:window-width="1301"
     inkscape:window-height="744"
     inkscape:window-x="65"
     inkscape:window-y="24"
     inkscape:window-maximized="1" />
  <metadata
     id="metadata2810">
    <rdf:RDF>
      <cc:Work
         rdf:about="">
        <dc:format>image/svg+xml</dc:format>
        <dc:type
           rdf:resource="http://purl.org/dc/dcmitype/StillImage" />
        <dc:title></dc:title>
      </cc:Work>
    </rdf:RDF>
  </metadata>
  <g
     inkscape:label="Layer 1"
     inkscape:groupmode="layer"
     id="layer1">
    <path
       style="fill:none;stroke:#000000;stroke-width:0.26458332px;stroke-linecap:butt;stroke-linejoin:miter;stroke-opacity:1"
       d="m 70.303572,73.994038 -6.803573,19.654761 0.755952,26.458331 v 18.89881 l -16.630952,25.70238 -19.65476,30.99405 6.047618,34.01786 21.922618,20.41071 34.773809,6.04762 50.648806,-4.53571 22.67857,-27.21429 5.29167,-27.97024 -3.77976,-18.89881 -11.33929,-16.63095 -15.11904,-6.80357 -15.11905,-16.63095 -10.58333,-9.07143 V 86.089277 l -9.82739,-16.630954 -9.071423,-2.267857 7.559523,-6.80357 33.2619,-5.291667 27.21429,-12.85119 3.77976,-23.434524 V 5.2023724 l -18.89881,6.8035716 -24.94643,23.434522 -3.02381,11.339288 -6.04761,3.023809 -24.190479,9.071427 -5.291667,11.339287 -2.267858,8.315476 3.779761,3.023809 13.607143,-5.291666"
       id="path2815"
       inkscape:connector-curvature="0" />
  </g>
</svg>
