<?xml version="1.0" encoding="UTF-8" standalone="no"?>
<!-- Created with Inkscape (http://www.inkscape.org/) -->

<svg
   xmlns:dc="http://purl.org/dc/elements/1.1/"
   xmlns:cc="http://creativecommons.org/ns#"
   xmlns:rdf="http://www.w3.org/1999/02/22-rdf-syntax-ns#"
   xmlns:svg="http://www.w3.org/2000/svg"
   xmlns="http://www.w3.org/2000/svg"
   xmlns:sodipodi="http://sodipodi.sourceforge.net/DTD/sodipodi-0.dtd"
   xmlns:inkscape="http://www.inkscape.org/namespaces/inkscape"
   width="210mm"
   height="297mm"
   viewBox="0 0 210 297"
   version="1.1"
   id="svg3387"
   inkscape:version="0.92.4 (unknown)"
   sodipodi:docname="pescadosinh.svg">
  <defs
     id="defs3381" />
  <sodipodi:namedview
     id="base"
     pagecolor="#ffffff"
     bordercolor="#666666"
     borderopacity="1.0"
     inkscape:pageopacity="0.0"
     inkscape:pageshadow="2"
     inkscape:zoom="0.35"
     inkscape:cx="400"
     inkscape:cy="560"
     inkscape:document-units="mm"
     inkscape:current-layer="layer1"
     showgrid="false"
     inkscape:window-width="1301"
     inkscape:window-height="744"
     inkscape:window-x="65"
     inkscape:window-y="24"
     inkscape:window-maximized="1" />
  <metadata
     id="metadata3384">
    <rdf:RDF>
      <cc:Work
         rdf:about="">
        <dc:format>image/svg+xml</dc:format>
        <dc:type
           rdf:resource="http://purl.org/dc/dcmitype/StillImage" />
        <dc:title></dc:title>
      </cc:Work>
    </rdf:RDF>
  </metadata>
  <g
     inkscape:label="Layer 1"
     inkscape:groupmode="layer"
     id="layer1">
    <path
       style="fill:none;stroke:#000000;stroke-width:0.26458332px;stroke-linecap:butt;stroke-linejoin:miter;stroke-opacity:1"
       d="m 61.988093,31.660705 15.119049,-7.559523 24.190478,-0.755953 20.41071,3.02381 21.16667,8.315475 v 9.07143 l -22.67857,10.583334 -9.82738,30.994045 -0.75596,18.898807 2.26786,9.07143 22.67857,19.65476 6.80357,13.60714 3.77977,24.19048 5.29166,-30.23809 15.875,35.52976 -3.77976,29.48214 -24.94643,12.09524 -18.14286,39.30952 -12.85119,22.67858 -32.505948,-58.20834 v -8.31547 L 51.40476,189.65475 45.357142,142.7857 l 18.142857,18.14286 0.755952,19.65476 9.827381,13.60714 -0.755951,-10.58333 -4.535715,-6.80357 L 68.035714,150.34523 86.178571,108.0119 92.22619,71.726181 80.886905,55.095229 Z"
       id="path3391"
       inkscape:connector-curvature="0" />
    <path
       style="fill:none;stroke:#000000;stroke-width:0.26458332px;stroke-linecap:butt;stroke-linejoin:miter;stroke-opacity:1"
       d="m 97.517856,221.40475 -2.267857,11.33929 6.047621,6.80357 2.26785,-9.07143 z"
       id="path3393"
       inkscape:connector-curvature="0" />
    <path
       style="fill:none;stroke:#000000;stroke-width:0.26458332px;stroke-linecap:butt;stroke-linejoin:miter;stroke-opacity:1"
       d="m 111.125,197.97023 h 10.58333 l 4.53572,5.29166 -5.29167,9.82739 -0.75595,8.31547 -2.26786,-12.85119 z"
       id="path3395"
       inkscape:connector-curvature="0" />
  </g>
</svg>
