<?xml version="1.0" encoding="UTF-8" standalone="no"?>
<!-- Created with Inkscape (http://www.inkscape.org/) -->

<svg
   xmlns:dc="http://purl.org/dc/elements/1.1/"
   xmlns:cc="http://creativecommons.org/ns#"
   xmlns:rdf="http://www.w3.org/1999/02/22-rdf-syntax-ns#"
   xmlns:svg="http://www.w3.org/2000/svg"
   xmlns="http://www.w3.org/2000/svg"
   xmlns:sodipodi="http://sodipodi.sourceforge.net/DTD/sodipodi-0.dtd"
   xmlns:inkscape="http://www.inkscape.org/namespaces/inkscape"
   width="210mm"
   height="297mm"
   viewBox="0 0 210 297"
   version="1.1"
   id="svg8"
   inkscape:version="0.92.4 (unknown)"
   sodipodi:docname="pipaSh.svg">
  <defs
     id="defs2" />
  <sodipodi:namedview
     id="base"
     pagecolor="#ffffff"
     bordercolor="#666666"
     borderopacity="1.0"
     inkscape:pageopacity="0.0"
     inkscape:pageshadow="2"
     inkscape:zoom="0.35"
     inkscape:cx="-30"
     inkscape:cy="560"
     inkscape:document-units="mm"
     inkscape:current-layer="layer1"
     showgrid="false"
     inkscape:window-width="1301"
     inkscape:window-height="744"
     inkscape:window-x="65"
     inkscape:window-y="24"
     inkscape:window-maximized="1" />
  <metadata
     id="metadata5">
    <rdf:RDF>
      <cc:Work
         rdf:about="">
        <dc:format>image/svg+xml</dc:format>
        <dc:type
           rdf:resource="http://purl.org/dc/dcmitype/StillImage" />
        <dc:title></dc:title>
      </cc:Work>
    </rdf:RDF>
  </metadata>
  <g
     inkscape:label="Layer 1"
     inkscape:groupmode="layer"
     id="layer1">
    <path
       style="fill:none;stroke:#000000;stroke-width:0.26458332px;stroke-linecap:butt;stroke-linejoin:miter;stroke-opacity:1"
       d="m 38.553572,137.49405 34.017855,1.5119 c 0,0 -2.267855,-8.31547 0,0 2.267857,8.31548 2.267857,-3.02381 2.267857,16.63095 0,19.65477 0,20.41072 0,20.41072 0,0 11.339287,-17.38691 -0.755952,0 -12.095239,17.3869 -19.65476,21.92262 -10.583333,24.94642 9.071428,3.02381 6.803573,10.58334 16.630952,5.29167 9.827381,-5.29167 15.119048,1.51191 19.654763,-18.14286 4.535716,-19.65476 9.071426,-5.29166 6.803566,-25.70237 -2.26785,-20.41072 -13.607139,-45.35715 -18.142854,-48.38096 -4.535712,-3.02381 -8.315475,-49.892853 -8.315475,-54.428568 0,-4.535715 18.142857,-16.630951 21.922619,-18.142857 3.77976,-1.511906 24.19048,-6.803573 24.19048,-6.803573 l 34.77381,-0.755951 -1.51191,10.583333 -39.30952,11.339285 c 0,0 -15.11905,-0.755952 -15.875,12.851191 -0.75596,13.607142 -0.75596,24.946429 9.82738,44.60119 10.58333,19.65476 16.63095,17.38691 22.67857,42.33333 6.04762,24.94643 17.3869,15.875 15.11905,48.38095 -2.26786,32.50596 -42.33334,70.30358 -51.40476,67.27976 -9.071432,-3.02379 -27.970243,6.80357 -41.577386,-8.31547 C 45.357142,247.86309 23.434524,216.11309 19.654762,203.2619 15.875,190.41071 15.875,179.82738 15.875,168.48809 c 0,-11.33928 0,-22.67857 0,-26.45833 0,-3.77976 22.678572,-4.53571 22.678572,-4.53571 z"
       id="path815"
       inkscape:connector-curvature="0" />
    <path
       style="fill:none;stroke:#000000;stroke-width:0.26458332px;stroke-linecap:butt;stroke-linejoin:miter;stroke-opacity:1"
       d="m 37.041666,104.98809 c -1.511906,14.3631 1.511906,19.65476 8.315476,16.63096 6.803572,-3.02381 15.119048,0 9.827381,-12.09524 C 49.892857,97.42857 37.797618,98.184522 37.797618,98.184522 Z"
       id="path817"
       inkscape:connector-curvature="0" />
    <path
       style="fill:none;stroke:#000000;stroke-width:0.26458332px;stroke-linecap:butt;stroke-linejoin:miter;stroke-opacity:1"
       d="M 37.797618,58.875001 C 50.648809,68.70238 58.208333,74.75 53.672618,80.041667 49.136905,85.333334 35.52976,75.505952 35.52976,75.505952 Z"
       id="path819"
       inkscape:connector-curvature="0" />
    <path
       style="fill:none;stroke:#000000;stroke-width:0.26458332px;stroke-linecap:butt;stroke-linejoin:miter;stroke-opacity:1"
       d="m 46.113094,19.565476 c 5.291666,13.607143 24.946429,24.190474 8.315478,31.75 -16.630954,7.559525 -12.851191,-1.511905 -12.851191,-8.315475 0,-6.803573 4.535713,-23.434525 4.535713,-23.434525 z"
       id="path821"
       inkscape:connector-curvature="0" />
  </g>
</svg>
