<?xml version="1.0" encoding="UTF-8" standalone="no"?>
<!-- Created with Inkscape (http://www.inkscape.org/) -->

<svg
   xmlns:dc="http://purl.org/dc/elements/1.1/"
   xmlns:cc="http://creativecommons.org/ns#"
   xmlns:rdf="http://www.w3.org/1999/02/22-rdf-syntax-ns#"
   xmlns:svg="http://www.w3.org/2000/svg"
   xmlns="http://www.w3.org/2000/svg"
   xmlns:sodipodi="http://sodipodi.sourceforge.net/DTD/sodipodi-0.dtd"
   xmlns:inkscape="http://www.inkscape.org/namespaces/inkscape"
   width="210mm"
   height="297mm"
   viewBox="0 0 210 297"
   version="1.1"
   id="svg2079"
   inkscape:version="0.92.4 (unknown)"
   sodipodi:docname="pistola.svg">
  <defs
     id="defs2073" />
  <sodipodi:namedview
     id="base"
     pagecolor="#ffffff"
     bordercolor="#666666"
     borderopacity="1.0"
     inkscape:pageopacity="0.0"
     inkscape:pageshadow="2"
     inkscape:zoom="0.35"
     inkscape:cx="400"
     inkscape:cy="560"
     inkscape:document-units="mm"
     inkscape:current-layer="layer1"
     showgrid="false"
     inkscape:window-width="1301"
     inkscape:window-height="744"
     inkscape:window-x="65"
     inkscape:window-y="24"
     inkscape:window-maximized="1" />
  <metadata
     id="metadata2076">
    <rdf:RDF>
      <cc:Work
         rdf:about="">
        <dc:format>image/svg+xml</dc:format>
        <dc:type
           rdf:resource="http://purl.org/dc/dcmitype/StillImage" />
        <dc:title></dc:title>
      </cc:Work>
    </rdf:RDF>
  </metadata>
  <g
     inkscape:label="Layer 1"
     inkscape:groupmode="layer"
     id="layer1">
    <path
       style="fill:none;stroke:#000000;stroke-width:0.26458332px;stroke-linecap:butt;stroke-linejoin:miter;stroke-opacity:1"
       d="m 48.380951,96.67261 h 42.333333 l 39.309526,-0.755954 42.33333,-0.755951 0.75595,-9.071428 c 0,0 6.04762,1.511903 10.58334,1.511903 4.53571,0 4.53571,13.60714 4.53571,13.60714 v 14.3631 l -7.55952,1.5119 -48.38096,-0.75595 -3.0238,12.85119 -1.51191,15.875 -26.45833,9.07143 -18.14286,-4.53571 -3.779761,-6.04762 -3.779761,7.55952 c 0,0 -1.511906,58.20833 -15.875,68.03571 -14.363096,9.82739 -26.458333,3.02381 -26.458333,3.02381 l -7.559524,-9.82738 c 0,0 -3.779762,-9.07143 0,-12.85119 3.779761,-3.77976 -2.267857,28.72619 9.071428,-8.31548 11.339285,-37.04166 12.85119,-47.62499 12.85119,-55.94047 0,-8.31548 -11.339284,-3.02381 -11.339284,-14.36309 0,-11.33929 -1.511906,-18.14286 -1.511906,-24.946434 0,-6.80357 0.755951,-11.339285 5.291666,-11.339285 4.535715,0 8.315476,12.095239 8.315476,12.095239 z"
       id="path2081"
       inkscape:connector-curvature="0" />
    <path
       style="fill:none;stroke:#000000;stroke-width:0.26458332px;stroke-linecap:butt;stroke-linejoin:miter;stroke-opacity:1"
       d="m 111.125,113.30356 c 0,0 3.02381,11.33929 0,14.3631 -3.02381,3.0238 -12.851192,9.82738 -17.386907,6.80357 -4.535712,-3.02381 -15.119046,-12.09524 -15.119046,-12.09524 v -10.58333 z"
       id="path2083"
       inkscape:connector-curvature="0" />
  </g>
</svg>
