<?xml version="1.0" encoding="UTF-8" standalone="no"?>
<!-- Created with Inkscape (http://www.inkscape.org/) -->

<svg
   xmlns:dc="http://purl.org/dc/elements/1.1/"
   xmlns:cc="http://creativecommons.org/ns#"
   xmlns:rdf="http://www.w3.org/1999/02/22-rdf-syntax-ns#"
   xmlns:svg="http://www.w3.org/2000/svg"
   xmlns="http://www.w3.org/2000/svg"
   xmlns:sodipodi="http://sodipodi.sourceforge.net/DTD/sodipodi-0.dtd"
   xmlns:inkscape="http://www.inkscape.org/namespaces/inkscape"
   width="210mm"
   height="297mm"
   viewBox="0 0 210 297"
   version="1.1"
   id="svg1835"
   inkscape:version="0.92.4 (unknown)"
   sodipodi:docname="Rcon1h.svg">
  <defs
     id="defs1829" />
  <sodipodi:namedview
     id="base"
     pagecolor="#ffffff"
     bordercolor="#666666"
     borderopacity="1.0"
     inkscape:pageopacity="0.0"
     inkscape:pageshadow="2"
     inkscape:zoom="0.35"
     inkscape:cx="400"
     inkscape:cy="674.28571"
     inkscape:document-units="mm"
     inkscape:current-layer="layer1"
     showgrid="false"
     inkscape:window-width="1301"
     inkscape:window-height="744"
     inkscape:window-x="65"
     inkscape:window-y="24"
     inkscape:window-maximized="1" />
  <metadata
     id="metadata1832">
    <rdf:RDF>
      <cc:Work
         rdf:about="">
        <dc:format>image/svg+xml</dc:format>
        <dc:type
           rdf:resource="http://purl.org/dc/dcmitype/StillImage" />
        <dc:title></dc:title>
      </cc:Work>
    </rdf:RDF>
  </metadata>
  <g
     inkscape:label="Layer 1"
     inkscape:groupmode="layer"
     id="layer1">
    <path
       style="fill:none;stroke:#000000;stroke-width:0.26458332px;stroke-linecap:butt;stroke-linejoin:miter;stroke-opacity:1"
       d="m 32.505951,38.464278 c 0,0 2.267858,171.601182 2.267858,168.577372 0,-3.0238 -5.291667,46.86905 -3.023809,52.16072 2.267857,5.29167 15.119048,13.60715 20.410714,10.58333 5.291667,-3.02382 12.851191,-29.48214 12.851191,-29.48214 0,0 0,-44.60119 0,-52.91667 0,-8.31547 -1.511906,-26.45833 0,-29.48214 1.511903,-3.02381 -8.315478,-9.07143 6.047618,-9.07143 14.363094,0 34.017857,0.75596 34.017857,0.75596 0,0 13.60714,-4.53572 15.11905,4.53571 1.5119,9.07143 5.29166,37.04166 12.09523,60.47619 6.80358,23.43452 0,42.33333 9.07143,49.1369 9.07143,6.80359 27.97024,9.82738 27.97024,-0.75595 0,-10.58333 -10.58333,-68.03571 -12.85119,-80.13095 -2.26786,-12.09524 3.02381,-28.72619 -6.80357,-44.60119 -9.82738,-15.875 2.26786,-23.43452 3.77976,-37.04167 1.51191,-13.60714 -9.82738,-57.452376 -9.82738,-57.452376 L 120.19643,35.440466 78.619047,34.684514 Z"
       id="path1837"
       inkscape:connector-curvature="0" />
    <path
       style="fill:none;stroke:#000000;stroke-width:0.26458332px;stroke-linecap:butt;stroke-linejoin:miter;stroke-opacity:1"
       d="m 58.208333,62.654753 -3.779761,16.630952 c 0,0 -2.267858,30.238095 0,39.309525 2.267855,9.07143 14.363094,12.85119 25.702379,12.85119 11.339287,0 23.434519,0.75595 30.238099,-3.02381 6.80357,-3.77976 11.33928,-6.80357 13.60714,-21.92262 2.26786,-15.119046 3.02381,-30.238094 -2.26786,-37.797618 -5.29166,-7.559525 -14.36309,-12.09524 -24.946425,-12.09524 -10.583334,0 -38.553572,6.047621 -38.553572,6.047621 z"
       id="path1839"
       inkscape:connector-curvature="0" />
    <path
       style="fill:none;fill-opacity:1;stroke:none;stroke-width:0.26499999;stroke-miterlimit:4;stroke-dasharray:none;stroke-opacity:1"
       d="M 70.303574,74.749992 H 111.12501 V 121.61904 H 70.303574 Z"
       id="rect1841" />
  </g>
</svg>
