<?xml version="1.0" encoding="UTF-8" standalone="no"?>
<!-- Created with Inkscape (http://www.inkscape.org/) -->

<svg
   xmlns:dc="http://purl.org/dc/elements/1.1/"
   xmlns:cc="http://creativecommons.org/ns#"
   xmlns:rdf="http://www.w3.org/1999/02/22-rdf-syntax-ns#"
   xmlns:svg="http://www.w3.org/2000/svg"
   xmlns="http://www.w3.org/2000/svg"
   xmlns:sodipodi="http://sodipodi.sourceforge.net/DTD/sodipodi-0.dtd"
   xmlns:inkscape="http://www.inkscape.org/namespaces/inkscape"
   width="210mm"
   height="297mm"
   viewBox="0 0 210 297"
   version="1.1"
   id="svg2722"
   inkscape:version="0.92.4 (unknown)"
   sodipodi:docname="serpientesinh.svg">
  <defs
     id="defs2716" />
  <sodipodi:namedview
     id="base"
     pagecolor="#ffffff"
     bordercolor="#666666"
     borderopacity="1.0"
     inkscape:pageopacity="0.0"
     inkscape:pageshadow="2"
     inkscape:zoom="0.35"
     inkscape:cx="628.57143"
     inkscape:cy="674.28571"
     inkscape:document-units="mm"
     inkscape:current-layer="layer1"
     showgrid="false"
     inkscape:window-width="1301"
     inkscape:window-height="744"
     inkscape:window-x="65"
     inkscape:window-y="24"
     inkscape:window-maximized="1" />
  <metadata
     id="metadata2719">
    <rdf:RDF>
      <cc:Work
         rdf:about="">
        <dc:format>image/svg+xml</dc:format>
        <dc:type
           rdf:resource="http://purl.org/dc/dcmitype/StillImage" />
        <dc:title></dc:title>
      </cc:Work>
    </rdf:RDF>
  </metadata>
  <g
     inkscape:label="Layer 1"
     inkscape:groupmode="layer"
     id="layer1">
    <path
       style="fill:none;stroke:#000000;stroke-width:0.26458332px;stroke-linecap:butt;stroke-linejoin:miter;stroke-opacity:1"
       d="M 52.916666,104.98809 46.113094,93.648799 35.52976,61.142847 45.357142,46.023799 65.767857,28.636896 92.982141,25.613087 h 28.726189 l 24.94643,10.583333 21.16667,26.458333 -2.26786,7.559524 h -14.3631 l -12.09523,-10.583333 -6.80358,-2.267857 v 6.047618 l 11.33929,6.803572 13.60714,6.80357 -6.80357,12.851191 -12.09524,1.511906 -15.875,-1.511906 -10.58333,-12.851191 -4.53571,-11.339285 V 55.095229 l -1.51191,-5.291666 -30.994046,9.827381 -8.315476,8.315476 v 11.339285 l 8.315476,12.85119 9.07143,12.095235 15.875,14.3631 c 0,0 65.011906,46.86905 66.523806,52.91666 1.51191,6.04762 10.58334,19.65476 10.58334,22.67857 0,3.02382 0,41.57739 0,41.57739 l -16.63096,8.31547 -35.52976,6.04762 -35.529759,-6.04762 H 58.208333 l -21.922618,-18.14286 -7.559525,-18.89881 6.047619,-10.58333 12.095239,-10.58333 16.630951,-3.02381 h 9.071428 L 92.22619,186.63094 111.125,197.21428 127,211.57737 v 6.80357 l -5.29167,4.53571 -10.58333,-5.29166 -9.07143,-6.04762 -10.583332,-3.02381 -20.410715,-1.51191 -8.315475,3.02381 -1.511906,7.55953 c 0,0 13.607142,1.5119 18.142857,4.53571 4.535715,3.02381 11.339285,5.29167 11.339285,5.29167 l 25.702386,3.77976 c 0,0 15.87499,0 18.8988,0 3.02381,0 13.60715,-11.33928 13.60715,-11.33928 L 142.875,185.87499 127,172.26785 94.494047,142.02975 63.499999,117.08332 Z"
       id="path2724"
       inkscape:connector-curvature="0" />
    <path
       style="fill:none;stroke:#000000;stroke-width:0.26458332px;stroke-linecap:butt;stroke-linejoin:miter;stroke-opacity:1"
       d="m 125.48809,42.99999 -7.55952,-2.267857 3.77976,5.291666 z"
       id="path2726"
       inkscape:connector-curvature="0" />
  </g>
</svg>
