<?xml version="1.0" encoding="UTF-8" standalone="no"?>
<!-- Created with Inkscape (http://www.inkscape.org/) -->

<svg
   xmlns:dc="http://purl.org/dc/elements/1.1/"
   xmlns:cc="http://creativecommons.org/ns#"
   xmlns:rdf="http://www.w3.org/1999/02/22-rdf-syntax-ns#"
   xmlns:svg="http://www.w3.org/2000/svg"
   xmlns="http://www.w3.org/2000/svg"
   xmlns:sodipodi="http://sodipodi.sourceforge.net/DTD/sodipodi-0.dtd"
   xmlns:inkscape="http://www.inkscape.org/namespaces/inkscape"
   width="210mm"
   height="297mm"
   viewBox="0 0 210 297"
   version="1.1"
   id="svg1036"
   inkscape:version="0.92.4 (unknown)"
   sodipodi:docname="Tcon2h.svg">
  <defs
     id="defs1030" />
  <sodipodi:namedview
     id="base"
     pagecolor="#ffffff"
     bordercolor="#666666"
     borderopacity="1.0"
     inkscape:pageopacity="0.0"
     inkscape:pageshadow="2"
     inkscape:zoom="0.35"
     inkscape:cx="400"
     inkscape:cy="674.28571"
     inkscape:document-units="mm"
     inkscape:current-layer="layer1"
     showgrid="false"
     inkscape:window-width="1301"
     inkscape:window-height="744"
     inkscape:window-x="65"
     inkscape:window-y="24"
     inkscape:window-maximized="1" />
  <metadata
     id="metadata1033">
    <rdf:RDF>
      <cc:Work
         rdf:about="">
        <dc:format>image/svg+xml</dc:format>
        <dc:type
           rdf:resource="http://purl.org/dc/dcmitype/StillImage" />
        <dc:title></dc:title>
      </cc:Work>
    </rdf:RDF>
  </metadata>
  <g
     inkscape:label="Layer 1"
     inkscape:groupmode="layer"
     id="layer1">
    <path
       style="fill:none;stroke:#000000;stroke-width:0.26458332px;stroke-linecap:butt;stroke-linejoin:miter;stroke-opacity:1"
       d="m 24.946428,42.244039 c 0,0 -6.047619,4.535715 -6.803571,12.095239 -0.755952,7.559521 -10.5833332,11.339284 0.755952,17.386903 11.339285,6.047618 3.02381,6.803572 30.994048,8.315475 27.970236,1.511906 30.238094,-5.291666 34.017857,6.047621 3.779761,11.339285 4.535712,33.261903 4.535712,55.940473 0,22.67857 0,30.2381 0,59.72024 0,29.48214 -12.095236,43.08929 -1.511903,59.72024 10.583333,16.63095 16.630947,32.50595 24.190477,24.94644 7.55952,-7.55955 10.58333,-14.36312 12.09524,-27.97025 1.5119,-13.60714 1.5119,-95.25 1.5119,-116.41667 0,-21.16666 -4.53571,-49.892855 0,-53.672618 4.53572,-3.779761 -6.04762,-7.559521 17.38691,-7.559521 23.43452,0 28.72619,18.142854 40.06547,-0.755955 11.33929,-18.898809 6.04762,-37.041666 -7.55952,-37.041666 -13.60714,0 -23.43453,0 -51.40476,0 -27.970241,0 -41.577384,0 -58.208335,0 -16.630954,0 -40.065477,-0.755951 -40.065477,-0.755951 z"
       id="path1038"
       inkscape:connector-curvature="0" />
    <path
       style="fill:none;fill-opacity:1;stroke:none;stroke-width:0.26499999;stroke-miterlimit:4;stroke-dasharray:none;stroke-opacity:1"
       d="M -56.69643,89.113083 H 72.571423 V 275.07736 H -56.69643 Z"
       id="rect1040" />
    <path
       style="fill:none;fill-opacity:1;stroke:none;stroke-width:0.26499999;stroke-miterlimit:4;stroke-dasharray:none;stroke-opacity:1"
       d="M 139.8512,96.672607 H 271.3869 V 285.66071 H 139.8512 Z"
       id="rect1043" />
  </g>
</svg>
