<?xml version="1.0" encoding="UTF-8" standalone="no"?>
<!-- Created with Inkscape (http://www.inkscape.org/) -->

<svg
   xmlns:dc="http://purl.org/dc/elements/1.1/"
   xmlns:cc="http://creativecommons.org/ns#"
   xmlns:rdf="http://www.w3.org/1999/02/22-rdf-syntax-ns#"
   xmlns:svg="http://www.w3.org/2000/svg"
   xmlns="http://www.w3.org/2000/svg"
   xmlns:sodipodi="http://sodipodi.sourceforge.net/DTD/sodipodi-0.dtd"
   xmlns:inkscape="http://www.inkscape.org/namespaces/inkscape"
   width="210mm"
   height="297mm"
   viewBox="0 0 210 297"
   version="1.1"
   id="svg848"
   inkscape:version="0.92.4 (unknown)"
   sodipodi:docname="telefonoSh.svg">
  <defs
     id="defs842" />
  <sodipodi:namedview
     id="base"
     pagecolor="#ffffff"
     bordercolor="#666666"
     borderopacity="1.0"
     inkscape:pageopacity="0.0"
     inkscape:pageshadow="2"
     inkscape:zoom="0.35"
     inkscape:cx="400"
     inkscape:cy="674.28571"
     inkscape:document-units="mm"
     inkscape:current-layer="layer1"
     showgrid="false"
     inkscape:window-width="1301"
     inkscape:window-height="744"
     inkscape:window-x="65"
     inkscape:window-y="24"
     inkscape:window-maximized="1" />
  <metadata
     id="metadata845">
    <rdf:RDF>
      <cc:Work
         rdf:about="">
        <dc:format>image/svg+xml</dc:format>
        <dc:type
           rdf:resource="http://purl.org/dc/dcmitype/StillImage" />
        <dc:title></dc:title>
      </cc:Work>
    </rdf:RDF>
  </metadata>
  <g
     inkscape:label="Layer 1"
     inkscape:groupmode="layer"
     id="layer1">
    <path
       style="fill:none;stroke:#000000;stroke-width:0.26458332px;stroke-linecap:butt;stroke-linejoin:miter;stroke-opacity:1"
       d="m 27.970239,142.02975 11.339285,9.82738 c 0,0 20.410714,6.80357 21.922618,-3.02381 1.511906,-9.82738 -5.291667,-8.31547 -6.80357,-15.875 -1.511906,-7.55952 -5.291667,-13.60714 -3.023812,-21.16666 2.267858,-7.55953 -6.80357,-8.31548 8.315478,-9.82738 15.119046,-1.51191 46.869042,0 61.232142,0 14.36309,0 30.23809,1.5119 32.50595,9.82738 2.26786,8.31547 3.02381,14.36309 -3.77976,23.43452 -6.80357,9.07143 -14.3631,14.3631 -6.80357,18.14286 7.55952,3.77976 24.19047,8.31547 30.23809,3.77976 6.04762,-4.53571 12.85119,-18.14286 12.85119,-18.14286 0,0 -9.82738,-4.53571 -11.33928,-15.875 -1.51191,-11.33928 -4.53572,-30.238093 -9.82738,-35.52976 -5.29167,-5.291666 -2.26786,-7.559524 -26.45834,-7.559524 -24.19047,0 -61.232138,-1.511903 -70.303566,-1.511903 -9.07143,0 -23.434524,2.267858 -28.72619,6.047618 -5.291667,3.779761 -9.827382,27.214289 -9.827382,27.214289 l -0.755952,15.875 -11.339285,11.33928 z"
       id="path850"
       inkscape:connector-curvature="0" />
    <path
       style="fill:none;stroke:#000000;stroke-width:0.26458332px;stroke-linecap:butt;stroke-linejoin:miter;stroke-opacity:1"
       d="m 70.303572,111.79166 h 61.232138 l 9.07143,14.36309 -9.07143,15.875 c 0,0 -2.26785,15.11905 1.51191,18.14286 3.77976,3.02381 21.16666,7.55952 24.19047,11.33928 3.02381,3.77977 18.14286,43.84524 18.14286,43.84524 v 21.16667 c 0,0 -0.75595,1.5119 -12.85119,8.31548 -12.09524,6.80357 -57.45238,6.80357 -57.45238,6.80357 l -64.255953,-0.75596 -23.434522,-31.75 2.267857,-28.72619 16.630953,-22.67857 c 0,0 28.72619,-3.02381 31.749999,-5.29167 3.023809,-2.26785 10.583333,-13.60714 10.583333,-13.60714 l -9.07143,-17.3869 z"
       id="path852"
       inkscape:connector-curvature="0" />
    <path
       style="fill:none;stroke:#000000;stroke-width:0.26458332px;stroke-linecap:butt;stroke-linejoin:miter;stroke-opacity:1"
       d="m 65.767857,183.60713 -9.07143,23.43452 13.607145,24.94643 30.238098,9.07143 31.74999,-8.31547 8.31548,-18.14286 1.51191,-21.92262 c 0,0 -9.82738,-12.85119 -12.85119,-15.11905 -3.02381,-2.26785 -23.43453,-9.82738 -23.43453,-9.82738 l -27.214283,6.04762 z"
       id="path854"
       inkscape:connector-curvature="0" />
    <path
       style="fill:none;stroke:#000000;stroke-width:0.26458332px;stroke-linecap:butt;stroke-linejoin:miter;stroke-opacity:1"
       d="m 89.958332,201.74999 c 3.023809,3.77976 0,14.36309 6.047618,14.36309 6.04762,0 12.09524,0 12.09524,0 l 6.80357,-6.80357 v -16.63095 l -12.85119,-5.29167 -9.071429,0.75596 z"
       id="path856"
       inkscape:connector-curvature="0" />
  </g>
</svg>
