<?xml version="1.0" encoding="UTF-8" standalone="no"?>
<!-- Created with Inkscape (http://www.inkscape.org/) -->

<svg
   xmlns:dc="http://purl.org/dc/elements/1.1/"
   xmlns:cc="http://creativecommons.org/ns#"
   xmlns:rdf="http://www.w3.org/1999/02/22-rdf-syntax-ns#"
   xmlns:svg="http://www.w3.org/2000/svg"
   xmlns="http://www.w3.org/2000/svg"
   xmlns:sodipodi="http://sodipodi.sourceforge.net/DTD/sodipodi-0.dtd"
   xmlns:inkscape="http://www.inkscape.org/namespaces/inkscape"
   width="210mm"
   height="297mm"
   viewBox="0 0 210 297"
   version="1.1"
   id="svg850"
   inkscape:version="0.92.4 (unknown)"
   sodipodi:docname="tigresh.svg">
  <defs
     id="defs844" />
  <sodipodi:namedview
     id="base"
     pagecolor="#ffffff"
     bordercolor="#666666"
     borderopacity="1.0"
     inkscape:pageopacity="0.0"
     inkscape:pageshadow="2"
     inkscape:zoom="0.35"
     inkscape:cx="285.71429"
     inkscape:cy="788.57143"
     inkscape:document-units="mm"
     inkscape:current-layer="layer1"
     showgrid="false"
     inkscape:window-width="1301"
     inkscape:window-height="744"
     inkscape:window-x="65"
     inkscape:window-y="24"
     inkscape:window-maximized="1" />
  <metadata
     id="metadata847">
    <rdf:RDF>
      <cc:Work
         rdf:about="">
        <dc:format>image/svg+xml</dc:format>
        <dc:type
           rdf:resource="http://purl.org/dc/dcmitype/StillImage" />
        <dc:title></dc:title>
      </cc:Work>
    </rdf:RDF>
  </metadata>
  <g
     inkscape:label="Layer 1"
     inkscape:groupmode="layer"
     id="layer1">
    <path
       style="fill:none;stroke:#000000;stroke-width:0.26458332px;stroke-linecap:butt;stroke-linejoin:miter;stroke-opacity:1"
       d="M 64.255951,210.82142 49.136905,191.16665 v -20.41071 h 13.607143 l 7.559524,10.58334 18.898809,1.5119 c 0,0 17.386899,3.77976 21.166669,0 3.77976,-3.77976 8.31547,-12.09524 8.31547,-12.09524 l 15.875,3.02381 -3.02381,29.48214 -18.89881,12.09524 -21.166662,4.53572 z"
       id="path854"
       inkscape:connector-curvature="0" />
    <path
       style="fill:none;stroke:#000000;stroke-width:0.26458332px;stroke-linecap:butt;stroke-linejoin:miter;stroke-opacity:1"
       d="M 34.017857,113.30356 22.678571,131.44642 11.339286,157.1488 v 29.48214 L 31.75,200.23808 l 0.755951,-15.87499 3.023809,-24.19048 22.678573,-30.2381 20.410714,-2.26785 7.559524,-1.51191 -20.410714,28.72619 18.898809,12.85119 3.77976,-18.14285 4.535715,15.875 20.410719,-9.82739 -15.875004,-28.72619 34.017854,0.75596 13.60715,26.45833 3.77976,46.86905 24.19047,-5.29167 5.29167,-40.82143 -20.41071,-56.696426 -23.43453,-9.071428 19.65476,-15.119048 -8.31547,-18.898809 -15.875,-3.779763 -15.11905,6.803572 7.55952,27.214285 -23.43452,-1.511903 -23.434522,-0.755955 -9.827381,0.755955 3.77976,-8.315476 8.315476,-17.386906 -17.386903,-10.583333 -18.898809,3.779761 -4.535715,13.607145 5.291667,9.827379 12.85119,10.583333 z"
       id="path856"
       inkscape:connector-curvature="0" />
    <path
       style="fill:none;stroke:#000000;stroke-width:0.26458332px;stroke-linecap:butt;stroke-linejoin:miter;stroke-opacity:1"
       d="m 72.571427,102.72023 9.827381,8.31547 -20.410715,2.26786 z"
       id="path860"
       inkscape:connector-curvature="0" />
    <path
       style="fill:none;stroke:#000000;stroke-width:0.26458332px;stroke-linecap:butt;stroke-linejoin:miter;stroke-opacity:1"
       d="m 43.845239,212.33332 -14.363097,36.28572 27.214285,13.60714 59.720243,5.29167 32.50595,-10.58334 6.04762,-15.11905 -18.14286,-22.67857"
       id="path864"
       inkscape:connector-curvature="0" />
    <path
       style="fill:none;stroke:#000000;stroke-width:0.26458332px;stroke-linecap:butt;stroke-linejoin:miter;stroke-opacity:1"
       d="m 117.17262,101.96428 12.09524,10.58333 -20.41072,2.26786 z"
       id="path866"
       inkscape:connector-curvature="0" />
    <path
       style="fill:none;stroke:#000000;stroke-width:0.26458332px;stroke-linecap:butt;stroke-linejoin:miter;stroke-opacity:1"
       d="m 15.875,42.99999 39.309523,-14.363094 46.113097,-3.023809 36.28571,0.755952 36.28572,17.386905 15.875,40.821427 9.82737,40.065479 v 41.57738 l -3.0238,29.48214 -12.09524,13.60714 -14.3631,8.31548 3.02381,19.65476 5.29167,20.41071 v 14.36309 L 140.60714,284.90476 71.059523,285.6607 12.85119,268.27379 6.047619,219.89285 3.7797618,115.57142 Z"
       id="path868"
       inkscape:connector-curvature="0" />
  </g>
</svg>
