<?xml version="1.0" encoding="UTF-8" standalone="no"?>
<!-- Created with Inkscape (http://www.inkscape.org/) -->

<svg
   xmlns:dc="http://purl.org/dc/elements/1.1/"
   xmlns:cc="http://creativecommons.org/ns#"
   xmlns:rdf="http://www.w3.org/1999/02/22-rdf-syntax-ns#"
   xmlns:svg="http://www.w3.org/2000/svg"
   xmlns="http://www.w3.org/2000/svg"
   xmlns:sodipodi="http://sodipodi.sourceforge.net/DTD/sodipodi-0.dtd"
   xmlns:inkscape="http://www.inkscape.org/namespaces/inkscape"
   width="210mm"
   height="297mm"
   viewBox="0 0 210 297"
   version="1.1"
   id="svg1004"
   inkscape:version="0.92.4 (unknown)"
   sodipodi:docname="Ucon1h.svg">
  <defs
     id="defs998" />
  <sodipodi:namedview
     id="base"
     pagecolor="#ffffff"
     bordercolor="#666666"
     borderopacity="1.0"
     inkscape:pageopacity="0.0"
     inkscape:pageshadow="2"
     inkscape:zoom="0.35"
     inkscape:cx="400"
     inkscape:cy="560"
     inkscape:document-units="mm"
     inkscape:current-layer="layer1"
     showgrid="false"
     inkscape:window-width="1301"
     inkscape:window-height="744"
     inkscape:window-x="65"
     inkscape:window-y="24"
     inkscape:window-maximized="1" />
  <metadata
     id="metadata1001">
    <rdf:RDF>
      <cc:Work
         rdf:about="">
        <dc:format>image/svg+xml</dc:format>
        <dc:type
           rdf:resource="http://purl.org/dc/dcmitype/StillImage" />
        <dc:title></dc:title>
      </cc:Work>
    </rdf:RDF>
  </metadata>
  <g
     inkscape:label="Layer 1"
     inkscape:groupmode="layer"
     id="layer1">
    <path
       style="fill:none;stroke:#000000;stroke-width:0.26458332px;stroke-linecap:butt;stroke-linejoin:miter;stroke-opacity:1"
       d="M 24.190476,53.583323 22.678571,108.0119 c 0,0 0,48.38095 0,70.30356 0,21.92262 -0.755952,40.82143 9.071429,55.94048 9.827381,15.11905 14.363094,19.65476 34.773808,24.94643 20.410715,5.29167 6.047619,6.80357 46.869052,5.29167 40.82142,-1.51191 49.89285,-3.02381 57.45238,-18.14286 7.55952,-15.11905 12.85119,-21.16667 13.60714,-49.89286 0.75595,-28.72619 1.5119,-49.89286 1.5119,-81.64285 0,-31.750005 12.85119,-56.696432 0,-65.011907 -12.85119,-8.315476 -14.36309,-18.898809 -21.92262,0.755951 -7.55952,19.654763 -10.58333,19.654763 -10.58333,52.916666 0,33.26191 5.29167,36.28571 0,65.76786 -5.29167,29.48214 12.09524,50.64881 -9.07143,59.72024 -21.16666,9.07142 -29.48214,13.60714 -47.624995,8.31547 -18.142858,-5.29167 -39.309524,-8.31547 -43.845239,-19.65476 -4.535715,-11.33929 -4.535715,-34.77381 -4.535715,-56.69643 0,-21.92262 0,-51.40476 0,-80.130949 0,-28.726191 11.339287,-43.089287 0,-48.380954 -11.339285,-5.291667 -18.898809,-6.047618 -23.434523,1.511906 -4.535714,7.559524 -0.755952,19.65476 -0.755952,19.65476 z"
       id="path1006"
       inkscape:connector-curvature="0" />
    <path
       style="fill:none;fill-opacity:1;stroke:none;stroke-width:0.26499999;stroke-miterlimit:4;stroke-dasharray:none;stroke-opacity:1"
       d="M 60.476189,-23.523817 H 145.89881 V 218.38094 H 60.476189 Z"
       id="rect1008" />
  </g>
</svg>
