<?xml version="1.0" encoding="UTF-8" standalone="no"?>
<!-- Created with Inkscape (http://www.inkscape.org/) -->

<svg
   xmlns:dc="http://purl.org/dc/elements/1.1/"
   xmlns:cc="http://creativecommons.org/ns#"
   xmlns:rdf="http://www.w3.org/1999/02/22-rdf-syntax-ns#"
   xmlns:svg="http://www.w3.org/2000/svg"
   xmlns="http://www.w3.org/2000/svg"
   xmlns:sodipodi="http://sodipodi.sourceforge.net/DTD/sodipodi-0.dtd"
   xmlns:inkscape="http://www.inkscape.org/namespaces/inkscape"
   width="210mm"
   height="297mm"
   viewBox="0 0 210 297"
   version="1.1"
   id="svg2308"
   inkscape:version="0.92.4 (unknown)"
   sodipodi:docname="vacasinh.svg">
  <defs
     id="defs2302" />
  <sodipodi:namedview
     id="base"
     pagecolor="#ffffff"
     bordercolor="#666666"
     borderopacity="1.0"
     inkscape:pageopacity="0.0"
     inkscape:pageshadow="2"
     inkscape:zoom="0.35"
     inkscape:cx="285.71429"
     inkscape:cy="445.71429"
     inkscape:document-units="mm"
     inkscape:current-layer="layer1"
     showgrid="false"
     inkscape:window-width="1301"
     inkscape:window-height="744"
     inkscape:window-x="65"
     inkscape:window-y="24"
     inkscape:window-maximized="1" />
  <metadata
     id="metadata2305">
    <rdf:RDF>
      <cc:Work
         rdf:about="">
        <dc:format>image/svg+xml</dc:format>
        <dc:type
           rdf:resource="http://purl.org/dc/dcmitype/StillImage" />
        <dc:title></dc:title>
      </cc:Work>
    </rdf:RDF>
  </metadata>
  <g
     inkscape:label="Layer 1"
     inkscape:groupmode="layer"
     id="layer1">
    <path
       style="fill:none;stroke:#000000;stroke-width:0.26458332px;stroke-linecap:butt;stroke-linejoin:miter;stroke-opacity:1"
       d="m 50.648809,36.952372 -15.875,6.803572 -13.607143,21.166667 -3.023809,19.65476 3.779762,21.922619 c 0,0 8.315475,3.02381 8.315475,7.55952 0,4.53572 -6.80357,27.97024 -6.80357,27.97024 0,0 -7.559524,13.60714 -7.559524,18.14286 0,4.53571 29.482142,53.67262 29.482142,53.67262 l 43.089284,15.11905 23.434524,10.58333 H 127 l 14.36309,-28.72619 14.3631,-28.72619 5.29167,-31.75 -14.3631,-30.2381 L 128.5119,105.74404 142.11905,88.357132 140.60714,61.898799 127,46.779754 107.34524,35.440466 l -11.33929,3.023812 10.58333,9.071427 6.80358,12.095239 8.31547,13.607143 -3.02381,17.386903 -19.65476,3.779763 H 79.374999 L 59.720238,95.160705 42.333333,95.916656 34.017857,86.089277 V 68.702372 Z"
       id="path2310"
       inkscape:connector-curvature="0" />
    <path
       style="fill:none;stroke:#000000;stroke-width:0.26458332px;stroke-linecap:butt;stroke-linejoin:miter;stroke-opacity:1"
       d="m 49.136905,142.7857 -6.803572,6.04762 -2.267858,9.07143 3.023809,9.07143 h 9.07143 l 4.535713,-5.29167 z"
       id="path2312"
       inkscape:connector-curvature="0" />
    <path
       style="fill:none;stroke:#000000;stroke-width:0.26458332px;stroke-linecap:butt;stroke-linejoin:miter;stroke-opacity:1"
       d="m 122.46428,135.22618 12.85119,3.02381 3.77977,8.31547 -3.02381,12.8512 h -9.82738 z"
       id="path2314"
       inkscape:connector-curvature="0" />
    <path
       style="fill:none;stroke:#000000;stroke-width:0.26458332px;stroke-linecap:butt;stroke-linejoin:miter;stroke-opacity:1"
       d="m 83.15476,203.26189 10.583333,10.58334 14.363097,5.29166 h 5.29167 l 6.04761,-2.26785 9.82739,-18.89881 1.5119,-12.09524 -0.75595,-3.02381 -15.875,-8.31548 -11.33929,-16.63095 -12.851188,-11.33929 -3.779761,2.26786 v 15.11905 24.19048 z"
       id="path2316"
       inkscape:connector-curvature="0" />
    <path
       style="fill:none;stroke:#000000;stroke-width:0.26458332px;stroke-linecap:butt;stroke-linejoin:miter;stroke-opacity:1"
       d="m 149.67857,104.98809 20.41071,1.5119 12.09524,15.11905 13.60714,26.45833 v 13.60714 l -7.55952,-4.53571 -10.58333,-12.85119 -13.60715,-19.65476 z"
       id="path2318"
       inkscape:connector-curvature="0" />
    <path
       style="fill:none;stroke:#000000;stroke-width:0.26458332px;stroke-linecap:butt;stroke-linejoin:miter;stroke-opacity:1"
       d="m 100.54167,197.97023 13.60714,-5.29167 -3.02381,9.07143 z"
       id="path2324"
       inkscape:connector-curvature="0" />
    <path
       style="fill:none;stroke:#000000;stroke-width:0.26458332px;stroke-linecap:butt;stroke-linejoin:miter;stroke-opacity:1"
       d="m 46.113094,231.98808 30.994048,16.63096 28.726188,10.58333 h 24.19048 l 14.36309,-16.63095 15.11905,50.6488 -67.27976,1.5119 -51.404763,-1.5119 -24.190475,-0.75595 -1.511905,-13.60715 z"
       id="path2326"
       inkscape:connector-curvature="0" />
    <path
       style="fill:none;stroke:#000000;stroke-width:0.26458332px;stroke-linecap:butt;stroke-linejoin:miter;stroke-opacity:1"
       d="m 156.48214,200.23808 27.21429,36.28572 14.36309,19.65476 -17.3869,21.16666 h -7.55953 l -13.60714,-33.2619 -9.82738,-22.67857 z"
       id="path2330"
       inkscape:connector-curvature="0" />
  </g>
</svg>
