<?xml version="1.0" encoding="UTF-8" standalone="no"?>
<!-- Created with Inkscape (http://www.inkscape.org/) -->

<svg
   xmlns:dc="http://purl.org/dc/elements/1.1/"
   xmlns:cc="http://creativecommons.org/ns#"
   xmlns:rdf="http://www.w3.org/1999/02/22-rdf-syntax-ns#"
   xmlns:svg="http://www.w3.org/2000/svg"
   xmlns="http://www.w3.org/2000/svg"
   xmlns:sodipodi="http://sodipodi.sourceforge.net/DTD/sodipodi-0.dtd"
   xmlns:inkscape="http://www.inkscape.org/namespaces/inkscape"
   width="210mm"
   height="297mm"
   viewBox="0 0 210 297"
   version="1.1"
   id="svg1869"
   inkscape:version="0.92.4 (unknown)"
   sodipodi:docname="Wsinh.svg">
  <defs
     id="defs1863" />
  <sodipodi:namedview
     id="base"
     pagecolor="#ffffff"
     bordercolor="#666666"
     borderopacity="1.0"
     inkscape:pageopacity="0.0"
     inkscape:pageshadow="2"
     inkscape:zoom="0.35"
     inkscape:cx="285.71429"
     inkscape:cy="560"
     inkscape:document-units="mm"
     inkscape:current-layer="layer1"
     showgrid="false"
     inkscape:window-width="1301"
     inkscape:window-height="744"
     inkscape:window-x="65"
     inkscape:window-y="24"
     inkscape:window-maximized="1" />
  <metadata
     id="metadata1866">
    <rdf:RDF>
      <cc:Work
         rdf:about="">
        <dc:format>image/svg+xml</dc:format>
        <dc:type
           rdf:resource="http://purl.org/dc/dcmitype/StillImage" />
        <dc:title></dc:title>
      </cc:Work>
    </rdf:RDF>
  </metadata>
  <g
     inkscape:label="Layer 1"
     inkscape:groupmode="layer"
     id="layer1">
    <path
       style="fill:none;stroke:#000000;stroke-width:0.26458332px;stroke-linecap:butt;stroke-linejoin:miter;stroke-opacity:1"
       d="m 21.922619,51.315466 9.071429,58.208334 11.339285,49.89286 c 0,0 0,43.84523 6.803572,54.42857 6.80357,10.58333 16.630952,22.67857 21.166667,16.63095 4.535712,-6.04762 12.851188,-42.33333 12.851188,-42.33333 0,0 9.07143,-17.38691 9.07143,-12.85119 0,4.53571 0.755951,6.80357 3.77976,18.14285 3.02381,11.33929 3.779764,34.01786 9.07143,38.55357 5.29167,4.53572 12.85119,12.09524 17.3869,6.04762 4.53572,-6.04762 6.80358,-29.48214 10.58334,-40.06547 3.77976,-10.58334 2.26785,-23.43453 6.04762,-21.92262 3.77976,1.5119 8.31547,0.75595 9.07142,10.58333 0.75596,9.82738 -3.0238,28.72619 3.77977,40.82143 6.80357,12.09524 7.55952,18.14286 12.09523,12.09524 4.53572,-6.04762 15.875,-75.59524 15.875,-75.59524 l 9.82739,-93.738093 c 0,0 9.07142,-18.142857 0,-21.92262 -9.07143,-3.779761 -24.94643,-14.363094 -27.97024,-4.535713 -3.02381,9.827379 -9.82738,18.142855 -9.82738,37.041667 0,18.898809 -0.75596,27.214289 -0.75596,38.553569 0,11.33928 3.77977,21.92262 0,26.45833 -3.77976,4.53572 -12.85119,-3.77976 -17.3869,-14.36309 -4.53571,-10.58333 2.26786,-23.43452 -7.55952,-20.41072 -9.82738,3.02381 -9.07143,5.29167 -12.09524,22.67858 -3.02381,17.3869 -4.53572,38.55357 -10.58334,20.41071 -6.047614,-18.14286 -3.0238,-53.67262 -15.119044,-42.33333 -12.095236,11.33928 -18.898809,30.99404 -20.410712,37.79762 -1.511906,6.80357 -6.803572,18.89881 -7.559524,8.31547 -0.755952,-10.58333 -5.291667,-32.50595 -5.291667,-50.64881 0,-18.142854 0.755952,-55.940474 -3.779763,-59.720235 -4.535712,-3.779761 -29.482141,3.779761 -29.482141,3.779761 z"
       id="path1871"
       inkscape:connector-curvature="0" />
  </g>
</svg>
