<?xml version="1.0" encoding="UTF-8" standalone="no"?>
<!DOCTYPE svg PUBLIC "-//W3C//DTD SVG 20010904//EN"
              "http://www.w3.org/TR/2001/REC-SVG-20010904/DTD/svg10.dtd">

<svg xmlns="http://www.w3.org/2000/svg"
     width="8.88889in" height="5.55556in"
     viewBox="0 0 640 400">
  <path id="Z"
        fill="none" stroke="black" stroke-width="1"
        d="M 35.00,113.00
           C 35.00,113.00 42.64,113.00 42.64,113.00
             42.64,113.00 35.00,122.72 35.00,122.72
             35.00,122.72 35.00,124.00 35.00,124.00
             35.00,124.00 46.00,124.00 46.00,124.00
             46.00,124.00 46.00,122.00 46.00,122.00
             46.00,122.00 38.11,122.00 38.11,122.00
             38.11,122.00 46.00,112.28 46.00,112.28
             46.00,112.28 46.00,111.00 46.00,111.00
             46.00,111.00 35.00,111.00 35.00,111.00
             35.00,111.00 35.00,113.00 35.00,113.00 Z" />
</svg>
