<?xml version="1.0" encoding="UTF-8" standalone="no"?>
<!-- Created with Inkscape (http://www.inkscape.org/) -->

<svg
   xmlns:dc="http://purl.org/dc/elements/1.1/"
   xmlns:cc="http://creativecommons.org/ns#"
   xmlns:rdf="http://www.w3.org/1999/02/22-rdf-syntax-ns#"
   xmlns:svg="http://www.w3.org/2000/svg"
   xmlns="http://www.w3.org/2000/svg"
   xmlns:sodipodi="http://sodipodi.sourceforge.net/DTD/sodipodi-0.dtd"
   xmlns:inkscape="http://www.inkscape.org/namespaces/inkscape"
   width="210mm"
   height="297mm"
   viewBox="0 0 210 297"
   version="1.1"
   id="svg1956"
   inkscape:version="0.92.4 (unknown)"
   sodipodi:docname="8con2h.svg">
  <defs
     id="defs1950" />
  <sodipodi:namedview
     id="base"
     pagecolor="#ffffff"
     bordercolor="#666666"
     borderopacity="1.0"
     inkscape:pageopacity="0.0"
     inkscape:pageshadow="2"
     inkscape:zoom="0.35"
     inkscape:cx="400"
     inkscape:cy="788.57143"
     inkscape:document-units="mm"
     inkscape:current-layer="layer1"
     showgrid="false"
     inkscape:window-width="1301"
     inkscape:window-height="744"
     inkscape:window-x="65"
     inkscape:window-y="24"
     inkscape:window-maximized="1" />
  <metadata
     id="metadata1953">
    <rdf:RDF>
      <cc:Work
         rdf:about="">
        <dc:format>image/svg+xml</dc:format>
        <dc:type
           rdf:resource="http://purl.org/dc/dcmitype/StillImage" />
        <dc:title></dc:title>
      </cc:Work>
    </rdf:RDF>
  </metadata>
  <g
     inkscape:label="Layer 1"
     inkscape:groupmode="layer"
     id="layer1">
    <path
       style="fill:none;stroke:#000000;stroke-width:0.26458332px;stroke-linecap:butt;stroke-linejoin:miter;stroke-opacity:1"
       d="m 89.202381,27.12499 c 0,0 -19.654764,0.755955 -23.434524,4.535715 -3.779764,3.779761 -18.142858,21.166667 -18.142858,21.166667 0,0 -10.583333,16.630951 -10.583333,21.166666 0,4.535715 0.755952,26.458332 0.755952,26.458332 0,0 10.583333,18.89881 18.142857,26.45833 7.559524,7.55953 11.339285,5.29167 12.095239,9.82739 0.755952,4.53571 1.511903,12.85119 -3.023809,15.11904 -4.535715,2.26786 -12.851191,9.07143 -17.386906,12.85119 -4.535715,3.77977 -25.70238,42.33333 -25.70238,42.33333 l 10.583332,40.06548 21.166667,17.38691 c 0,0 15.874999,15.87499 32.505953,15.87499 16.630949,0 46.869049,6.80358 57.452379,-0.75594 10.58333,-7.55954 27.97024,-22.67858 36.28571,-41.57739 8.31548,-18.89881 16.63096,-30.23809 8.31548,-44.60119 -8.31548,-14.36309 -12.85119,-31.75 -19.65476,-33.2619 -6.80357,-1.51191 -14.3631,-2.26786 -23.43452,-6.04762 -9.07143,-3.77976 -13.60715,-5.29167 -12.8512,-13.60714 0.75596,-8.31548 17.38691,-0.75596 25.70239,-11.33929 8.31547,-10.58333 15.875,-61.988094 15.875,-65.011903 0,-3.02381 -12.85119,-19.654761 -18.14286,-21.922618 C 150.43452,39.976181 133.80357,32.416657 127,32.416657 c -6.80357,0 -37.797619,-5.291667 -37.797619,-5.291667 z"
       id="path1958"
       inkscape:connector-curvature="0" />
    <path
       style="fill:none;stroke:#000000;stroke-width:0.26458332px;stroke-linecap:butt;stroke-linejoin:miter;stroke-opacity:1"
       d="m 78.619047,64.922611 c 0,0 -9.07143,3.779761 -9.07143,12.851188 0,9.07143 -4.535712,33.261901 3.779764,35.529761 8.315475,2.26786 25.702379,9.82738 34.773809,6.80357 9.07143,-3.02381 17.3869,-8.31547 21.92262,-17.3869 4.53571,-9.071431 10.58333,-13.607144 8.31547,-24.946431 -2.26785,-11.339285 -9.07142,-24.946427 -17.3869,-24.946427 -8.31548,0 -15.11905,-1.511906 -18.89881,-1.511906 -3.779762,0 -23.434523,13.607145 -23.434523,13.607145 z"
       id="path1960"
       inkscape:connector-curvature="0" />
    <path
       style="fill:none;stroke:#000000;stroke-width:0.26458332px;stroke-linecap:butt;stroke-linejoin:miter;stroke-opacity:1"
       d="m 79.374999,177.55951 c 0,0 -17.386906,11.33929 -18.898809,18.14286 -1.511906,6.80357 -4.535715,31.75 -4.535715,31.75 l 16.630952,27.97024 c 0,0 22.678572,6.80357 27.970243,6.04762 5.29166,-0.75595 37.04166,-3.02381 37.04166,-3.02381 l 20.41072,-25.70238 c 0,0 8.31547,-12.09524 6.04761,-24.19048 -2.26785,-12.09524 3.77977,-15.11905 -9.82738,-21.92262 -13.60714,-6.80357 -18.14285,-12.09524 -28.72619,-12.09524 -10.58333,0 -46.113091,3.02381 -46.113091,3.02381 z"
       id="path1962"
       inkscape:connector-curvature="0" />
    <path
       style="fill:none;fill-opacity:1;stroke:none;stroke-width:0.26499999;stroke-miterlimit:4;stroke-dasharray:none;stroke-opacity:1"
       d="M 93.738098,65.678558 H 119.44048 V 108.76785 H 93.738098 Z"
       id="rect1966" />
    <path
       style="fill:none;fill-opacity:1;stroke:none;stroke-width:0.26499999;stroke-miterlimit:4;stroke-dasharray:none;stroke-opacity:1"
       d="m 80.130951,192.67856 h 55.184519 v 49.13691 H 80.130951 Z"
       id="rect1969" />
  </g>
</svg>
