<?xml version="1.0" encoding="UTF-8" standalone="no"?>
<!-- Created with Inkscape (http://www.inkscape.org/) -->

<svg
   xmlns:dc="http://purl.org/dc/elements/1.1/"
   xmlns:cc="http://creativecommons.org/ns#"
   xmlns:rdf="http://www.w3.org/1999/02/22-rdf-syntax-ns#"
   xmlns:svg="http://www.w3.org/2000/svg"
   xmlns="http://www.w3.org/2000/svg"
   xmlns:sodipodi="http://sodipodi.sourceforge.net/DTD/sodipodi-0.dtd"
   xmlns:inkscape="http://www.inkscape.org/namespaces/inkscape"
   width="210mm"
   height="297mm"
   viewBox="0 0 210 297"
   version="1.1"
   id="svg8"
   inkscape:version="0.92.4 (unknown)"
   sodipodi:docname="abstract.svg">
  <defs
     id="defs2" />
  <sodipodi:namedview
     id="base"
     pagecolor="#ffffff"
     bordercolor="#666666"
     borderopacity="1.0"
     inkscape:pageopacity="0.0"
     inkscape:pageshadow="2"
     inkscape:zoom="0.35"
     inkscape:cx="-144.28571"
     inkscape:cy="560"
     inkscape:document-units="mm"
     inkscape:current-layer="layer1"
     showgrid="false"
     inkscape:window-width="1301"
     inkscape:window-height="744"
     inkscape:window-x="65"
     inkscape:window-y="24"
     inkscape:window-maximized="1" />
  <metadata
     id="metadata5">
    <rdf:RDF>
      <cc:Work
         rdf:about="">
        <dc:format>image/svg+xml</dc:format>
        <dc:type
           rdf:resource="http://purl.org/dc/dcmitype/StillImage" />
        <dc:title></dc:title>
      </cc:Work>
    </rdf:RDF>
  </metadata>
  <g
     inkscape:label="Layer 1"
     inkscape:groupmode="layer"
     id="layer1">
    <path
       style="fill:none;stroke:#000000;stroke-width:0.26458332px;stroke-linecap:butt;stroke-linejoin:miter;stroke-opacity:1"
       d="m 74.839284,64.922619 c 0,0 17.386906,-0.755952 17.386906,13.607142 0,14.363094 -18.898809,36.285719 -36.285715,30.238089 C 38.553572,102.72024 23.434524,95.916667 23.434524,106.5 c 0,10.58333 -21.1666669,12.09524 1.511904,29.48214 22.678571,17.38691 48.380953,24.19048 59.720238,13.60714 11.339284,-10.58333 13.607142,-18.8988 13.607142,-27.97023 0,-9.07143 -6.80357,-18.89881 9.827382,-9.82738 16.63095,9.07142 16.63095,9.07142 16.63095,16.63095 0,7.55952 1.51191,16.63095 -2.26786,21.16666 -3.77976,4.53572 -3.77976,-9.07143 -3.77976,6.04762 0,15.11905 21.92262,27.97024 27.97024,15.11905 6.04762,-12.85119 17.3869,-18.89881 18.14286,-37.04167 0.75595,-18.14285 4.53571,-18.14285 -10.58334,-34.017853 -15.11904,-15.874999 -23.43452,-23.434523 -9.07142,-37.041666 14.36309,-13.607142 27.97023,-30.238093 9.82738,-35.52976 -18.14286,-5.291668 -30.2381,-23.434525 -36.28572,-0.755954 -6.04762,22.678572 -10.58333,32.505954 -5.29166,46.869047 5.29166,14.363094 7.55952,15.119049 5.29166,18.142858 -2.26785,3.023809 -8.31547,9.827378 -10.58333,3.023809 -2.26786,-6.803573 -3.02381,-18.898809 -6.04762,-27.970239 C 99.02976,57.363095 113.39286,55.851189 94.494047,46.779761 75.595238,37.708334 71.059523,18.809524 62.744048,37.708334 54.428572,56.607143 44.60119,64.166667 54.428572,70.970237 c 9.827379,6.803572 20.410712,-6.047618 20.410712,-6.047618 z"
       id="path815"
       inkscape:connector-curvature="0" />
  </g>
</svg>
