<?xml version="1.0" encoding="UTF-8" standalone="no"?>
<!-- Created with Inkscape (http://www.inkscape.org/) -->

<svg
   xmlns:dc="http://purl.org/dc/elements/1.1/"
   xmlns:cc="http://creativecommons.org/ns#"
   xmlns:rdf="http://www.w3.org/1999/02/22-rdf-syntax-ns#"
   xmlns:svg="http://www.w3.org/2000/svg"
   xmlns="http://www.w3.org/2000/svg"
   xmlns:sodipodi="http://sodipodi.sourceforge.net/DTD/sodipodi-0.dtd"
   xmlns:inkscape="http://www.inkscape.org/namespaces/inkscape"
   width="210mm"
   height="297mm"
   viewBox="0 0 210 297"
   version="1.1"
   id="svg2875"
   inkscape:version="0.92.4 (unknown)"
   sodipodi:docname="avion.svg">
  <defs
     id="defs2869" />
  <sodipodi:namedview
     id="base"
     pagecolor="#ffffff"
     bordercolor="#666666"
     borderopacity="1.0"
     inkscape:pageopacity="0.0"
     inkscape:pageshadow="2"
     inkscape:zoom="0.35"
     inkscape:cx="514.28571"
     inkscape:cy="674.28571"
     inkscape:document-units="mm"
     inkscape:current-layer="layer1"
     showgrid="false"
     inkscape:window-width="1301"
     inkscape:window-height="744"
     inkscape:window-x="65"
     inkscape:window-y="24"
     inkscape:window-maximized="1" />
  <metadata
     id="metadata2872">
    <rdf:RDF>
      <cc:Work
         rdf:about="">
        <dc:format>image/svg+xml</dc:format>
        <dc:type
           rdf:resource="http://purl.org/dc/dcmitype/StillImage" />
        <dc:title></dc:title>
      </cc:Work>
    </rdf:RDF>
  </metadata>
  <g
     inkscape:label="Layer 1"
     inkscape:groupmode="layer"
     id="layer1">
    <path
       style="fill:none;stroke:#000000;stroke-width:0.26458332px;stroke-linecap:butt;stroke-linejoin:miter;stroke-opacity:1"
       d="M 96.00595,26.369039 83.15476,39.976181 81.642856,67.94642 80.130951,98.184514 57.452381,120.10713 27.214285,158.6607 14.363095,173.77975 v 7.55953 l 24.946429,-0.75596 28.72619,-6.80357 13.607142,-3.77976 c 0,0 0.755952,13.60714 0.755952,16.63095 0,3.02381 0,21.16667 0,21.16667 l 0.755952,11.33928 -20.410712,15.11905 -12.851191,13.60714 32.505951,-6.80357 20.410712,-1.5119 28.72619,1.5119 22.67857,7.55953 -32.50595,-24.94643 v -44.60119 l -0.75595,-9.82738 25.70238,3.77976 33.2619,12.85119 8.31548,-12.09524 -32.50595,-34.77381 -26.45833,-23.43452 -17.38691,-17.386906 V 73.238087 l -2.26786,-23.434524 v -9.07143 z"
       id="path2877"
       inkscape:connector-curvature="0" />
    <path
       style="fill:none;stroke:#000000;stroke-width:0.26458332px;stroke-linecap:butt;stroke-linejoin:miter;stroke-opacity:1"
       d="m 99.785714,198.72618 -0.755954,24.19047 h 6.04762 l 1.5119,-12.85119 -2.26785,-27.21428 z"
       id="path2879"
       inkscape:connector-curvature="0" />
  </g>
</svg>
