<?xml version="1.0" encoding="UTF-8" standalone="no"?>
<!-- Created with Inkscape (http://www.inkscape.org/) -->

<svg
   xmlns:dc="http://purl.org/dc/elements/1.1/"
   xmlns:cc="http://creativecommons.org/ns#"
   xmlns:rdf="http://www.w3.org/1999/02/22-rdf-syntax-ns#"
   xmlns:svg="http://www.w3.org/2000/svg"
   xmlns="http://www.w3.org/2000/svg"
   xmlns:sodipodi="http://sodipodi.sourceforge.net/DTD/sodipodi-0.dtd"
   xmlns:inkscape="http://www.inkscape.org/namespaces/inkscape"
   width="210mm"
   height="297mm"
   viewBox="0 0 210 297"
   version="1.1"
   id="svg2508"
   inkscape:version="0.92.4 (unknown)"
   sodipodi:docname="bcon1h.svg">
  <defs
     id="defs2502" />
  <sodipodi:namedview
     id="base"
     pagecolor="#ffffff"
     bordercolor="#666666"
     borderopacity="1.0"
     inkscape:pageopacity="0.0"
     inkscape:pageshadow="2"
     inkscape:zoom="0.35"
     inkscape:cx="400"
     inkscape:cy="788.57143"
     inkscape:document-units="mm"
     inkscape:current-layer="layer1"
     showgrid="false"
     inkscape:window-width="1301"
     inkscape:window-height="744"
     inkscape:window-x="65"
     inkscape:window-y="24"
     inkscape:window-maximized="1" />
  <metadata
     id="metadata2505">
    <rdf:RDF>
      <cc:Work
         rdf:about="">
        <dc:format>image/svg+xml</dc:format>
        <dc:type
           rdf:resource="http://purl.org/dc/dcmitype/StillImage" />
        <dc:title></dc:title>
      </cc:Work>
    </rdf:RDF>
  </metadata>
  <g
     inkscape:label="Layer 1"
     inkscape:groupmode="layer"
     id="layer1">
    <path
       style="fill:none;stroke:#000000;stroke-width:0.26458332px;stroke-linecap:butt;stroke-linejoin:miter;stroke-opacity:1"
       d="M 40.065475,18.809515 38.553572,164.70832 v 102.80953 l 8.315476,9.82737 h 77.863092 l 34.01786,-4.5357 21.92262,-51.40477 v -38.55357 l -6.80357,-43.08929 c 0,0 -11.33929,-17.3869 -14.3631,-18.14285 -3.02381,-0.75595 -38.55357,-0.75595 -38.55357,-0.75595 l -27.970239,9.07142 c 0,0 -27.214284,13.60715 -28.72619,9.82738 -1.511903,-3.77976 -0.755952,-32.50595 -0.755952,-32.50595 V 52.07142 l 3.023809,-32.505952 -7.559524,-6.803572 z"
       id="path2510"
       inkscape:connector-curvature="0" />
    <path
       style="fill:none;stroke:#000000;stroke-width:0.26458332px;stroke-linecap:butt;stroke-linejoin:miter;stroke-opacity:1"
       d="m 67.27976,168.48809 v 33.2619 39.30952 c 0,0 -3.779761,9.07143 1.511906,10.58334 5.291666,1.5119 29.482142,0.75595 29.482142,0.75595 l 33.261902,2.26785 15.11905,-15.875 4.53571,-23.43452 -0.75595,-51.40476 -8.31547,-13.60714 -14.3631,-0.75595 h -13.60714 z"
       id="path2512"
       inkscape:connector-curvature="0" />
    <path
       style="fill:none;fill-opacity:1;stroke:none;stroke-width:0.26499999;stroke-miterlimit:4;stroke-dasharray:none;stroke-opacity:1"
       d="m 83.910713,179.82738 h 43.845237 v 56.69643 H 83.910713 Z"
       id="rect2514" />
  </g>
</svg>
