<?xml version="1.0" encoding="UTF-8" standalone="no"?>
<!-- Created with Inkscape (http://www.inkscape.org/) -->

<svg
   xmlns:dc="http://purl.org/dc/elements/1.1/"
   xmlns:cc="http://creativecommons.org/ns#"
   xmlns:rdf="http://www.w3.org/1999/02/22-rdf-syntax-ns#"
   xmlns:svg="http://www.w3.org/2000/svg"
   xmlns="http://www.w3.org/2000/svg"
   xmlns:sodipodi="http://sodipodi.sourceforge.net/DTD/sodipodi-0.dtd"
   xmlns:inkscape="http://www.inkscape.org/namespaces/inkscape"
   width="210mm"
   height="297mm"
   viewBox="0 0 210 297"
   version="1.1"
   id="svg2407"
   inkscape:version="0.92.4 (unknown)"
   sodipodi:docname="caballosinh.svg">
  <defs
     id="defs2401" />
  <sodipodi:namedview
     id="base"
     pagecolor="#ffffff"
     bordercolor="#666666"
     borderopacity="1.0"
     inkscape:pageopacity="0.0"
     inkscape:pageshadow="2"
     inkscape:zoom="0.35"
     inkscape:cx="400"
     inkscape:cy="560"
     inkscape:document-units="mm"
     inkscape:current-layer="layer1"
     showgrid="false"
     inkscape:window-width="1301"
     inkscape:window-height="744"
     inkscape:window-x="65"
     inkscape:window-y="24"
     inkscape:window-maximized="1" />
  <metadata
     id="metadata2404">
    <rdf:RDF>
      <cc:Work
         rdf:about="">
        <dc:format>image/svg+xml</dc:format>
        <dc:type
           rdf:resource="http://purl.org/dc/dcmitype/StillImage" />
        <dc:title></dc:title>
      </cc:Work>
    </rdf:RDF>
  </metadata>
  <g
     inkscape:label="Layer 1"
     inkscape:groupmode="layer"
     id="layer1">
    <path
       style="fill:none;stroke:#000000;stroke-width:0.26458332px;stroke-linecap:butt;stroke-linejoin:miter;stroke-opacity:1"
       d="m 28.72619,123.13094 13.607143,-7.55952 h 24.190475 22.678573 12.851189 l 21.92262,-6.80357 20.41071,-21.16667 11.33929,-12.85119 V 63.410705 l 4.53571,9.827382 7.55953,-6.047621 -2.26786,12.85119 20.41071,21.922624 -1.5119,11.33928 -8.31548,3.02381 -7.55952,-9.07143 -13.60714,-0.75595 -0.75596,-5.29167 -9.07142,45.35714 8.31547,24.94643 -4.53571,13.60715 2.26785,44.60119 7.55953,5.29166 -14.3631,5.29167 -3.02381,-5.29167 -2.26785,-43.08928 -3.02381,-6.80357 -2.26786,0.75595 v 52.16071 l -11.33929,4.53572 -2.26785,-6.04762 4.53571,-6.04762 v -45.35714 l -18.14286,-18.14286 -21.922614,5.29167 -20.410715,-1.51191 -4.535713,-3.02381 -9.827381,18.14286 -4.535715,10.58333 -0.755952,9.07143 15.119048,26.45833 3.02381,6.80357 -12.851191,2.26786 -1.511906,-9.82738 -18.898809,-35.52976 12.851191,-28.72619 -6.803573,-34.01786 h -4.535712 l -2.267858,45.35714 -8.315476,9.07143 -6.803571,-3.0238 -1.511905,-11.33929 z"
       id="path2409"
       inkscape:connector-curvature="0" />
    <path
       style="fill:none;stroke:#000000;stroke-width:0.26458332px;stroke-linecap:butt;stroke-linejoin:miter;stroke-opacity:1"
       d="m 83.910714,235.76785 -2.267858,-18.89881 -5.291666,-9.82739 -3.779763,-19.65476 -2.267855,-2.26785 -3.779764,2.26785 -2.267857,5.29167 7.559524,23.43452 5.291667,12.8512 z"
       id="path2411"
       inkscape:connector-curvature="0" />
  </g>
</svg>
