<?xml version="1.0" encoding="UTF-8" standalone="no"?>
<!-- Created with Inkscape (http://www.inkscape.org/) -->

<svg
   xmlns:dc="http://purl.org/dc/elements/1.1/"
   xmlns:cc="http://creativecommons.org/ns#"
   xmlns:rdf="http://www.w3.org/1999/02/22-rdf-syntax-ns#"
   xmlns:svg="http://www.w3.org/2000/svg"
   xmlns="http://www.w3.org/2000/svg"
   xmlns:sodipodi="http://sodipodi.sourceforge.net/DTD/sodipodi-0.dtd"
   xmlns:inkscape="http://www.inkscape.org/namespaces/inkscape"
   width="210mm"
   height="297mm"
   viewBox="0 0 210 297"
   version="1.1"
   id="svg1419"
   inkscape:version="0.92.4 (unknown)"
   sodipodi:docname="casa2h.svg">
  <defs
     id="defs1413" />
  <sodipodi:namedview
     id="base"
     pagecolor="#ffffff"
     bordercolor="#666666"
     borderopacity="1.0"
     inkscape:pageopacity="0.0"
     inkscape:pageshadow="2"
     inkscape:zoom="0.35"
     inkscape:cx="171.42857"
     inkscape:cy="674.28571"
     inkscape:document-units="mm"
     inkscape:current-layer="layer1"
     showgrid="false"
     inkscape:window-width="1301"
     inkscape:window-height="744"
     inkscape:window-x="65"
     inkscape:window-y="24"
     inkscape:window-maximized="1" />
  <metadata
     id="metadata1416">
    <rdf:RDF>
      <cc:Work
         rdf:about="">
        <dc:format>image/svg+xml</dc:format>
        <dc:type
           rdf:resource="http://purl.org/dc/dcmitype/StillImage" />
        <dc:title></dc:title>
      </cc:Work>
    </rdf:RDF>
  </metadata>
  <g
     inkscape:label="Layer 1"
     inkscape:groupmode="layer"
     id="layer1">
    <path
       style="fill:none;stroke:#000000;stroke-width:0.26458332px;stroke-linecap:butt;stroke-linejoin:miter;stroke-opacity:1"
       d="m 99.02976,33.172611 c 0,0 81.64286,82.398809 81.64286,92.226189 0,9.82738 -21.92262,1.5119 -23.43453,9.82738 -1.5119,8.31548 2.26786,77.10714 -1.5119,104.32143 -3.77976,27.21427 12.09524,27.97024 -14.3631,27.21427 -26.45833,-0.75594 -19.65476,-0.75594 -44.601185,0 -24.94643,0.75597 -72.571429,9.82739 -76.351191,0.75597 -3.779762,-9.07143 2.267857,-74.08334 2.267857,-83.15476 0,-9.07143 3.02381,-41.57739 3.02381,-46.86905 0,-5.29167 -12.095238,-1.51191 -12.095238,-5.29167 0,-3.77976 21.166666,-32.50595 25.702381,-42.333332 C 43.845239,80.041656 99.02976,33.172611 99.02976,33.172611 Z"
       id="path1421"
       inkscape:connector-curvature="0" />
    <path
       style="fill:none;stroke:#000000;stroke-width:0.26458332px;stroke-linecap:butt;stroke-linejoin:miter;stroke-opacity:1"
       d="m 65.767857,89.869038 c 0.755951,33.261902 -9.07143,44.601192 0,44.601192 9.071427,0 48.380953,1.5119 52.160713,0 3.77976,-1.51191 6.80357,-39.309525 1.5119,-41.577383 -5.29166,-2.267857 -53.672613,-3.023809 -53.672613,-3.023809 z"
       id="path1423"
       inkscape:connector-curvature="0" />
    <path
       style="fill:none;stroke:#000000;stroke-width:0.26458332px;stroke-linecap:butt;stroke-linejoin:miter;stroke-opacity:1"
       d="m 63.499999,193.43451 c 3.023809,69.54762 2.267858,43.84524 2.267858,54.42857 0,10.58334 -15.119048,10.58334 6.80357,10.58334 21.92262,0 45.357143,6.80358 49.892853,-0.75596 4.53572,-7.55952 1.51191,-34.77381 0.75596,-49.89285 -0.75596,-15.11905 -13.60715,-18.14286 -21.92262,-18.14286 -8.315479,0 -37.797621,3.77976 -37.797621,3.77976 z"
       id="path1425"
       inkscape:connector-curvature="0" />
    <path
       style="fill:none;fill-opacity:1;stroke:none;stroke-width:0.26499999;stroke-miterlimit:4;stroke-dasharray:none;stroke-opacity:1"
       d="M 76.351189,102.72023 H 112.6369 v 25.70238 H 76.351189 Z"
       id="rect1427" />
    <path
       style="fill:none;fill-opacity:1;stroke:none;stroke-width:0.26499999;stroke-miterlimit:4;stroke-dasharray:none;stroke-opacity:1"
       d="M 74.839287,206.28571 H 112.6369 V 255.4226 H 74.839287 Z"
       id="rect1432" />
  </g>
</svg>
