<?xml version="1.0" encoding="UTF-8" standalone="no"?>
<!-- Created with Inkscape (http://www.inkscape.org/) -->

<svg
   xmlns:dc="http://purl.org/dc/elements/1.1/"
   xmlns:cc="http://creativecommons.org/ns#"
   xmlns:rdf="http://www.w3.org/1999/02/22-rdf-syntax-ns#"
   xmlns:svg="http://www.w3.org/2000/svg"
   xmlns="http://www.w3.org/2000/svg"
   xmlns:sodipodi="http://sodipodi.sourceforge.net/DTD/sodipodi-0.dtd"
   xmlns:inkscape="http://www.inkscape.org/namespaces/inkscape"
   width="210mm"
   height="297mm"
   viewBox="0 0 210 297"
   version="1.1"
   id="svg8"
   inkscape:version="0.92.4 (unknown)"
   sodipodi:docname="Ccon1hIzq.svg">
  <defs
     id="defs2" />
  <sodipodi:namedview
     id="base"
     pagecolor="#ffffff"
     bordercolor="#666666"
     borderopacity="1.0"
     inkscape:pageopacity="0.0"
     inkscape:pageshadow="2"
     inkscape:zoom="0.35"
     inkscape:cx="-30"
     inkscape:cy="445.71429"
     inkscape:document-units="mm"
     inkscape:current-layer="layer1"
     showgrid="false"
     inkscape:window-width="1301"
     inkscape:window-height="744"
     inkscape:window-x="65"
     inkscape:window-y="24"
     inkscape:window-maximized="1" />
  <metadata
     id="metadata5">
    <rdf:RDF>
      <cc:Work
         rdf:about="">
        <dc:format>image/svg+xml</dc:format>
        <dc:type
           rdf:resource="http://purl.org/dc/dcmitype/StillImage" />
        <dc:title></dc:title>
      </cc:Work>
    </rdf:RDF>
  </metadata>
  <g
     inkscape:label="Layer 1"
     inkscape:groupmode="layer"
     id="layer1">
    <path
       style="fill:none;stroke:#000000;stroke-width:0.26458332px;stroke-linecap:butt;stroke-linejoin:miter;stroke-opacity:1;fill-opacity:1"
       d="m 41.577381,77.773809 c 0,0 -12.851191,-5.291666 6.80357,-17.386905 19.654763,-12.095237 3.023809,-18.142857 41.577381,-18.898809 38.553568,-0.755952 29.482138,-6.803573 52.160718,8.315476 22.67857,15.119048 33.2619,11.339284 37.79761,27.970238 4.53572,16.630952 0.75596,24.946431 4.53572,43.089281 3.77976,18.14286 4.53571,18.14286 2.26786,40.82143 -2.26786,22.67857 3.02381,21.92262 -9.82738,45.35715 -12.8512,23.43452 -15.875,19.65476 -36.28572,27.21428 -20.41071,7.55952 -28.72619,18.14286 -47.624999,12.09524 C 74.083332,240.30357 59.720238,245.59523 48.380951,229.72024 37.041666,213.84524 30.238094,205.52976 31.75,197.21428 c 1.511905,-8.31547 0,-14.36309 13.607142,-8.31547 13.607142,6.04762 43.845239,26.45833 43.845239,26.45833 0,0 34.017859,10.58333 50.648809,-13.60714 16.63095,-24.19048 19.65476,-25.70238 16.63095,-43.84524 -3.02381,-18.14286 3.02381,-29.48214 -3.02381,-47.625 -6.04762,-18.142857 2.26786,-32.505951 -18.89881,-32.505951 -21.16666,0 -40.821427,-6.04762 -44.601188,-0.755954 C 86.178571,82.309522 76.35119,94.404761 65.767857,95.916667 55.184523,97.42857 36.285715,94.404761 35.52976,91.380952 34.773809,88.357143 41.577381,77.773809 41.577381,77.773809 Z"
       id="path815"
       inkscape:connector-curvature="0" />
    <path
       style="fill:none;fill-opacity:1;stroke:none;stroke-width:0.26499999;stroke-miterlimit:4;stroke-dasharray:none;stroke-opacity:1"
       d="M 15.119047,100.45238 H 142.11905 v 79.375 H 15.119047 Z"
       id="rect817" />
  </g>
</svg>
