<?xml version="1.0" encoding="UTF-8" standalone="no"?>
<!-- Created with Inkscape (http://www.inkscape.org/) -->

<svg
   xmlns:dc="http://purl.org/dc/elements/1.1/"
   xmlns:cc="http://creativecommons.org/ns#"
   xmlns:rdf="http://www.w3.org/1999/02/22-rdf-syntax-ns#"
   xmlns:svg="http://www.w3.org/2000/svg"
   xmlns="http://www.w3.org/2000/svg"
   xmlns:sodipodi="http://sodipodi.sourceforge.net/DTD/sodipodi-0.dtd"
   xmlns:inkscape="http://www.inkscape.org/namespaces/inkscape"
   width="210mm"
   height="297mm"
   viewBox="0 0 210 297"
   version="1.1"
   id="svg8"
   inkscape:version="0.92.4 (unknown)"
   sodipodi:docname="cigarro.svg">
  <defs
     id="defs2" />
  <sodipodi:namedview
     id="base"
     pagecolor="#ffffff"
     bordercolor="#666666"
     borderopacity="1.0"
     inkscape:pageopacity="0.0"
     inkscape:pageshadow="2"
     inkscape:zoom="0.35"
     inkscape:cx="-30"
     inkscape:cy="560"
     inkscape:document-units="mm"
     inkscape:current-layer="layer1"
     showgrid="false"
     inkscape:window-width="1101"
     inkscape:window-height="378"
     inkscape:window-x="157"
     inkscape:window-y="99"
     inkscape:window-maximized="0" />
  <metadata
     id="metadata5">
    <rdf:RDF>
      <cc:Work
         rdf:about="">
        <dc:format>image/svg+xml</dc:format>
        <dc:type
           rdf:resource="http://purl.org/dc/dcmitype/StillImage" />
        <dc:title></dc:title>
      </cc:Work>
    </rdf:RDF>
  </metadata>
  <g
     inkscape:label="Layer 1"
     inkscape:groupmode="layer"
     id="layer1">
    <path
       style="fill:none;stroke:#000000;stroke-width:0.26458332px;stroke-linecap:butt;stroke-linejoin:miter;stroke-opacity:1"
       d="m 52.916666,101.20833 60.476194,10.58334 c 0,0 10.58333,6.04761 10.58333,12.09523 0,6.04762 -8.31548,16.63095 -14.3631,12.85119 -6.04762,-3.77976 -37.797615,-16.63095 -41.577376,-16.63095 -3.779763,0 -23.434524,-12.09524 -23.434524,-12.09524 z"
       id="path815"
       inkscape:connector-curvature="0" />
    <path
       style="fill:none;stroke:#000000;stroke-width:0.26458332px;stroke-linecap:butt;stroke-linejoin:miter;stroke-opacity:1"
       d="m 117.92857,80.797619 c 3.02381,9.827381 -6.80357,6.047618 2.26786,9.071427 9.07143,3.023809 13.60714,1.511906 13.60714,-4.535712 0,-6.047621 -0.75595,-11.339288 -5.29167,-12.09524 -4.53571,-0.755951 -10.58333,7.559525 -10.58333,7.559525 z"
       id="path817"
       inkscape:connector-curvature="0" />
    <path
       style="fill:none;stroke:#000000;stroke-width:0.26458332px;stroke-linecap:butt;stroke-linejoin:miter;stroke-opacity:1"
       d="m 121.70833,47.535713 c 0,0 -5.29166,6.803573 -3.77976,11.339288 1.5119,4.535712 2.26786,4.535712 8.31548,4.535712 6.04761,0 15.875,-4.535712 11.33928,-12.851191 -4.53571,-8.315475 -15.875,-3.023809 -15.875,-3.023809 z"
       id="path819"
       inkscape:connector-curvature="0" />
    <path
       style="fill:none;stroke:#000000;stroke-width:0.26458332px;stroke-linecap:butt;stroke-linejoin:miter;stroke-opacity:1"
       d="m 120.95238,16.541666 c 0,6.047619 -0.75595,13.607144 6.04762,13.607144 6.80357,0 11.33928,-1.511906 11.33928,-9.827382 0,-8.315476 -0.75595,-11.3392854 -6.04762,-11.3392854 -5.29166,0 -11.33928,7.5595234 -11.33928,7.5595234 z"
       id="path821"
       inkscape:connector-curvature="0" />
    <path
       style="fill:none;stroke:#000000;stroke-width:0.26458332px;stroke-linecap:butt;stroke-linejoin:miter;stroke-opacity:1"
       d="m 130.77976,121.61905 c 0,12.85119 -11.33929,23.43452 -11.33929,23.43452 0,0 2.26786,4.53571 6.04762,2.26786 3.77977,-2.26786 6.04762,-3.02381 9.82738,-12.09524 3.77977,-9.07143 3.77977,-6.04762 3.77977,-10.58334 0,-4.53571 -8.31548,-3.0238 -8.31548,-3.0238 z"
       id="path823"
       inkscape:connector-curvature="0" />
  </g>
</svg>
