<?xml version="1.0" encoding="UTF-8" standalone="no"?>
<!-- Created with Inkscape (http://www.inkscape.org/) -->

<svg
   xmlns:dc="http://purl.org/dc/elements/1.1/"
   xmlns:cc="http://creativecommons.org/ns#"
   xmlns:rdf="http://www.w3.org/1999/02/22-rdf-syntax-ns#"
   xmlns:svg="http://www.w3.org/2000/svg"
   xmlns="http://www.w3.org/2000/svg"
   xmlns:sodipodi="http://sodipodi.sourceforge.net/DTD/sodipodi-0.dtd"
   xmlns:inkscape="http://www.inkscape.org/namespaces/inkscape"
   width="210mm"
   height="297mm"
   viewBox="0 0 210 297"
   version="1.1"
   id="svg1739"
   inkscape:version="0.92.4 (unknown)"
   sodipodi:docname="copa0h.svg">
  <defs
     id="defs1733" />
  <sodipodi:namedview
     id="base"
     pagecolor="#ffffff"
     bordercolor="#666666"
     borderopacity="1.0"
     inkscape:pageopacity="0.0"
     inkscape:pageshadow="2"
     inkscape:zoom="0.35"
     inkscape:cx="400"
     inkscape:cy="560"
     inkscape:document-units="mm"
     inkscape:current-layer="layer1"
     showgrid="false"
     inkscape:window-width="1301"
     inkscape:window-height="744"
     inkscape:window-x="65"
     inkscape:window-y="24"
     inkscape:window-maximized="1" />
  <metadata
     id="metadata1736">
    <rdf:RDF>
      <cc:Work
         rdf:about="">
        <dc:format>image/svg+xml</dc:format>
        <dc:type
           rdf:resource="http://purl.org/dc/dcmitype/StillImage" />
        <dc:title></dc:title>
      </cc:Work>
    </rdf:RDF>
  </metadata>
  <g
     inkscape:label="Layer 1"
     inkscape:groupmode="layer"
     id="layer1">
    <path
       style="fill:none;stroke:#000000;stroke-width:0.26458332px;stroke-linecap:butt;stroke-linejoin:miter;stroke-opacity:1"
       d="m 39.309524,81.553562 32.505951,40.821428 6.047618,14.3631 -0.755951,35.52976 v 38.55357 12.85119 l 3.023809,3.77976 h 7.559524 l 6.047618,-6.80357 1.511906,-30.99405 1.511906,-51.40476 c 0,0 4.535715,-3.77976 4.535715,-8.31548 0,-4.53571 44.60119,-43.845233 44.60119,-43.845233 L 127,73.238087 80.130951,69.458323 Z"
       id="path1741"
       inkscape:connector-curvature="0" />
    <path
       style="fill:none;stroke:#000000;stroke-width:0.26458332px;stroke-linecap:butt;stroke-linejoin:miter;stroke-opacity:1"
       d="m 55.184523,86.845229 c 0,0 11.339285,9.827381 21.922619,9.827381 10.583333,0 3.023809,5.29167 23.434528,1.511904 20.41071,-3.779761 29.48214,-9.827382 29.48214,-9.827382"
       id="path1743"
       inkscape:connector-curvature="0" />
    <path
       style="fill:none;stroke:#000000;stroke-width:0.26458332px;stroke-linecap:butt;stroke-linejoin:miter;stroke-opacity:1"
       d="m 59.720238,204.01785 -24.946429,4.53571 -6.80357,15.11905 6.047618,12.09524 27.214285,12.09523 c 0,0 30.994048,1.51191 34.017857,1.51191 3.023809,0 37.797621,-9.82738 37.797621,-9.82738 l 12.85119,-18.14286 -11.33929,-15.875 -24.94643,-3.77976 -7.55952,-1.51191"
       id="path1745"
       inkscape:connector-curvature="0" />
  </g>
</svg>
