<?xml version="1.0" encoding="UTF-8" standalone="no"?>
<!-- Created with Inkscape (http://www.inkscape.org/) -->

<svg
   xmlns:dc="http://purl.org/dc/elements/1.1/"
   xmlns:cc="http://creativecommons.org/ns#"
   xmlns:rdf="http://www.w3.org/1999/02/22-rdf-syntax-ns#"
   xmlns:svg="http://www.w3.org/2000/svg"
   xmlns="http://www.w3.org/2000/svg"
   xmlns:sodipodi="http://sodipodi.sourceforge.net/DTD/sodipodi-0.dtd"
   xmlns:inkscape="http://www.inkscape.org/namespaces/inkscape"
   width="210mm"
   height="297mm"
   viewBox="0 0 210 297"
   version="1.1"
   id="svg850"
   sodipodi:docname="cv19.svg"
   inkscape:version="0.92.4 (unknown)">
  <defs
     id="defs844" />
  <sodipodi:namedview
     id="base"
     pagecolor="#ffffff"
     bordercolor="#666666"
     borderopacity="1.0"
     inkscape:pageopacity="0.0"
     inkscape:pageshadow="2"
     inkscape:zoom="0.35"
     inkscape:cx="171.42857"
     inkscape:cy="674.28571"
     inkscape:document-units="mm"
     inkscape:current-layer="layer1"
     showgrid="false"
     inkscape:window-width="1301"
     inkscape:window-height="744"
     inkscape:window-x="65"
     inkscape:window-y="24"
     inkscape:window-maximized="1" />
  <metadata
     id="metadata847">
    <rdf:RDF>
      <cc:Work
         rdf:about="">
        <dc:format>image/svg+xml</dc:format>
        <dc:type
           rdf:resource="http://purl.org/dc/dcmitype/StillImage" />
        <dc:title></dc:title>
      </cc:Work>
    </rdf:RDF>
  </metadata>
  <g
     inkscape:label="Layer 1"
     inkscape:groupmode="layer"
     id="layer1">
    <path
       style="fill:none;stroke:#000000;stroke-width:0.26458332px;stroke-linecap:butt;stroke-linejoin:miter;stroke-opacity:1"
       d="m 58.964284,118.59523 c 0,-3.02381 5.291667,-13.60714 9.07143,-15.875 3.779761,-2.26786 7.559524,-3.779765 17.386903,-3.779765 9.827382,0 14.363097,-7.559521 25.702383,1.511905 11.33928,9.07143 24.19047,6.04762 25.70238,17.38691 1.5119,11.33928 17.3869,27.21428 9.82738,37.79761 -7.55952,10.58334 -14.3631,27.21429 -21.92262,27.97024 -7.55952,0.75596 -18.14286,3.77976 -30.238093,2.26786 -12.095239,-1.5119 -11.339287,-1.5119 -19.654763,-7.55953 -8.315476,-6.04761 -18.142857,-9.07142 -20.410712,-16.63095 -2.267858,-7.55952 -6.803573,-18.89881 -6.803573,-22.67857 0,-3.77976 11.339285,-20.41071 11.339285,-20.41071 z"
       id="path852"
       inkscape:connector-curvature="0" />
    <path
       style="fill:none;stroke:#000000;stroke-width:0.26458332px;stroke-linecap:butt;stroke-linejoin:miter;stroke-opacity:1"
       d="m 76.35119,77.017847 c 8.315476,5.291667 4.535715,12.095239 13.607142,8.315476 9.071428,-3.779761 13.607138,-8.315476 9.071428,-9.827379 -4.535713,-1.511906 -3.779761,-3.023812 -9.071428,-3.023812 -5.291666,0 -13.607142,4.535715 -13.607142,4.535715 z"
       id="path854"
       inkscape:connector-curvature="0" />
    <path
       style="fill:none;stroke:#000000;stroke-width:0.26458332px;stroke-linecap:butt;stroke-linejoin:miter;stroke-opacity:1"
       d="m 54.428572,88.357132 c -8.315478,7.559524 -28.72619,6.047621 -12.095239,18.142858 16.630951,12.09524 15.875,-3.02381 15.875,-3.02381 z"
       id="path856"
       inkscape:connector-curvature="0" />
    <path
       style="fill:none;stroke:#000000;stroke-width:0.26458332px;stroke-linecap:butt;stroke-linejoin:miter;stroke-opacity:1"
       d="m 24.190476,128.42261 c 0,6.80357 -2.267857,9.82738 2.267857,14.36309 4.535715,4.53572 3.023809,9.07143 8.315476,4.53572 5.291666,-4.53572 8.315475,-9.07143 8.315475,-15.11905 0,-6.04762 -18.898808,-3.77976 -18.898808,-3.77976 z"
       id="path858"
       inkscape:connector-curvature="0" />
    <path
       style="fill:none;stroke:#000000;stroke-width:0.26458332px;stroke-linecap:butt;stroke-linejoin:miter;stroke-opacity:1"
       d="m 38.553572,170.75594 c 0,9.82738 -2.267857,11.33929 4.535712,15.11905 6.803573,3.77976 12.851191,5.29166 12.851191,-1.5119 0,-6.80358 -17.386903,-13.60715 -17.386903,-13.60715 z"
       id="path860"
       inkscape:connector-curvature="0" />
    <path
       style="fill:none;stroke:#000000;stroke-width:0.26458332px;stroke-linecap:butt;stroke-linejoin:miter;stroke-opacity:1"
       d="m 71.815475,196.45832 c 6.047618,9.07143 8.315476,25.70238 15.119048,18.89881 6.80357,-6.80357 14.363097,-3.77976 9.071427,-11.33928 -5.291666,-7.55953 -24.190475,-7.55953 -24.190475,-7.55953 z"
       id="path862"
       inkscape:connector-curvature="0" />
    <path
       style="fill:none;stroke:#000000;stroke-width:0.26458332px;stroke-linecap:butt;stroke-linejoin:miter;stroke-opacity:1"
       d="m 120.19643,196.45832 c 0.75595,8.31548 -6.04762,10.58333 6.80357,10.58333 12.85119,0 15.11905,0.75596 15.11905,-8.31547 0,-9.07143 -1.51191,-10.58333 -7.55953,-10.58333 -6.04762,0 -14.36309,8.31547 -14.36309,8.31547 z"
       id="path864"
       inkscape:connector-curvature="0" />
    <path
       style="fill:none;stroke:#000000;stroke-width:0.26458332px;stroke-linecap:butt;stroke-linejoin:miter;stroke-opacity:1"
       d="m 150.43452,166.22023 c 5.29167,11.33928 3.02381,17.3869 12.09524,12.85119 9.07143,-4.53572 21.16667,-15.11905 14.3631,-19.65476 -6.80358,-4.53572 -17.38691,-12.8512 -19.65477,-5.29167 -2.26785,7.55952 -6.80357,12.09524 -6.80357,12.09524 z"
       id="path866"
       inkscape:connector-curvature="0" />
    <path
       style="fill:none;stroke:#000000;stroke-width:0.26458332px;stroke-linecap:butt;stroke-linejoin:miter;stroke-opacity:1"
       d="m 148.16666,106.49999 c 0,6.80357 -9.07142,7.55952 0,14.3631 9.07143,6.80357 18.89881,16.63095 22.67858,10.58333 3.77976,-6.04762 11.33928,-15.11905 3.77976,-18.89881 -7.55953,-3.77976 -26.45834,-6.04762 -26.45834,-6.04762 z"
       id="path868"
       inkscape:connector-curvature="0" />
    <path
       style="fill:none;stroke:#000000;stroke-width:0.26458332px;stroke-linecap:butt;stroke-linejoin:miter;stroke-opacity:1"
       d="m 115.66071,80.797611 c 3.77976,11.339284 0,14.363094 9.07143,15.874999 9.07143,1.511904 21.92262,3.02381 21.92262,-6.803572 0,-9.827382 3.77976,-17.386906 -1.5119,-18.142857 -5.29167,-0.755952 -9.07143,-2.267858 -14.3631,-0.755952 -5.29167,1.511903 -15.11905,9.827382 -15.11905,9.827382 z"
       id="path870"
       inkscape:connector-curvature="0" />
    <path
       style="fill:none;stroke:#000000;stroke-width:0.26458332px;stroke-linecap:butt;stroke-linejoin:miter;stroke-opacity:1"
       d="m 83.910714,118.59523 c 0,9.07143 -3.779763,12.09523 5.291667,15.11905 9.071427,3.02381 14.363089,3.02381 14.363089,-3.77977 0,-6.80357 6.04762,-13.60714 -3.0238,-13.60714 -9.071432,0 -16.630956,2.26786 -16.630956,2.26786 z"
       id="path872"
       inkscape:connector-curvature="0" />
    <path
       style="fill:none;stroke:#000000;stroke-width:0.26458332px;stroke-linecap:butt;stroke-linejoin:miter;stroke-opacity:1"
       d="m 63.499999,147.32142 c 1.511906,7.55952 -3.023809,9.82738 5.291667,13.60714 8.315476,3.77976 15.119048,7.55953 15.875,-3.02381 0.755951,-10.58333 -1.511906,-15.875 -4.535715,-15.875 -3.023809,0 -16.630952,5.29167 -16.630952,5.29167 z"
       id="path874"
       inkscape:connector-curvature="0" />
    <path
       style="fill:none;stroke:#000000;stroke-width:0.26458332px;stroke-linecap:butt;stroke-linejoin:miter;stroke-opacity:1"
       d="m 68.035714,30.148799 -12.851191,-5.291665 -9.827381,7.559523 c 0,0 -3.023809,11.339287 -3.023809,15.119048 0,3.779761 7.559524,12.095239 7.559524,12.095239 h 9.071427 12.095239 V 52.827372 L 56.696427,52.07142 52.160714,46.023799 51.40476,39.220229 h 7.559524 c 0,0 10.583333,0 10.583333,-3.779763 0,-3.779761 -1.511903,-5.291667 -1.511903,-5.291667 z"
       id="path912"
       inkscape:connector-curvature="0" />
    <path
       style="fill:none;stroke:#000000;stroke-width:0.26458332px;stroke-linecap:butt;stroke-linejoin:miter;stroke-opacity:1"
       d="m 84.666666,30.148799 4.535715,14.363097 c 0,0 2.267857,14.363094 7.559524,15.875 5.291665,1.511903 11.339285,-7.559524 11.339285,-7.559524 l 9.82738,-21.166667 c 0,0 -4.53571,-4.535715 -8.31548,-2.267857 -3.77976,2.267857 -6.80357,21.922618 -10.58333,18.142857 -3.779761,-3.779761 -5.291667,-18.898809 -5.291667,-18.898809 z"
       id="path914"
       inkscape:connector-curvature="0" />
    <path
       style="fill:none;stroke:#000000;stroke-width:0.26458332px;stroke-linecap:butt;stroke-linejoin:miter;stroke-opacity:1"
       d="m 135.31547,28.636896 7.55953,-3.023809 c 0,0 5.29166,-0.755953 5.29166,4.535712 0,5.291667 3.02381,27.214288 0,28.726191 -3.0238,1.511906 -7.55952,3.023809 -7.55952,0 0,-3.023809 0,-8.315476 -0.75595,-15.119046 -0.75595,-6.803572 -4.53572,-15.119048 -4.53572,-15.119048 z"
       id="path916"
       inkscape:connector-curvature="0" />
    <path
       style="fill:none;stroke:#000000;stroke-width:0.26458332px;stroke-linecap:butt;stroke-linejoin:miter;stroke-opacity:1"
       d="m 167.82143,32.416657 c 4.53571,9.07143 5.29166,14.363097 9.07143,9.827382 3.77976,-4.535715 7.55952,-11.339285 3.0238,-11.339285 -4.53571,0 -12.09523,1.511903 -12.09523,1.511903 z"
       id="path920"
       inkscape:connector-curvature="0" />
    <path
       style="fill:none;stroke:#000000;stroke-width:0.26458332px;stroke-linecap:butt;stroke-linejoin:miter;stroke-opacity:1"
       d="m 157.99405,19.565468 c 0,0 -5.29167,28.726189 0,28.726189 5.29166,0 8.31547,5.291666 12.09523,6.047621 3.77977,0.755951 3.77977,-10.583334 3.77977,6.803569 0,17.386906 5.29166,21.166667 6.04761,14.363097 0.75596,-6.803572 4.53572,-14.363097 6.04762,-24.190478 1.51191,-9.827379 5.29167,-18.898809 3.77977,-24.946427 -1.51191,-6.047619 -31.75,-6.803571 -31.75,-6.803571 z"
       id="path922"
       inkscape:connector-curvature="0" />
    <path
       style="fill:none;stroke:#000000;stroke-width:0.26458332px;stroke-linecap:butt;stroke-linejoin:miter;stroke-opacity:1"
       d="m 103.56547,151.10118 c 0,0 -4.53571,14.3631 0,15.11905 4.53572,0.75595 15.11905,1.5119 15.11905,1.5119 l 9.82738,-13.60714 -6.04762,-7.55953 z"
       id="path943"
       inkscape:connector-curvature="0" />
  </g>
</svg>
