<?xml version="1.0" encoding="UTF-8" standalone="no"?>
<!-- Created with Inkscape (http://www.inkscape.org/) -->

<svg
   xmlns:dc="http://purl.org/dc/elements/1.1/"
   xmlns:cc="http://creativecommons.org/ns#"
   xmlns:rdf="http://www.w3.org/1999/02/22-rdf-syntax-ns#"
   xmlns:svg="http://www.w3.org/2000/svg"
   xmlns="http://www.w3.org/2000/svg"
   xmlns:sodipodi="http://sodipodi.sourceforge.net/DTD/sodipodi-0.dtd"
   xmlns:inkscape="http://www.inkscape.org/namespaces/inkscape"
   width="210mm"
   height="297mm"
   viewBox="0 0 210 297"
   version="1.1"
   id="svg8"
   inkscape:version="0.92.4 (unknown)"
   sodipodi:docname="dos.svg">
  <defs
     id="defs2" />
  <sodipodi:namedview
     id="base"
     pagecolor="#ffffff"
     bordercolor="#666666"
     borderopacity="1.0"
     inkscape:pageopacity="0.0"
     inkscape:pageshadow="2"
     inkscape:zoom="0.35"
     inkscape:cx="-30"
     inkscape:cy="560"
     inkscape:document-units="mm"
     inkscape:current-layer="layer1"
     showgrid="false"
     inkscape:window-width="1146"
     inkscape:window-height="716"
     inkscape:window-x="95"
     inkscape:window-y="24"
     inkscape:window-maximized="0" />
  <metadata
     id="metadata5">
    <rdf:RDF>
      <cc:Work
         rdf:about="">
        <dc:format>image/svg+xml</dc:format>
        <dc:type
           rdf:resource="http://purl.org/dc/dcmitype/StillImage" />
        <dc:title></dc:title>
      </cc:Work>
    </rdf:RDF>
  </metadata>
  <g
     inkscape:label="Layer 1"
     inkscape:groupmode="layer"
     id="layer1">
    <path
       style="fill:none;stroke:#000000;stroke-width:0.26458332px;stroke-linecap:butt;stroke-linejoin:miter;stroke-opacity:1"
       d="M 49.136905,114.05952 C 41.577381,106.5 38.553572,116.32738 40.065475,101.20833 41.577381,86.089285 34.017857,81.55357 46.869048,70.214285 59.720238,58.875001 61.988093,54.339286 77.863093,55.851189 c 15.875,1.511906 28.726187,-9.071428 43.089287,8.315478 14.36309,17.386903 33.2619,21.922618 34.77381,42.333333 1.5119,20.41071 12.09524,24.19048 0,44.60119 -12.09524,20.41071 3.77976,6.04762 -14.3631,24.19048 -18.14285,18.14285 -21.92262,18.8988 -37.04166,30.23809 -15.119049,11.33928 -21.922622,8.31548 -27.214288,19.65476 -5.291667,11.33929 -12.095237,19.65476 -1.511904,19.65476 10.583333,0 43.089282,0.75595 55.184522,-0.75595 12.09524,-1.5119 24.19048,-6.80357 31.75,-1.5119 7.55952,5.29166 7.55952,15.11904 7.55952,21.92261 0,6.80357 -0.75595,15.87499 -11.33928,15.11905 -10.58334,-0.75594 -68.035716,-0.75594 -77.107144,-0.75594 -9.071429,0 -21.166666,2.26785 -31.749999,2.26785 -10.583333,0 -10.583333,0 -14.363097,-6.04763 -3.77976,-6.04761 -6.047618,-12.85118 -6.047618,-28.72618 0,-15.875 1.511906,-22.67857 8.315476,-29.48215 6.803572,-6.80357 22.678572,-28.72619 43.089287,-38.55357 20.410715,-9.82738 27.214285,-12.09523 30.238095,-27.21428 3.02381,-15.11905 14.36309,-16.63095 6.80357,-31.75 C 110.36905,104.23214 112.6369,98.940476 99.785714,95.916667 86.934523,92.892855 89.958332,83.821428 81.642856,92.892855 c -8.315475,9.071425 -8.315475,3.779763 -8.315475,17.386905 0,13.60714 -24.190476,3.77976 -24.190476,3.77976 z"
       id="path815"
       inkscape:connector-curvature="0" />
    <rect
       style="fill:none;fill-opacity:1;stroke:none;stroke-width:0.26499999;stroke-miterlimit:4;stroke-dasharray:none;stroke-opacity:1"
       id="rect821"
       width="73.327377"
       height="41.577381"
       x="21.166666"
       y="123.8869" />
    <rect
       style="fill:none;fill-opacity:1;stroke:none;stroke-width:0.26499999;stroke-miterlimit:4;stroke-dasharray:none;stroke-opacity:1"
       id="rect825"
       width="167.82143"
       height="241.90477"
       x="15.119049"
       y="45.267857" />
  </g>
</svg>
