<?xml version="1.0" encoding="UTF-8" standalone="no"?>
<!-- Created with Inkscape (http://www.inkscape.org/) -->

<svg
   xmlns:dc="http://purl.org/dc/elements/1.1/"
   xmlns:cc="http://creativecommons.org/ns#"
   xmlns:rdf="http://www.w3.org/1999/02/22-rdf-syntax-ns#"
   xmlns:svg="http://www.w3.org/2000/svg"
   xmlns="http://www.w3.org/2000/svg"
   xmlns:sodipodi="http://sodipodi.sourceforge.net/DTD/sodipodi-0.dtd"
   xmlns:inkscape="http://www.inkscape.org/namespaces/inkscape"
   width="210mm"
   height="297mm"
   viewBox="0 0 210 297"
   version="1.1"
   id="svg4446"
   inkscape:version="0.92.4 (unknown)"
   sodipodi:docname="drawing-14.svg">
  <defs
     id="defs4440" />
  <sodipodi:namedview
     id="base"
     pagecolor="#ffffff"
     bordercolor="#666666"
     borderopacity="1.0"
     inkscape:pageopacity="0.0"
     inkscape:pageshadow="2"
     inkscape:zoom="0.35"
     inkscape:cx="-144.28571"
     inkscape:cy="560"
     inkscape:document-units="mm"
     inkscape:current-layer="layer1"
     showgrid="false"
     inkscape:window-width="1301"
     inkscape:window-height="744"
     inkscape:window-x="65"
     inkscape:window-y="24"
     inkscape:window-maximized="1" />
  <metadata
     id="metadata4443">
    <rdf:RDF>
      <cc:Work
         rdf:about="">
        <dc:format>image/svg+xml</dc:format>
        <dc:type
           rdf:resource="http://purl.org/dc/dcmitype/StillImage" />
        <dc:title></dc:title>
      </cc:Work>
    </rdf:RDF>
  </metadata>
  <g
     inkscape:label="Layer 1"
     inkscape:groupmode="layer"
     id="layer1">
    <path
       style="fill:none;stroke:#000000;stroke-width:0.26458332px;stroke-linecap:butt;stroke-linejoin:miter;stroke-opacity:1"
       d="m 49.892857,111.79167 c 0,0 7.559524,3.02381 10.583333,12.09523 3.023809,9.07143 17.386903,7.55953 9.827382,30.99405 -7.559524,23.43452 -25.702382,36.28572 -27.214288,46.86905 -1.511903,10.58333 -3.023809,10.58333 -3.023809,22.67857 0,12.09524 -4.535715,12.85119 4.535715,24.94643 9.071428,12.09523 -0.755951,21.92261 25.702382,24.94643 26.458333,3.02381 36.285708,4.53572 53.672618,3.02381 17.3869,-1.51191 23.43452,18.14285 36.28571,-8.31548 12.85119,-26.45833 16.63096,-33.26191 16.63096,-49.89286 0,-16.63095 -5.29167,-21.92262 -12.8512,-31.75 -7.55952,-9.82738 -21.92261,-9.07143 -27.21428,-19.65476 -5.29167,-10.58333 -10.58333,-4.53571 -11.33929,-17.3869 -0.75595,-12.85119 -8.31547,-1.51191 7.55953,-24.19048 15.875,-22.67857 -1.51191,-22.67857 -4.53572,-24.19048 -3.02381,-1.5119 -26.45833,-1.5119 -26.45833,-1.5119 0,0 -45.357143,-2.267858 -49.136904,0 -3.779761,2.26786 -3.023809,11.33929 -3.023809,11.33929 z"
       id="path4991"
       inkscape:connector-curvature="0" />
    <path
       style="fill:none;stroke:#000000;stroke-width:0.26458332px;stroke-linecap:butt;stroke-linejoin:miter;stroke-opacity:1"
       d="m 84.666666,92.136903 c 0,0 6.803572,-9.827381 -0.755952,-21.922618 C 76.35119,58.119046 62.744048,72.482143 58.208333,64.922619 53.672618,57.363095 56.696427,51.315476 56.696427,51.315476 c 0,0 8.315478,3.02381 6.803572,-2.267857 -1.511906,-5.291667 -11.339285,0.755952 -10.583333,-9.07143 0.755952,-9.827379 9.827382,-9.827379 9.827382,-9.827379 0,0 15.119045,3.779761 14.363094,9.071427 -0.755952,5.291667 -4.535715,9.07143 2.267857,9.07143 6.803572,0 12.095239,-0.755954 6.803572,-9.827381 -5.291666,-9.07143 -5.291666,-18.142858 3.779761,-18.142858 9.071428,0 12.851188,6.803573 12.851188,11.339285 0,4.535715 -7.559521,1.511906 -6.047615,9.827382 1.511903,8.315476 8.315475,9.827381 18.142855,2.267857 9.82738,-7.559524 18.89881,-5.291666 20.41071,4.535715 1.51191,9.827379 2.26786,24.190476 -7.55952,17.386903 -9.82738,-6.803569 -19.65476,-17.386903 -21.16667,-9.827381 -1.5119,7.559524 0,4.535715 5.29167,12.095239 5.29167,7.559524 1.51191,26.458333 -3.77976,18.898809 -5.29167,-7.559524 -12.09524,-16.630952 -12.09524,-8.315476 0,8.315476 3.779764,17.386906 3.779764,17.386906 z"
       id="path4993"
       inkscape:connector-curvature="0" />
  </g>
</svg>
