<?xml version="1.0" encoding="UTF-8" standalone="no"?>
<!-- Created with Inkscape (http://www.inkscape.org/) -->

<svg
   xmlns:dc="http://purl.org/dc/elements/1.1/"
   xmlns:cc="http://creativecommons.org/ns#"
   xmlns:rdf="http://www.w3.org/1999/02/22-rdf-syntax-ns#"
   xmlns:svg="http://www.w3.org/2000/svg"
   xmlns="http://www.w3.org/2000/svg"
   xmlns:sodipodi="http://sodipodi.sourceforge.net/DTD/sodipodi-0.dtd"
   xmlns:inkscape="http://www.inkscape.org/namespaces/inkscape"
   width="210mm"
   height="297mm"
   viewBox="0 0 210 297"
   version="1.1"
   id="svg1460"
   inkscape:version="0.92.4 (unknown)"
   sodipodi:docname="drawing-6.svg">
  <defs
     id="defs1454" />
  <sodipodi:namedview
     id="base"
     pagecolor="#ffffff"
     bordercolor="#666666"
     borderopacity="1.0"
     inkscape:pageopacity="0.0"
     inkscape:pageshadow="2"
     inkscape:zoom="0.35"
     inkscape:cx="-30"
     inkscape:cy="560"
     inkscape:document-units="mm"
     inkscape:current-layer="layer1"
     showgrid="false"
     inkscape:window-width="1301"
     inkscape:window-height="744"
     inkscape:window-x="65"
     inkscape:window-y="24"
     inkscape:window-maximized="1" />
  <metadata
     id="metadata1457">
    <rdf:RDF>
      <cc:Work
         rdf:about="">
        <dc:format>image/svg+xml</dc:format>
        <dc:type
           rdf:resource="http://purl.org/dc/dcmitype/StillImage" />
        <dc:title></dc:title>
      </cc:Work>
    </rdf:RDF>
  </metadata>
  <g
     inkscape:label="Layer 1"
     inkscape:groupmode="layer"
     id="layer1">
    <path
       style="fill:none;stroke:#000000;stroke-width:0.26458332px;stroke-linecap:butt;stroke-linejoin:miter;stroke-opacity:1"
       d="m 87.690475,43.755952 c 0,0 -7.559524,-7.559524 -14.363094,2.267858 C 66.523808,55.851189 68.791666,74.75 68.791666,74.75 c 0,0 7.559524,13.607143 18.898809,12.095237 C 99.02976,85.333334 105.07738,86.089285 109.61309,71.726189 114.14881,57.363095 98.273808,42.244047 98.273808,42.244047 Z"
       id="path2005"
       inkscape:connector-curvature="0" />
    <path
       style="fill:none;stroke:#000000;stroke-width:0.26458332px;stroke-linecap:butt;stroke-linejoin:miter;stroke-opacity:1"
       d="m 75.595238,117.08333 c 0,0 -6.803572,-8.31548 7.559522,-11.33928 14.363096,-3.02381 24.94643,9.82738 24.94643,9.82738 0,0 2.26786,8.31547 8.31548,37.04166 6.04761,28.72619 3.77976,71.05953 3.77976,71.05953 0,0 8.31547,27.21428 -9.07143,36.28571 -17.386907,9.07143 -32.505953,7.55952 -37.041668,-3.02381 -4.535715,-10.58333 -8.315475,-24.94643 -8.315475,-35.52976 0,-10.58333 0,-52.91667 0,-52.91667 z"
       id="path2007"
       inkscape:connector-curvature="0" />
  </g>
</svg>
