<?xml version="1.0" encoding="UTF-8" standalone="no"?>
<!-- Created with Inkscape (http://www.inkscape.org/) -->

<svg
   xmlns:dc="http://purl.org/dc/elements/1.1/"
   xmlns:cc="http://creativecommons.org/ns#"
   xmlns:rdf="http://www.w3.org/1999/02/22-rdf-syntax-ns#"
   xmlns:svg="http://www.w3.org/2000/svg"
   xmlns="http://www.w3.org/2000/svg"
   xmlns:sodipodi="http://sodipodi.sourceforge.net/DTD/sodipodi-0.dtd"
   xmlns:inkscape="http://www.inkscape.org/namespaces/inkscape"
   width="210mm"
   height="297mm"
   viewBox="0 0 210 297"
   version="1.1"
   id="svg3855"
   inkscape:version="0.92.4 (unknown)"
   sodipodi:docname="drawing-11.svg">
  <defs
     id="defs3849" />
  <sodipodi:namedview
     id="base"
     pagecolor="#ffffff"
     bordercolor="#666666"
     borderopacity="1.0"
     inkscape:pageopacity="0.0"
     inkscape:pageshadow="2"
     inkscape:zoom="0.35"
     inkscape:cx="-30"
     inkscape:cy="674.28571"
     inkscape:document-units="mm"
     inkscape:current-layer="layer1"
     showgrid="false"
     inkscape:window-width="1301"
     inkscape:window-height="744"
     inkscape:window-x="65"
     inkscape:window-y="24"
     inkscape:window-maximized="1" />
  <metadata
     id="metadata3852">
    <rdf:RDF>
      <cc:Work
         rdf:about="">
        <dc:format>image/svg+xml</dc:format>
        <dc:type
           rdf:resource="http://purl.org/dc/dcmitype/StillImage" />
        <dc:title></dc:title>
      </cc:Work>
    </rdf:RDF>
  </metadata>
  <g
     inkscape:label="Layer 1"
     inkscape:groupmode="layer"
     id="layer1">
    <path
       style="fill:none;stroke:#000000;stroke-width:0.26458332px;stroke-linecap:butt;stroke-linejoin:miter;stroke-opacity:1"
       d="m 74.839284,59.630952 c 0,0 2.267858,-4.535715 15.875,-1.511906 13.607146,3.023809 14.363096,-3.023809 21.166666,8.315476 6.80357,11.339287 7.55952,7.559524 6.80357,18.898812 -0.75595,11.339284 -2.26785,14.363093 -10.58333,18.142856 -8.315476,3.77976 -9.07143,5.29166 -8.315476,12.09524 0.755956,6.80357 -2.267858,6.80357 9.827376,6.80357 12.09524,0 8.31548,-10.58333 20.41072,0 12.09524,10.58333 9.82738,6.04762 15.11905,16.63095 5.29166,10.58333 7.55952,13.60714 7.55952,21.92262 0,8.31547 -0.75595,-1.5119 -0.75595,9.07143 0,10.58333 -5.29167,1.5119 0.75595,12.85119 6.04762,11.33928 11.33928,16.63095 6.04762,16.63095 -5.29167,0 -9.82738,4.53571 -16.63095,3.02381 -6.80358,-1.51191 -12.09524,0.75595 -6.80358,-10.58333 5.29167,-11.33929 5.29167,-5.29167 5.29167,-15.875 0,-10.58334 8.31548,-9.82738 0,-20.41072 -8.31547,-10.58333 -11.33928,-15.875 -15.875,-15.875 -4.53571,0 -6.80357,-6.04762 -6.80357,7.55953 0,13.60714 -2.26786,10.58333 -2.26786,28.72619 0,18.14285 -9.07143,-7.55953 0,18.14285 9.07143,25.70238 9.07143,15.11905 17.38691,39.30953 8.31547,24.19047 20.41071,25.70238 24.94643,34.01785 4.53571,8.31548 -6.80358,15.875 -18.14286,15.11906 -11.33929,-0.75597 -21.16667,0.75594 -18.89881,-11.3393 2.26786,-12.09523 -0.75595,-21.16666 -3.77976,-30.99404 -3.02381,-9.82738 -6.80357,-17.3869 -13.60715,-27.97024 -6.803565,-10.58333 -9.827377,-14.36309 -17.386899,-14.36309 -7.559524,0 -9.071429,-6.80357 -12.85119,3.0238 -3.779764,9.82739 -9.07143,19.65477 -9.827382,32.50596 -0.755951,12.85119 -12.85119,12.09523 -0.755951,25.70238 12.095236,13.60714 6.047618,25.70238 2.267857,25.70238 -3.779763,0 -18.142857,0 -21.166666,-2.26785 -3.023812,-2.26788 -16.630954,0 -16.630954,-9.07143 0,-9.07144 8.315475,-21.16667 8.315475,-21.16667 0,0 9.07143,-14.3631 12.851191,-26.45834 3.779763,-12.09523 4.535715,-18.8988 7.559524,-26.45833 3.023809,-7.55952 3.023809,2.26786 4.535715,-18.89881 1.511903,-21.16666 2.267858,-32.50595 2.267858,-37.04166 0,-4.53572 5.291666,-8.31548 -2.267858,-6.04762 -7.559524,2.26785 -10.583333,2.26785 -13.607142,13.60714 -3.023809,11.33929 -3.779764,16.63095 -4.535715,25.70238 -0.755952,9.07143 3.023809,15.11905 4.535715,21.16667 1.511903,6.04761 -9.827382,11.33928 -15.875,6.80357 -6.04762,-4.53572 -11.339286,-4.53572 -9.071429,-13.60714 2.267857,-9.07143 9.071429,-13.60715 9.071429,-13.60715 0,0 -0.755954,-13.60714 3.023809,-24.94643 3.779761,-11.33928 0,-12.09524 6.80357,-19.65476 6.803572,-7.55952 21.922621,-14.36309 29.482145,-14.36309 7.559521,0 9.827379,10.58333 11.339284,0 1.511904,-10.58334 10.583334,-6.80357 -0.755951,-13.60715 -11.339288,-6.803568 -14.363097,3.77976 -15.875,-13.607138 -1.511906,-17.386906 9.827379,-31.75 9.827379,-31.75 z"
       id="path4400"
       inkscape:connector-curvature="0" />
  </g>
</svg>
