<?xml version="1.0" encoding="UTF-8" standalone="no"?>
<!-- Created with Inkscape (http://www.inkscape.org/) -->

<svg
   xmlns:dc="http://purl.org/dc/elements/1.1/"
   xmlns:cc="http://creativecommons.org/ns#"
   xmlns:rdf="http://www.w3.org/1999/02/22-rdf-syntax-ns#"
   xmlns:svg="http://www.w3.org/2000/svg"
   xmlns="http://www.w3.org/2000/svg"
   xmlns:sodipodi="http://sodipodi.sourceforge.net/DTD/sodipodi-0.dtd"
   xmlns:inkscape="http://www.inkscape.org/namespaces/inkscape"
   width="210mm"
   height="297mm"
   viewBox="0 0 210 297"
   version="1.1"
   id="svg5039"
   inkscape:version="0.92.4 (unknown)"
   sodipodi:docname="drawing-13.svg">
  <defs
     id="defs5033" />
  <sodipodi:namedview
     id="base"
     pagecolor="#ffffff"
     bordercolor="#666666"
     borderopacity="1.0"
     inkscape:pageopacity="0.0"
     inkscape:pageshadow="2"
     inkscape:zoom="0.35"
     inkscape:cx="-30"
     inkscape:cy="445.71429"
     inkscape:document-units="mm"
     inkscape:current-layer="layer1"
     showgrid="false"
     inkscape:window-width="1301"
     inkscape:window-height="744"
     inkscape:window-x="65"
     inkscape:window-y="24"
     inkscape:window-maximized="1" />
  <metadata
     id="metadata5036">
    <rdf:RDF>
      <cc:Work
         rdf:about="">
        <dc:format>image/svg+xml</dc:format>
        <dc:type
           rdf:resource="http://purl.org/dc/dcmitype/StillImage" />
        <dc:title></dc:title>
      </cc:Work>
    </rdf:RDF>
  </metadata>
  <g
     inkscape:label="Layer 1"
     inkscape:groupmode="layer"
     id="layer1">
    <path
       style="fill:none;stroke:#000000;stroke-width:0.26458332px;stroke-linecap:butt;stroke-linejoin:miter;stroke-opacity:1"
       d="m 37.797618,50.559522 c 0,0 -7.559524,-5.291666 6.803572,-5.291666 14.363094,0 30.994048,3.023811 40.065476,3.023811 9.071427,0 21.166664,1.511904 34.017854,1.511904 12.85119,0 15.875,-4.535715 41.57738,-6.047619 25.70238,-1.511905 30.99405,4.535715 30.99405,11.339285 0,6.803573 0,24.190476 0,24.190476 l -21.16667,12.85119 -24.94642,-3.77976 c 0,0 -24.19048,-8.315476 -24.19048,-3.779764 0,4.535715 -5.29167,21.166671 -5.29167,21.166671 l 2.26786,111.88095 c 0,0 0.75595,26.45833 0.75595,30.99404 0,4.53572 -33.261903,27.21429 -40.821427,15.875 -7.559521,-11.33928 -9.827379,-49.1369 -9.827379,-49.1369 v -54.42857 l 1.511903,-37.79762 c 0,0 12.095239,-35.529762 0,-38.553571 C 57.452381,81.55357 30.994048,92.136903 26.458333,81.55357 21.922619,70.970237 10.583333,56.607143 20.410714,51.315476 30.238094,46.02381 37.797618,50.559522 37.797618,50.559522 Z"
       id="path5584"
       inkscape:connector-curvature="0" />
  </g>
</svg>
