<?xml version="1.0" encoding="UTF-8" standalone="no"?>
<!-- Created with Inkscape (http://www.inkscape.org/) -->

<svg
   xmlns:dc="http://purl.org/dc/elements/1.1/"
   xmlns:cc="http://creativecommons.org/ns#"
   xmlns:rdf="http://www.w3.org/1999/02/22-rdf-syntax-ns#"
   xmlns:svg="http://www.w3.org/2000/svg"
   xmlns="http://www.w3.org/2000/svg"
   xmlns:sodipodi="http://sodipodi.sourceforge.net/DTD/sodipodi-0.dtd"
   xmlns:inkscape="http://www.inkscape.org/namespaces/inkscape"
   width="210mm"
   height="297mm"
   viewBox="0 0 210 297"
   version="1.1"
   id="svg2053"
   inkscape:version="0.92.4 (unknown)"
   sodipodi:docname="drawing-10.svg">
  <defs
     id="defs2047" />
  <sodipodi:namedview
     id="base"
     pagecolor="#ffffff"
     bordercolor="#666666"
     borderopacity="1.0"
     inkscape:pageopacity="0.0"
     inkscape:pageshadow="2"
     inkscape:zoom="0.35"
     inkscape:cx="-30"
     inkscape:cy="445.71429"
     inkscape:document-units="mm"
     inkscape:current-layer="layer1"
     showgrid="false"
     inkscape:window-width="1301"
     inkscape:window-height="744"
     inkscape:window-x="65"
     inkscape:window-y="24"
     inkscape:window-maximized="1" />
  <metadata
     id="metadata2050">
    <rdf:RDF>
      <cc:Work
         rdf:about="">
        <dc:format>image/svg+xml</dc:format>
        <dc:type
           rdf:resource="http://purl.org/dc/dcmitype/StillImage" />
        <dc:title></dc:title>
      </cc:Work>
    </rdf:RDF>
  </metadata>
  <g
     inkscape:label="Layer 1"
     inkscape:groupmode="layer"
     id="layer1">
    <path
       style="fill:none;stroke:#000000;stroke-width:0.26458332px;stroke-linecap:butt;stroke-linejoin:miter;stroke-opacity:1"
       d="M 49.892857,66.434522 61.988093,52.82738 95.249999,45.267856 123.97619,56.607143 134.55952,71.726189 c 0,0 5.29167,-0.755952 22.67857,61.988091 17.38691,62.74405 20.41072,59.72024 21.16667,85.42262 0.75595,25.70238 2.26786,6.04762 0.75595,25.70238 -1.5119,19.65476 -9.07143,25.70239 -21.92262,21.92263 -12.85119,-3.77977 -11.33928,-3.77977 -15.875,-22.67858 -4.53571,-18.89881 -3.02381,-21.92262 -6.80357,-43.08929 -3.77976,-21.16666 0.75595,-20.41071 -5.29166,-23.43452 -6.04762,-3.02381 -24.19048,-12.85119 -30.994052,-3.77976 -6.80357,9.07143 -9.071427,-9.07143 -15.119048,27.21428 -6.047618,36.28572 3.023811,75.59523 -15.119046,65.0119 -18.142857,-10.58332 -23.434524,-18.8988 -23.434524,-42.33332 0,-23.43453 -2.267857,-55.94048 2.267858,-79.375 4.535712,-23.43453 3.023809,-77.863098 3.023809,-77.863098 z"
       id="path2598"
       inkscape:connector-curvature="0" />
    <path
       style="fill:none;stroke:#000000;stroke-width:0.26458332px;stroke-linecap:butt;stroke-linejoin:miter;stroke-opacity:1"
       d="M 116.41667,92.136903 C 98.273808,79.285713 86.934523,65.67857 79.374999,79.285713 71.815475,92.892855 68.035714,102.72024 68.035714,113.30357 c 0,10.58333 -6.047621,67.27976 3.023809,58.20833 9.071428,-9.07142 29.482147,-11.33928 34.017857,-26.45833 4.53571,-15.11905 11.33929,-52.916667 11.33929,-52.916667 z"
       id="path2600"
       inkscape:connector-curvature="0" />
  </g>
</svg>
