<?xml version="1.0" encoding="UTF-8" standalone="no"?>
<!-- Created with Inkscape (http://www.inkscape.org/) -->

<svg
   xmlns:dc="http://purl.org/dc/elements/1.1/"
   xmlns:cc="http://creativecommons.org/ns#"
   xmlns:rdf="http://www.w3.org/1999/02/22-rdf-syntax-ns#"
   xmlns:svg="http://www.w3.org/2000/svg"
   xmlns="http://www.w3.org/2000/svg"
   xmlns:sodipodi="http://sodipodi.sourceforge.net/DTD/sodipodi-0.dtd"
   xmlns:inkscape="http://www.inkscape.org/namespaces/inkscape"
   width="210mm"
   height="297mm"
   viewBox="0 0 210 297"
   version="1.1"
   id="svg3046"
   inkscape:version="0.92.4 (unknown)"
   sodipodi:docname="figurasinh.svg">
  <defs
     id="defs3040" />
  <sodipodi:namedview
     id="base"
     pagecolor="#ffffff"
     bordercolor="#666666"
     borderopacity="1.0"
     inkscape:pageopacity="0.0"
     inkscape:pageshadow="2"
     inkscape:zoom="0.35"
     inkscape:cx="400"
     inkscape:cy="445.71429"
     inkscape:document-units="mm"
     inkscape:current-layer="layer1"
     showgrid="false"
     inkscape:window-width="1301"
     inkscape:window-height="744"
     inkscape:window-x="65"
     inkscape:window-y="24"
     inkscape:window-maximized="1" />
  <metadata
     id="metadata3043">
    <rdf:RDF>
      <cc:Work
         rdf:about="">
        <dc:format>image/svg+xml</dc:format>
        <dc:type
           rdf:resource="http://purl.org/dc/dcmitype/StillImage" />
        <dc:title></dc:title>
      </cc:Work>
    </rdf:RDF>
  </metadata>
  <g
     inkscape:label="Layer 1"
     inkscape:groupmode="layer"
     id="layer1">
    <path
       style="fill:none;stroke:#000000;stroke-width:0.26458332px;stroke-linecap:butt;stroke-linejoin:miter;stroke-opacity:1"
       d="M 59.720238,28.636896 72.571427,11.249991 h 22.678572 l 7.559521,7.559524 1.51191,5.291667 -10.583337,30.238096 c 0,0 -7.559522,0.755951 -7.559522,3.77976 0,3.023809 0.755952,8.315476 0.755952,8.315476 l 30.238097,5.291667 26.45833,8.315475 13.60714,52.160714 8.31548,30.23809 11.33929,2.26786 -6.80358,9.82738 -20.41071,3.02381 0.75595,-14.36309 -4.53571,-2.26786 -3.77976,-11.33928 h 5.29166 l -18.89881,-46.1131 -9.82738,-2.26786 v 66.52381 l 30.99405,93.7381 29.48214,9.82738 v 12.09524 l -19.65476,0.75594 -15.875,-6.04761 -21.92262,6.04761 2.26786,-12.85118 -37.041667,-92.22619 -6.803572,-1.51191 9.07143,48.38095 -15.119049,39.30954 17.386906,5.29167 v 13.60712 l -52.160714,-9.82736 4.535715,-21.92263 h 9.827379 l 10.583333,-30.2381 -15.119046,-68.79166 8.315476,-52.16072 h -4.535715 l -18.898809,37.04167 v 37.04167 l 9.071427,11.33928 -24.190475,8.31548 -8.315476,-10.58333 10.583333,-9.07143 -7.559523,-55.18453 30.238096,-37.797616 12.851188,-12.851191 h 8.315478 V 58.119038 h -6.047621 l -28.72619,21.922618 -6.80357,-15.874999 22.67857,-41.57738 z"
       id="path3048"
       inkscape:connector-curvature="0" />
    <path
       style="fill:none;stroke:#000000;stroke-width:0.26458332px;stroke-linecap:butt;stroke-linejoin:miter;stroke-opacity:1"
       d="M 88.446426,108.76785 103.56547,126.9107 V 101.96428 L 85.422617,82.309514 68.791666,85.333323 v 52.916667 l 7.559524,4.53571 7.559524,-12.09524 z"
       id="path3050"
       inkscape:connector-curvature="0" />
  </g>
</svg>
