<?xml version="1.0" encoding="UTF-8" standalone="no"?>
<!DOCTYPE svg PUBLIC "-//W3C//DTD SVG 20010904//EN"
              "http://www.w3.org/TR/2001/REC-SVG-20010904/DTD/svg10.dtd">

<svg xmlns="http://www.w3.org/2000/svg"
     width="8.88889in" height="5.55556in"
     viewBox="0 0 640 400">
  <path id="Unnamed"
        fill="none" stroke="black" stroke-width="1"
        d="M 373.00,72.00
           C 373.00,72.00 386.00,61.00 349.00,60.00
             312.00,59.00 311.00,41.00 302.00,63.00
             293.00,85.00 288.00,85.00 286.00,89.00
             284.00,93.00 273.00,76.00 273.00,76.00
             273.00,76.00 260.00,74.00 260.00,74.00
             260.00,74.00 252.00,91.00 252.00,91.00
             252.00,91.00 248.00,115.00 248.00,115.00
             248.00,115.00 246.00,136.00 246.00,136.00
             246.00,136.00 255.00,144.00 255.00,144.00
             255.00,144.00 267.00,144.00 267.00,144.00
             267.00,144.00 275.00,134.00 275.00,134.00M 256.00,166.00
           C 256.00,166.00 250.00,189.00 250.00,189.00
             250.00,189.00 255.00,208.00 255.00,208.00
             255.00,208.00 276.00,226.00 276.00,226.00
             276.00,226.00 294.00,230.00 294.00,230.00
             294.00,230.00 317.00,219.00 317.00,219.00
             317.00,219.00 328.00,202.00 328.00,202.00
             328.00,202.00 325.00,180.00 326.00,180.00
             327.00,180.00 344.00,180.00 344.00,180.00
             344.00,180.00 355.00,182.00 355.00,182.00
             355.00,182.00 359.00,140.00 359.00,140.00
             359.00,140.00 364.00,134.00 365.00,134.00
             366.00,134.00 375.00,138.00 375.00,138.00
             375.00,138.00 387.00,120.00 387.00,120.00
             387.00,120.00 389.00,98.00 389.00,98.00M 320.00,110.00
           C 320.00,110.00 333.00,113.00 333.00,113.00
             333.00,113.00 338.00,124.00 338.00,124.00
             338.00,124.00 332.00,136.00 332.00,136.00
             333.98,144.70 303.86,124.56 301.00,112.00M 298.00,168.00
           C 298.00,168.00 302.00,180.00 302.00,180.00
             302.00,180.00 306.00,191.00 306.00,191.00
             306.00,191.00 317.00,197.00 317.00,197.00M 323.00,162.00
           C 323.00,162.00 325.00,172.00 325.00,172.00M 133.00,195.00
           C 134.00,195.00 168.00,138.00 168.00,138.00
             168.00,138.00 209.00,84.00 209.00,84.00
             203.61,82.63 242.15,33.50 253.00,36.00
             254.00,36.00 286.00,26.00 286.00,26.00
             286.00,26.00 333.00,24.00 333.00,24.00
             333.00,24.00 374.00,35.00 374.00,35.00
             374.00,35.00 397.00,55.00 397.00,55.00
             397.00,55.00 398.00,87.00 398.00,87.00
             398.00,87.00 399.00,135.00 399.00,135.00
             399.00,135.00 399.00,181.00 399.00,181.00
             399.00,181.00 399.00,220.00 399.00,220.00
             399.00,220.00 399.00,260.00 399.00,260.00
             399.00,260.00 399.00,279.00 399.00,279.00M 223.00,136.00
           C 223.00,136.00 198.00,173.00 198.00,173.00
             198.00,173.00 178.00,207.00 178.00,207.00
             178.00,207.00 121.00,228.00 120.00,228.00
             119.00,228.00 91.00,257.00 91.00,257.00M 256.00,221.00
           C 256.00,221.00 244.00,250.00 244.00,250.00
             244.00,250.00 304.53,276.91 325.00,318.00
             340.24,264.31 383.40,389.10 374.00,334.00M 150.00,242.00
           C 150.00,242.00 190.00,285.00 190.00,285.00
             190.00,285.00 234.00,281.00 234.00,281.00
             234.00,281.00 258.00,266.00 258.00,266.00M 288.00,202.00M 305.00,212.00M 360.00,228.00
           C 356.00,227.73 358.77,198.30 369.00,180.00M 399.00,315.00
           C 393.10,317.84 376.92,260.00 372.00,232.00M 364.00,285.00
           C 363.83,285.18 354.22,301.63 349.00,245.00" />
</svg>
