<?xml version="1.0" encoding="UTF-8" standalone="no"?>
<!-- Created with Inkscape (http://www.inkscape.org/) -->

<svg
   xmlns:dc="http://purl.org/dc/elements/1.1/"
   xmlns:cc="http://creativecommons.org/ns#"
   xmlns:rdf="http://www.w3.org/1999/02/22-rdf-syntax-ns#"
   xmlns:svg="http://www.w3.org/2000/svg"
   xmlns="http://www.w3.org/2000/svg"
   xmlns:sodipodi="http://sodipodi.sourceforge.net/DTD/sodipodi-0.dtd"
   xmlns:inkscape="http://www.inkscape.org/namespaces/inkscape"
   width="210mm"
   height="297mm"
   viewBox="0 0 210 297"
   version="1.1"
   id="svg1489"
   inkscape:version="0.92.4 (unknown)"
   sodipodi:docname="florero0h.svg">
  <defs
     id="defs1483" />
  <sodipodi:namedview
     id="base"
     pagecolor="#ffffff"
     bordercolor="#666666"
     borderopacity="1.0"
     inkscape:pageopacity="0.0"
     inkscape:pageshadow="2"
     inkscape:zoom="0.35"
     inkscape:cx="171.42857"
     inkscape:cy="674.28571"
     inkscape:document-units="mm"
     inkscape:current-layer="layer1"
     showgrid="false"
     inkscape:window-width="1301"
     inkscape:window-height="744"
     inkscape:window-x="65"
     inkscape:window-y="24"
     inkscape:window-maximized="1" />
  <metadata
     id="metadata1486">
    <rdf:RDF>
      <cc:Work
         rdf:about="">
        <dc:format>image/svg+xml</dc:format>
        <dc:type
           rdf:resource="http://purl.org/dc/dcmitype/StillImage" />
        <dc:title></dc:title>
      </cc:Work>
    </rdf:RDF>
  </metadata>
  <g
     inkscape:label="Layer 1"
     inkscape:groupmode="layer"
     id="layer1">
    <path
       style="fill:none;stroke:#000000;stroke-width:0.26458332px;stroke-linecap:butt;stroke-linejoin:miter;stroke-opacity:1"
       d="m 38.553572,95.160705 c 0,0 4.535712,13.607145 9.071427,25.702385 4.535715,12.09523 13.607143,21.16666 6.803573,30.99404 -6.803573,9.82738 -25.702382,20.41072 -26.458333,35.52976 -0.755954,15.11905 -7.559525,24.94643 -1.511906,42.33334 6.047618,17.3869 15.119048,33.2619 21.922618,37.04165 6.803572,3.77979 35.529763,7.55955 45.357142,7.55955 9.827377,0 18.898807,16.63094 40.065477,-3.77976 21.16667,-20.41073 23.43452,-38.55359 25.70238,-51.40478 2.26786,-12.85119 8.31548,-26.45833 1.51191,-40.82143 -6.80358,-14.36309 -35.52977,-21.16666 -35.52977,-26.45833 0,-5.29167 -9.82738,6.04762 3.02381,-21.92262 12.85119,-27.97023 22.67857,-35.529757 14.3631,-35.529757 -8.31548,0 -24.19048,6.803567 -24.19048,0 0,-6.803573 -3.77976,-29.482142 0,-30.238096 3.77976,-0.755952 9.07143,3.779763 15.11905,-0.755952 6.04762,-4.535715 9.07143,-15.875 6.04762,-18.142857 -3.02381,-2.267858 -9.82738,-3.779761 -14.3631,-3.779761 -4.53571,0 -11.33928,-6.803573 -15.11904,0 -3.77977,6.80357 5.29166,-0.755954 0.75595,18.898809 -4.53572,19.65476 0.75595,37.041666 -6.04762,37.041666 -6.803572,0 -5.291666,9.071428 -6.803572,-11.339285 C 96.761905,65.678562 96.00595,49.803563 96.00595,47.535705 c 0,-2.267857 -5.291666,-11.339285 0,-13.607142 5.29167,-2.267858 14.3631,-12.095238 9.82738,-16.630953 -4.53571,-4.535714 -23.434522,-0.755952 -27.214283,-0.755952 -3.779763,0 -6.04762,-0.755952 -4.535715,7.559524 1.511906,8.315475 3.02381,-31.7499998 6.803573,11.339284 3.779761,43.089287 9.071427,55.184524 5.291666,58.964287 -3.779763,3.779761 -8.315478,3.779761 -9.827381,-5.291667 -1.511906,-9.07143 -5.291667,-30.994048 -7.559524,-35.529763 -2.267858,-4.535712 -3.023809,-18.142857 -3.023809,-21.166666 0,-3.023809 -8.315476,-21.166666 -14.363097,-15.874999 -6.047618,5.291667 -18.142855,14.363096 -18.142855,22.678571 0,8.315476 5.291667,12.095237 9.827379,12.095237 4.535715,0 9.827382,-4.535712 9.827382,-4.535712 0,0 7.559524,13.607142 7.559524,21.922618 0,8.315475 0,6.047618 3.023809,23.434523 3.023809,17.386905 -5.291666,9.071425 -9.827381,6.047619 -4.535713,-3.023809 -15.119046,-3.023809 -15.119046,-3.023809 z"
       id="path1491"
       inkscape:connector-curvature="0" />
  </g>
</svg>
