<?xml version="1.0" encoding="UTF-8" standalone="no"?>
<!-- Created with Inkscape (http://www.inkscape.org/) -->

<svg
   xmlns:dc="http://purl.org/dc/elements/1.1/"
   xmlns:cc="http://creativecommons.org/ns#"
   xmlns:rdf="http://www.w3.org/1999/02/22-rdf-syntax-ns#"
   xmlns:svg="http://www.w3.org/2000/svg"
   xmlns="http://www.w3.org/2000/svg"
   xmlns:sodipodi="http://sodipodi.sourceforge.net/DTD/sodipodi-0.dtd"
   xmlns:inkscape="http://www.inkscape.org/namespaces/inkscape"
   width="210mm"
   height="297mm"
   viewBox="0 0 210 297"
   version="1.1"
   id="svg3356"
   inkscape:version="0.92.4 (unknown)"
   sodipodi:docname="jirafasinh.svg">
  <defs
     id="defs3350" />
  <sodipodi:namedview
     id="base"
     pagecolor="#ffffff"
     bordercolor="#666666"
     borderopacity="1.0"
     inkscape:pageopacity="0.0"
     inkscape:pageshadow="2"
     inkscape:zoom="0.35"
     inkscape:cx="400"
     inkscape:cy="560"
     inkscape:document-units="mm"
     inkscape:current-layer="layer1"
     showgrid="false"
     inkscape:window-width="1301"
     inkscape:window-height="744"
     inkscape:window-x="65"
     inkscape:window-y="24"
     inkscape:window-maximized="1" />
  <metadata
     id="metadata3353">
    <rdf:RDF>
      <cc:Work
         rdf:about="">
        <dc:format>image/svg+xml</dc:format>
        <dc:type
           rdf:resource="http://purl.org/dc/dcmitype/StillImage" />
        <dc:title></dc:title>
      </cc:Work>
    </rdf:RDF>
  </metadata>
  <g
     inkscape:label="Layer 1"
     inkscape:groupmode="layer"
     id="layer1">
    <path
       style="fill:none;stroke:#000000;stroke-width:0.26458332px;stroke-linecap:butt;stroke-linejoin:miter;stroke-opacity:1"
       d="m 41.577381,139.00594 11.339285,-15.11904 37.041666,-9.07143 12.095238,-5.29167 43.84524,-80.130952 3.02381,-9.82738 1.5119,7.559522 4.53572,-3.779761 c 0,0 -0.75596,12.095237 0,9.071428 0.75595,-3.023809 20.41071,8.315476 20.41071,8.315476 v 13.607145 l -9.07143,-0.755955 -0.75595,-6.047618 -12.85119,0.755952 -12.85119,45.357142 v 27.970241 l -0.75595,21.92262 3.02381,83.15476 -5.29167,-1.51191 -4.53572,-57.45238 -4.53571,3.02381 -0.75595,56.69643 -8.31548,1.51191 v -58.20834 l -43.845236,-6.04762 -21.922618,24.19048 6.047618,43.08928 -5.291666,-1.5119 -9.071428,-46.11309 7.559524,-16.63096 -4.535715,-24.19047 -12.85119,20.41071 z"
       id="path3358"
       inkscape:connector-curvature="0" />
    <path
       style="fill:none;stroke:#000000;stroke-width:0.26458332px;stroke-linecap:butt;stroke-linejoin:miter;stroke-opacity:1"
       d="m 83.15476,178.31546 -7.559522,17.38691 6.047618,37.04167 -5.291666,-1.51191 -8.315476,-36.28571 8.315476,-14.3631 z"
       id="path3360"
       inkscape:connector-curvature="0" />
  </g>
</svg>
