<?xml version="1.0" encoding="UTF-8" standalone="no"?>
<!DOCTYPE svg PUBLIC "-//W3C//DTD SVG 20010904//EN"
              "http://www.w3.org/TR/2001/REC-SVG-20010904/DTD/svg10.dtd">

<svg xmlns="http://www.w3.org/2000/svg"
     width="8.88889in" height="5.55556in"
     viewBox="0 0 640 400">
  <path id="K"
        fill="none" stroke="black" stroke-width="1"
        d="M 173.00,306.00
           C 173.00,306.00 175.00,306.00 175.00,306.00
             175.00,306.00 175.00,299.75 175.00,299.75
             175.00,299.75 181.03,306.00 181.03,306.00
             181.03,306.00 183.75,306.00 183.75,306.00
             183.75,306.00 176.62,299.06 176.62,299.06
             176.62,299.06 183.00,293.00 183.00,293.00
             183.00,293.00 180.48,293.00 180.48,293.00
             180.48,293.00 175.00,298.36 175.00,298.36
             175.00,298.36 175.00,293.00 175.00,293.00
             175.00,293.00 173.00,293.00 173.00,293.00
             173.00,293.00 173.00,306.00 173.00,306.00 Z" />
</svg>
