<?xml version="1.0" encoding="UTF-8" standalone="no"?>
<!DOCTYPE svg PUBLIC "-//W3C//DTD SVG 20010904//EN"
              "http://www.w3.org/TR/2001/REC-SVG-20010904/DTD/svg10.dtd">

<svg xmlns="http://www.w3.org/2000/svg"
     width="8.88889in" height="5.55556in"
     viewBox="0 0 640 400">
  <path id="LYSAAC"
        fill="none" stroke="black" stroke-width="1"
        d="M 79.00,49.00
           C 79.00,49.00 87.00,49.00 87.00,49.00
             87.00,49.00 87.00,47.00 87.00,47.00
             87.00,47.00 81.00,47.00 81.00,47.00
             81.00,47.00 81.00,36.00 81.00,36.00
             81.00,36.00 79.00,36.00 79.00,36.00
             79.00,36.00 79.00,49.00 79.00,49.00 Z
           M 90.00,42.81
           C 90.00,42.81 90.00,49.00 90.00,49.00
             90.00,49.00 92.00,49.00 92.00,49.00
             92.00,49.00 92.00,42.81 92.00,42.81
             92.00,42.81 97.00,36.00 97.00,36.00
             97.00,36.00 94.52,36.00 94.52,36.00
             94.52,36.00 91.00,41.42 91.00,41.42
             91.00,41.42 87.48,36.00 87.48,36.00
             87.48,36.00 85.00,36.00 85.00,36.00
             85.00,36.00 90.00,42.81 90.00,42.81 Z
           M 104.14,36.25
           C 103.54,36.09 102.94,36.00 102.36,36.00
             101.00,36.00 99.94,36.32 99.16,36.97
             98.38,37.61 98.00,38.48 98.00,39.59
             98.00,40.55 98.30,41.30 98.89,41.84
             99.48,42.39 100.44,42.78 101.77,43.03
             101.77,43.03 102.73,43.20 102.73,43.20
             103.54,43.35 104.11,43.57 104.47,43.88
             104.82,44.17 105.00,44.58 105.00,45.11
             105.00,45.71 104.73,46.18 104.20,46.52
             103.68,46.84 102.94,47.00 101.97,47.00
             101.33,47.00 100.68,46.92 100.02,46.75
             99.36,46.59 98.69,46.34 98.00,46.00
             98.00,46.00 98.00,48.00 98.00,48.00
             98.74,48.34 99.45,48.59 100.12,48.75
             100.81,48.92 101.46,49.00 102.08,49.00
             103.69,49.00 104.91,48.70 105.75,48.09
             106.58,47.49 107.00,46.60 107.00,45.42
             107.03,44.27 106.74,43.36 106.14,42.69
             105.54,42.01 104.58,41.54 103.28,41.28
             103.28,41.28 102.33,41.11 102.33,41.11
             101.46,40.95 100.86,40.79 100.53,40.61
             100.21,40.42 100.03,40.18 100.00,39.88
             100.00,39.28 100.23,38.82 100.70,38.50
             101.18,38.17 101.85,38.00 102.72,38.00
             103.22,38.00 103.74,38.09 104.28,38.25
             104.82,38.42 105.39,38.67 106.00,39.00
             106.00,39.00 106.00,37.00 106.00,37.00
             105.36,36.67 104.74,36.42 104.14,36.25 Z
           M 116.06,44.00
           C 116.06,44.00 112.06,44.00 112.06,44.00
             112.06,44.00 114.00,38.94 114.00,38.94
             114.00,38.94 116.06,44.00 116.06,44.00 Z
           M 108.00,49.00
           C 108.00,49.00 110.14,49.00 110.14,49.00
             110.14,49.00 111.30,46.00 111.30,46.00
             111.30,46.00 116.70,46.00 116.70,46.00
             116.70,46.00 117.86,49.00 117.86,49.00
             117.86,49.00 120.00,49.00 120.00,49.00
             120.00,49.00 114.77,36.00 114.77,36.00
             114.77,36.00 113.25,36.00 113.25,36.00
             113.25,36.00 108.00,49.00 108.00,49.00 Z
           M 129.06,44.00
           C 129.06,44.00 125.06,44.00 125.06,44.00
             125.06,44.00 127.00,38.94 127.00,38.94
             127.00,38.94 129.06,44.00 129.06,44.00 Z
           M 121.00,49.00
           C 121.00,49.00 123.14,49.00 123.14,49.00
             123.14,49.00 124.30,46.00 124.30,46.00
             124.30,46.00 129.70,46.00 129.70,46.00
             129.70,46.00 130.86,49.00 130.86,49.00
             130.86,49.00 133.00,49.00 133.00,49.00
             133.00,49.00 127.77,36.00 127.77,36.00
             127.77,36.00 126.25,36.00 126.25,36.00
             126.25,36.00 121.00,49.00 121.00,49.00 Z
           M 142.97,36.25
           C 142.25,36.09 141.48,36.00 140.66,36.00
             138.59,36.00 136.97,36.59 135.78,37.75
             134.59,38.91 134.00,40.49 134.00,42.50
             134.00,44.51 134.59,46.10 135.78,47.27
             136.97,48.42 138.59,49.00 140.66,49.00
             141.46,49.00 142.22,48.92 142.94,48.75
             143.66,48.59 144.35,48.34 145.00,48.00
             145.00,48.00 145.00,46.00 145.00,46.00
             144.38,46.34 143.72,46.59 143.02,46.75
             142.32,46.92 141.58,47.00 140.80,47.00
             139.24,47.00 138.05,46.62 137.23,45.84
             136.41,45.07 136.00,43.96 136.00,42.50
             136.00,41.04 136.41,39.93 137.23,39.16
             138.05,38.39 139.24,38.00 140.80,38.00
             141.58,38.00 142.32,38.09 143.02,38.25
             143.72,38.42 144.38,38.67 145.00,39.00
             145.00,39.00 145.00,37.00 145.00,37.00
             144.36,36.67 143.69,36.42 142.97,36.25 Z" />
</svg>
