<?xml version="1.0" encoding="UTF-8" standalone="no"?>
<!-- Created with Inkscape (http://www.inkscape.org/) -->

<svg
   xmlns:dc="http://purl.org/dc/elements/1.1/"
   xmlns:cc="http://creativecommons.org/ns#"
   xmlns:rdf="http://www.w3.org/1999/02/22-rdf-syntax-ns#"
   xmlns:svg="http://www.w3.org/2000/svg"
   xmlns="http://www.w3.org/2000/svg"
   xmlns:sodipodi="http://sodipodi.sourceforge.net/DTD/sodipodi-0.dtd"
   xmlns:inkscape="http://www.inkscape.org/namespaces/inkscape"
   width="210mm"
   height="297mm"
   viewBox="0 0 210 297"
   version="1.1"
   id="svg880"
   inkscape:version="0.92.4 (unknown)"
   sodipodi:docname="mano2.svg">
  <defs
     id="defs874" />
  <sodipodi:namedview
     id="base"
     pagecolor="#ffffff"
     bordercolor="#666666"
     borderopacity="1.0"
     inkscape:pageopacity="0.0"
     inkscape:pageshadow="2"
     inkscape:zoom="0.35"
     inkscape:cx="-30"
     inkscape:cy="788.57143"
     inkscape:document-units="mm"
     inkscape:current-layer="layer1"
     showgrid="false"
     inkscape:window-width="1301"
     inkscape:window-height="744"
     inkscape:window-x="65"
     inkscape:window-y="24"
     inkscape:window-maximized="1" />
  <metadata
     id="metadata877">
    <rdf:RDF>
      <cc:Work
         rdf:about="">
        <dc:format>image/svg+xml</dc:format>
        <dc:type
           rdf:resource="http://purl.org/dc/dcmitype/StillImage" />
        <dc:title></dc:title>
      </cc:Work>
    </rdf:RDF>
  </metadata>
  <g
     inkscape:label="Layer 1"
     inkscape:groupmode="layer"
     id="layer1">
    <path
       style="fill:none;stroke:#000000;stroke-width:0.26458332px;stroke-linecap:butt;stroke-linejoin:miter;stroke-opacity:1"
       d="m 54.428572,53.583334 1.511903,42.333333 -13.607142,49.892853 -3.779761,55.18452 c 0,0 -5.291667,18.14286 1.511903,20.41072 6.803573,2.26786 19.654763,3.02381 19.654763,0 0,-3.02381 0.755952,-48.38095 0.755952,-48.38095 h 5.291667 c 0,0 -5.291667,41.57738 1.511903,46.86904 6.803572,5.29167 18.142857,-14.36309 18.142857,-14.36309 l -3.779761,-24.94643 c 0,0 9.071428,-10.58333 9.071428,-6.04762 0,4.53572 2.267857,42.33333 2.267857,42.33333 0,0 -4.535715,5.29167 2.267858,9.07143 6.803571,3.77977 18.142861,0 18.142861,0 v -19.65476 c 0,0 -8.31548,-23.43452 -5.29167,-27.21428 3.02381,-3.77976 9.07143,18.89881 9.07143,18.89881 0,0 -3.02381,20.41071 2.26785,22.67857 5.29167,2.26786 15.875,-4.53572 15.875,-4.53572 l 5.29167,-28.72619 -6.80357,-22.67857 -8.31548,-24.19048 v -14.36309 c 0,0 2.26786,-2.26786 5.29167,0 3.02381,2.26786 7.55952,24.94643 7.55952,24.94643 0,0 3.77977,35.52976 9.82738,43.84524 6.04762,8.31547 20.41072,9.82738 20.41072,9.82738 l 7.55952,-12.85119 -10.58333,-15.11905 c 0,0 -4.53571,-36.28572 -4.53571,-41.57738 0,-5.29167 0,-20.41071 -14.3631,-30.99405 -14.36309,-10.583331 -30.99405,-7.559522 -34.01786,-21.922618 -3.02381,-14.363094 -3.02381,-31.75 -3.02381,-31.75 L 96.00595,42.244047 Z"
       id="path1425"
       inkscape:connector-curvature="0" />
  </g>
</svg>
