<?xml version="1.0" encoding="UTF-8" standalone="no"?>
<!-- Created with Inkscape (http://www.inkscape.org/) -->

<svg
   xmlns:dc="http://purl.org/dc/elements/1.1/"
   xmlns:cc="http://creativecommons.org/ns#"
   xmlns:rdf="http://www.w3.org/1999/02/22-rdf-syntax-ns#"
   xmlns:svg="http://www.w3.org/2000/svg"
   xmlns="http://www.w3.org/2000/svg"
   xmlns:sodipodi="http://sodipodi.sourceforge.net/DTD/sodipodi-0.dtd"
   xmlns:inkscape="http://www.inkscape.org/namespaces/inkscape"
   width="210mm"
   height="297mm"
   viewBox="0 0 210 297"
   version="1.1"
   id="svg2693"
   inkscape:version="0.92.4 (unknown)"
   sodipodi:docname="manzanasinh.svg">
  <defs
     id="defs2687" />
  <sodipodi:namedview
     id="base"
     pagecolor="#ffffff"
     bordercolor="#666666"
     borderopacity="1.0"
     inkscape:pageopacity="0.0"
     inkscape:pageshadow="2"
     inkscape:zoom="0.35"
     inkscape:cx="400"
     inkscape:cy="560"
     inkscape:document-units="mm"
     inkscape:current-layer="layer1"
     showgrid="false"
     inkscape:window-width="1301"
     inkscape:window-height="744"
     inkscape:window-x="65"
     inkscape:window-y="24"
     inkscape:window-maximized="1" />
  <metadata
     id="metadata2690">
    <rdf:RDF>
      <cc:Work
         rdf:about="">
        <dc:format>image/svg+xml</dc:format>
        <dc:type
           rdf:resource="http://purl.org/dc/dcmitype/StillImage" />
        <dc:title></dc:title>
      </cc:Work>
    </rdf:RDF>
  </metadata>
  <g
     inkscape:label="Layer 1"
     inkscape:groupmode="layer"
     id="layer1">
    <path
       style="fill:none;stroke:#000000;stroke-width:0.26458332px;stroke-linecap:butt;stroke-linejoin:miter;stroke-opacity:1"
       d="M 68.035714,89.113086 44.60119,104.98809 30.994048,131.44642 v 27.21428 l 8.315476,26.45834 34.017857,27.97024 c 0,0 9.071427,1.5119 20.410712,-0.75596 11.339287,-2.26786 53.672617,-1.5119 53.672617,-1.5119 l 18.89881,-34.01786 6.80357,-34.01786 1.51191,-24.94642 -7.55953,-31.750003 -24.19047,-6.047621 -29.48214,6.803573 v 0 -15.119048 l 10.58333,-8.315476 24.94643,-11.339285 11.33928,-25.702381 1.51191,-16.6309522 -21.16667,-0.7559524 -11.33928,4.5357146 -14.3631,10.583333 -14.36309,27.214284 5.29166,14.363096 v 12.851191 l 0.75595,15.875 v 12.851187 l -2.26785,0.75596 -5.29167,-4.53572 V 80.797611 74.74999 Z"
       id="path2695"
       inkscape:connector-curvature="0" />
  </g>
</svg>
