<?xml version="1.0" encoding="UTF-8" standalone="no"?>
<!-- Created with Inkscape (http://www.inkscape.org/) -->

<svg
   xmlns:dc="http://purl.org/dc/elements/1.1/"
   xmlns:cc="http://creativecommons.org/ns#"
   xmlns:rdf="http://www.w3.org/1999/02/22-rdf-syntax-ns#"
   xmlns:svg="http://www.w3.org/2000/svg"
   xmlns="http://www.w3.org/2000/svg"
   xmlns:sodipodi="http://sodipodi.sourceforge.net/DTD/sodipodi-0.dtd"
   xmlns:inkscape="http://www.inkscape.org/namespaces/inkscape"
   width="210mm"
   height="297mm"
   viewBox="0 0 210 297"
   version="1.1"
   id="svg2279"
   inkscape:version="0.92.4 (unknown)"
   sodipodi:docname="martillosinh.svg">
  <defs
     id="defs2273" />
  <sodipodi:namedview
     id="base"
     pagecolor="#ffffff"
     bordercolor="#666666"
     borderopacity="1.0"
     inkscape:pageopacity="0.0"
     inkscape:pageshadow="2"
     inkscape:zoom="0.35"
     inkscape:cx="514.28571"
     inkscape:cy="560"
     inkscape:document-units="mm"
     inkscape:current-layer="layer1"
     showgrid="false"
     inkscape:window-width="1301"
     inkscape:window-height="744"
     inkscape:window-x="65"
     inkscape:window-y="24"
     inkscape:window-maximized="1" />
  <metadata
     id="metadata2276">
    <rdf:RDF>
      <cc:Work
         rdf:about="">
        <dc:format>image/svg+xml</dc:format>
        <dc:type
           rdf:resource="http://purl.org/dc/dcmitype/StillImage" />
        <dc:title></dc:title>
      </cc:Work>
    </rdf:RDF>
  </metadata>
  <g
     inkscape:label="Layer 1"
     inkscape:groupmode="layer"
     id="layer1">
    <path
       style="fill:none;stroke:#000000;stroke-width:0.26458332px;stroke-linecap:butt;stroke-linejoin:miter;stroke-opacity:1"
       d="M 20.410714,61.898799 11.339286,87.60118 9.0714284,111.0357 v 19.65476 l 7.5595236,10.58334 h 6.803572 l -1.511905,-19.65476 2.267857,-27.970241 c 0,0 4.535714,-6.047619 7.559524,-7.559522 3.023809,-1.511906 21.166666,-6.047621 21.166666,-6.047621 l 14.363094,-2.267857 6.803572,10.583333 6.803573,24.190478 2.267855,47.625 v 98.27381 c 0,0 -3.779761,13.60713 0,18.14285 3.779763,4.53573 13.607145,5.29167 13.607145,5.29167 h 17.386905 l 9.07143,-6.80357 2.26785,-12.85119 -5.29166,-19.65476 -7.55953,-51.40477 -3.77976,-54.42856 -3.02381,-37.04167 c 0,0 2.26786,-19.654764 9.82738,-19.654764 7.55953,0 22.67857,0 22.67857,0 l 24.19048,10.583334 10.58333,7.559524 3.77977,-6.80357 1.5119,-20.410715 -1.5119,-22.678572 -9.82739,-11.339285 -10.58333,4.535715 -16.63095,9.827379 -29.48214,3.023812 c 0,0 -6.04762,-10.583334 -9.07143,-10.583334 -3.023812,0 -25.702382,-0.755954 -25.702382,-0.755954 h -9.827381 l -3.779764,13.607142 -24.946427,6.803573 z"
       id="path2281"
       inkscape:connector-curvature="0" />
  </g>
</svg>
