<?xml version="1.0" encoding="UTF-8" standalone="no"?>
<!-- Created with Inkscape (http://www.inkscape.org/) -->

<svg
   xmlns:dc="http://purl.org/dc/elements/1.1/"
   xmlns:cc="http://creativecommons.org/ns#"
   xmlns:rdf="http://www.w3.org/1999/02/22-rdf-syntax-ns#"
   xmlns:svg="http://www.w3.org/2000/svg"
   xmlns="http://www.w3.org/2000/svg"
   xmlns:sodipodi="http://sodipodi.sourceforge.net/DTD/sodipodi-0.dtd"
   xmlns:inkscape="http://www.inkscape.org/namespaces/inkscape"
   width="210mm"
   height="297mm"
   viewBox="0 0 210 297"
   version="1.1"
   id="svg1927"
   inkscape:version="0.92.4 (unknown)"
   sodipodi:docname="Msinh.svg">
  <defs
     id="defs1921" />
  <sodipodi:namedview
     id="base"
     pagecolor="#ffffff"
     bordercolor="#666666"
     borderopacity="1.0"
     inkscape:pageopacity="0.0"
     inkscape:pageshadow="2"
     inkscape:zoom="0.35"
     inkscape:cx="400"
     inkscape:cy="560"
     inkscape:document-units="mm"
     inkscape:current-layer="layer1"
     showgrid="false"
     inkscape:window-width="1301"
     inkscape:window-height="744"
     inkscape:window-x="65"
     inkscape:window-y="24"
     inkscape:window-maximized="1" />
  <metadata
     id="metadata1924">
    <rdf:RDF>
      <cc:Work
         rdf:about="">
        <dc:format>image/svg+xml</dc:format>
        <dc:type
           rdf:resource="http://purl.org/dc/dcmitype/StillImage" />
        <dc:title></dc:title>
      </cc:Work>
    </rdf:RDF>
  </metadata>
  <g
     inkscape:label="Layer 1"
     inkscape:groupmode="layer"
     id="layer1">
    <path
       style="fill:none;stroke:#000000;stroke-width:0.26458332px;stroke-linecap:butt;stroke-linejoin:miter;stroke-opacity:1"
       d="M 21.166666,35.440466 20.410714,252.3988 c 0,0 -1.511905,13.60714 5.291667,15.87499 6.80357,2.26788 18.142858,-0.75594 18.142858,-0.75594 0,0 7.559521,7.55952 7.559521,-11.33929 0,-18.89881 3.023812,-61.9881 3.023812,-80.13095 0,-18.14286 -3.023812,-67.27976 -3.023812,-67.27976 0,0 -3.023809,-20.410718 0,-20.410718 3.023812,0 6.803573,11.339288 12.851191,30.994048 6.047621,19.65476 20.410715,55.18452 23.434524,61.23214 3.023809,6.04762 4.535715,18.89881 12.095239,6.80357 7.559526,-12.09523 12.095236,-22.67857 18.898806,-41.57738 6.80357,-18.89881 13.60714,-56.696424 20.41072,-56.696424 6.80357,0 4.53571,14.363094 4.53571,32.505954 0,18.14285 -5.29167,128.5119 0,139.85119 5.29167,11.33929 20.41071,14.3631 23.43452,9.07144 3.02381,-5.29167 3.02381,-18.89882 3.02381,-33.26192 0,-14.3631 7.55953,-194.27976 0,-200.327378 -7.55952,-6.047618 -26.45833,-9.827382 -28.72619,-5.291667 -2.26785,4.535715 -26.45833,41.577382 -27.21428,49.136906 -0.75595,7.559521 -12.09524,50.648809 -15.11905,50.648809 -3.02381,0 -6.047619,-6.80357 -8.315476,-11.33929 C 88.446426,115.57142 74.083332,74.74999 69.547617,61.142847 65.011905,47.535705 56.696427,24.101182 49.892857,24.101182 c -6.803573,0 -28.726191,11.339284 -28.726191,11.339284 z"
       id="path1929"
       inkscape:connector-curvature="0" />
  </g>
</svg>
