<?xml version="1.0" encoding="UTF-8" standalone="no"?>
<!-- Created with Inkscape (http://www.inkscape.org/) -->

<svg
   xmlns:dc="http://purl.org/dc/elements/1.1/"
   xmlns:cc="http://creativecommons.org/ns#"
   xmlns:rdf="http://www.w3.org/1999/02/22-rdf-syntax-ns#"
   xmlns:svg="http://www.w3.org/2000/svg"
   xmlns="http://www.w3.org/2000/svg"
   xmlns:sodipodi="http://sodipodi.sourceforge.net/DTD/sodipodi-0.dtd"
   xmlns:inkscape="http://www.inkscape.org/namespaces/inkscape"
   width="210mm"
   height="297mm"
   viewBox="0 0 210 297"
   version="1.1"
   id="svg8"
   inkscape:version="0.92.4 (unknown)"
   sodipodi:docname="mujersh.svg">
  <defs
     id="defs2" />
  <sodipodi:namedview
     id="base"
     pagecolor="#ffffff"
     bordercolor="#666666"
     borderopacity="1.0"
     inkscape:pageopacity="0.0"
     inkscape:pageshadow="2"
     inkscape:zoom="0.35"
     inkscape:cx="-144.28571"
     inkscape:cy="674.28571"
     inkscape:document-units="mm"
     inkscape:current-layer="layer1"
     showgrid="false"
     inkscape:window-width="1301"
     inkscape:window-height="744"
     inkscape:window-x="65"
     inkscape:window-y="24"
     inkscape:window-maximized="1" />
  <metadata
     id="metadata5">
    <rdf:RDF>
      <cc:Work
         rdf:about="">
        <dc:format>image/svg+xml</dc:format>
        <dc:type
           rdf:resource="http://purl.org/dc/dcmitype/StillImage" />
        <dc:title></dc:title>
      </cc:Work>
    </rdf:RDF>
  </metadata>
  <g
     inkscape:label="Layer 1"
     inkscape:groupmode="layer"
     id="layer1">
    <path
       style="fill:none;stroke:#000000;stroke-width:0.26458332px;stroke-linecap:butt;stroke-linejoin:miter;stroke-opacity:1"
       d="m 47.624999,80.041667 c 0,0 3.779761,5.291667 8.315476,0 C 60.47619,74.75 61.232142,68.70238 61.232142,68.70238 c 0,0 -3.779761,-6.80357 5.291666,-14.363094 9.07143,-7.559525 8.315476,-12.095239 18.142858,-12.851191 9.827381,-0.755952 12.85119,-12.851191 15.875004,3.023809 3.0238,15.875 1.5119,24.94643 3.0238,34.773809 1.51191,9.827381 -6.803565,4.535715 2.26786,10.583333 9.07143,6.047621 6.80357,13.607144 2.26786,13.607144 -4.53572,0 -10.583334,0.75595 -12.09524,-4.535714 -1.511903,-5.291667 -5.291666,-12.095239 -3.023809,-18.898809 2.267858,-6.803573 4.535715,-18.898812 2.267858,-23.434524 -2.267858,-4.535715 -4.535715,-8.315476 -4.535715,-8.315476 0,0 -11.339285,0.755952 -14.363094,7.559522 -3.023809,6.803572 -4.535715,15.875 -9.07143,22.678572 -4.535712,6.803573 -4.535712,9.071427 -12.095237,10.583333 -7.559524,1.511906 -7.559524,-9.071427 -7.559524,-9.071427 z"
       id="path815"
       inkscape:connector-curvature="0" />
    <path
       style="fill:none;stroke:#000000;stroke-width:0.26458332px;stroke-linecap:butt;stroke-linejoin:miter;stroke-opacity:1"
       d="m 79.374999,60.386904 2.267857,9.07143 c 0,0 -6.047618,5.291666 -3.023809,7.559521"
       id="path819"
       inkscape:connector-curvature="0" />
    <path
       style="fill:none;stroke:#000000;stroke-width:0.26458332px;stroke-linecap:butt;stroke-linejoin:miter;stroke-opacity:1"
       d="m 71.059523,91.380952 c 7.559524,4.535715 15.875,0.755951 15.875,0.755951"
       id="path821"
       inkscape:connector-curvature="0" />
    <path
       style="fill:none;stroke:#000000;stroke-width:0.26458332px;stroke-linecap:butt;stroke-linejoin:miter;stroke-opacity:1"
       d="m 43.089284,99.696427 -18.898808,18.898813 4.535714,23.43452 c 0,0 18.898809,11.33929 18.898809,21.16667 0,9.82738 6.047619,29.48214 8.315476,19.65476 2.267858,-9.82738 13.607142,-3.77976 8.315476,-10.58334 -5.291667,-6.80357 -23.434524,-34.7738 -23.434524,-34.7738 l -2.267855,-7.55953 13.607142,-12.85119 9.827379,17.38691 -9.071427,15.11904 4.535715,7.55953 19.654761,21.92262 -6.80357,9.82738 -12.095239,6.04762 -6.803573,-0.75596 -6.047618,-5.29166 -3.779761,-21.92262 -9.07143,15.875 0.755954,34.01785 17.386904,8.31548 c 0,0 -4.535715,-1.5119 -5.291667,9.82738 -0.755952,11.33929 3.779763,10.58333 -0.755952,24.19048 -4.535715,13.60714 9.071428,9.82738 9.071428,9.82738 0,0 -6.80357,-7.55953 6.04762,-1.51191 12.851189,6.04763 23.434522,4.53573 23.434522,0.75597 0,-3.77978 -12.851188,-9.82739 -12.851188,-9.82739 0,0 -8.315479,4.53571 -8.315479,-6.80358 0,-11.33928 2.267858,-24.94642 2.267858,-24.94642 l 33.261905,-6.80358 c 0,0 1.511904,-11.33928 1.511904,3.02382 0,14.36309 1.51191,19.65476 5.29167,27.97023 3.77976,8.31548 -6.803574,13.60714 -3.02381,19.65477 3.77976,6.0476 2.26785,2.26785 10.58333,1.51191 8.31548,-0.75597 20.41071,8.31545 27.97024,0 7.55952,-8.31549 -9.07143,-9.07144 -9.07143,-9.07144 l -14.36309,-3.02381 v -43.84524 c 0,0 -6.80358,3.02381 0,-2.26785 6.80357,-5.29167 17.3869,11.33928 6.80357,-11.33929 -10.58334,-22.67857 -7.55953,-21.16667 -17.38691,-35.52976 -9.82738,-14.3631 -18.898807,-14.3631 -9.82738,-22.67857 9.07143,-8.31548 11.33929,-11.33929 11.33929,-18.14286 0,-6.80357 9.82738,19.65476 9.82738,19.65476 l -13.60715,14.3631 9.07143,10.58333 c 0,0 29.48215,-12.09524 19.65476,-30.2381 -9.82738,-18.14285 -19.65476,-33.2619 -19.65476,-33.2619"
       id="path823"
       inkscape:connector-curvature="0" />
  </g>
</svg>
