<?xml version="1.0" encoding="UTF-8" standalone="no"?>
<!-- Created with Inkscape (http://www.inkscape.org/) -->

<svg
   xmlns:dc="http://purl.org/dc/elements/1.1/"
   xmlns:cc="http://creativecommons.org/ns#"
   xmlns:rdf="http://www.w3.org/1999/02/22-rdf-syntax-ns#"
   xmlns:svg="http://www.w3.org/2000/svg"
   xmlns="http://www.w3.org/2000/svg"
   xmlns:sodipodi="http://sodipodi.sourceforge.net/DTD/sodipodi-0.dtd"
   xmlns:inkscape="http://www.inkscape.org/namespaces/inkscape"
   width="210mm"
   height="297mm"
   viewBox="0 0 210 297"
   version="1.1"
   id="svg2606"
   inkscape:version="0.92.4 (unknown)"
   sodipodi:docname="nsinh.svg">
  <defs
     id="defs2600" />
  <sodipodi:namedview
     id="base"
     pagecolor="#ffffff"
     bordercolor="#666666"
     borderopacity="1.0"
     inkscape:pageopacity="0.0"
     inkscape:pageshadow="2"
     inkscape:zoom="0.35"
     inkscape:cx="400"
     inkscape:cy="217.14286"
     inkscape:document-units="mm"
     inkscape:current-layer="layer1"
     showgrid="false"
     inkscape:window-width="1301"
     inkscape:window-height="744"
     inkscape:window-x="65"
     inkscape:window-y="24"
     inkscape:window-maximized="1" />
  <metadata
     id="metadata2603">
    <rdf:RDF>
      <cc:Work
         rdf:about="">
        <dc:format>image/svg+xml</dc:format>
        <dc:type
           rdf:resource="http://purl.org/dc/dcmitype/StillImage" />
        <dc:title></dc:title>
      </cc:Work>
    </rdf:RDF>
  </metadata>
  <g
     inkscape:label="Layer 1"
     inkscape:groupmode="layer"
     id="layer1">
    <path
       style="fill:none;stroke:#000000;stroke-width:0.26458332px;stroke-linecap:butt;stroke-linejoin:miter;stroke-opacity:1"
       d="m 32.505951,61.142847 v 28.726191 77.107142 l 1.511906,51.40476 -0.755952,43.84524 18.898809,9.07143 11.339285,-10.58333 -3.023809,-51.40477 -2.267857,-46.11309 -0.755952,-30.99405 v -30.99405 l 20.410712,23.43453 26.458337,41.57738 25.70238,46.86905 12.85119,23.43452 12.09524,19.65476 12.09523,15.11905 8.31548,-10.58333 -0.75595,-40.82143 -0.75595,-123.976194 -2.26786,-44.60119 -9.82738,-17.386903 -15.11905,4.535715 -2.26786,14.363094 v 28.72619 62.744048 l 3.02381,47.625 -6.80357,-1.51191 L 114.14881,134.47023 76.35119,82.309514 64.255951,66.434514 62.744048,45.267848 52.916666,28.636896 33.261905,33.928563 Z"
       id="path2608"
       inkscape:connector-curvature="0" />
  </g>
</svg>
