<?xml version="1.0" encoding="UTF-8" standalone="no"?>
<!-- Created with Inkscape (http://www.inkscape.org/) -->

<svg
   xmlns:dc="http://purl.org/dc/elements/1.1/"
   xmlns:cc="http://creativecommons.org/ns#"
   xmlns:rdf="http://www.w3.org/1999/02/22-rdf-syntax-ns#"
   xmlns:svg="http://www.w3.org/2000/svg"
   xmlns="http://www.w3.org/2000/svg"
   xmlns:sodipodi="http://sodipodi.sourceforge.net/DTD/sodipodi-0.dtd"
   xmlns:inkscape="http://www.inkscape.org/namespaces/inkscape"
   width="210mm"
   height="297mm"
   viewBox="0 0 210 297"
   version="1.1"
   id="svg8"
   inkscape:version="0.92.4 (unknown)"
   sodipodi:docname="Ocon1h.svg">
  <defs
     id="defs2" />
  <sodipodi:namedview
     id="base"
     pagecolor="#ffffff"
     bordercolor="#666666"
     borderopacity="1.0"
     inkscape:pageopacity="0.0"
     inkscape:pageshadow="2"
     inkscape:zoom="0.35"
     inkscape:cx="-30"
     inkscape:cy="560"
     inkscape:document-units="mm"
     inkscape:current-layer="layer1"
     showgrid="false"
     inkscape:window-width="1301"
     inkscape:window-height="744"
     inkscape:window-x="65"
     inkscape:window-y="24"
     inkscape:window-maximized="1" />
  <metadata
     id="metadata5">
    <rdf:RDF>
      <cc:Work
         rdf:about="">
        <dc:format>image/svg+xml</dc:format>
        <dc:type
           rdf:resource="http://purl.org/dc/dcmitype/StillImage" />
        <dc:title></dc:title>
      </cc:Work>
    </rdf:RDF>
  </metadata>
  <g
     inkscape:label="Layer 1"
     inkscape:groupmode="layer"
     id="layer1">
    <path
       style="fill:none;stroke:#000000;stroke-width:0.26458332px;stroke-linecap:butt;stroke-linejoin:miter;stroke-opacity:1"
       d="m 41.577381,88.357143 c 0,0 5.291667,-24.190476 27.970236,-26.458333 22.678573,-2.267858 19.654764,-11.339288 43.089283,-3.023809 23.43453,8.315475 36.28572,-0.755955 41.57738,30.994045 5.29167,31.750004 7.55953,25.702384 7.55953,51.404764 0,25.70238 4.53571,15.875 -4.53572,43.84523 -9.07143,27.97024 8.31548,43.08929 -20.41071,49.13691 -28.72619,6.04762 -37.041666,17.3869 -55.184524,8.31548 C 63.499999,233.5 38.553572,227.45238 34.773809,208.55357 30.994048,189.65476 30.238094,175.29167 27.214285,153.36905 24.190476,131.44643 41.577381,88.357143 41.577381,88.357143 Z"
       id="path815"
       inkscape:connector-curvature="0" />
    <path
       style="fill:none;stroke:#000000;stroke-width:0.26458332px;stroke-linecap:butt;stroke-linejoin:miter;stroke-opacity:1"
       d="m 65.011905,108.0119 c 0,0 -0.755954,-11.339282 12.095237,-16.630948 12.85119,-5.291667 21.166666,-12.095239 34.017858,-6.803573 12.85119,5.291667 12.85119,11.339288 17.3869,24.946431 4.53572,13.60714 9.07143,6.80357 9.07143,32.50595 0,25.70238 -0.75595,26.45833 -6.80357,45.35714 -6.04762,18.89881 -10.58333,21.92262 -27.21429,24.94643 -16.630947,3.02381 -21.922614,3.02381 -28.726186,-5.29166 -6.80357,-8.31548 -10.583333,-20.41072 -12.851191,-34.01786 -2.267855,-13.60714 3.023812,-65.01191 3.023812,-65.01191 z"
       id="path817"
       inkscape:connector-curvature="0" />
    <path
       style="fill:none;fill-opacity:1;stroke:none;stroke-width:0.26499999;stroke-miterlimit:4;stroke-dasharray:none;stroke-opacity:1"
       d="m 76.351189,114.05952 h 45.357141 v 83.15476 H 76.351189 Z"
       id="rect819" />
  </g>
</svg>
