<?xml version="1.0" encoding="UTF-8" standalone="no"?>
<!-- Created with Inkscape (http://www.inkscape.org/) -->

<svg
   xmlns:dc="http://purl.org/dc/elements/1.1/"
   xmlns:cc="http://creativecommons.org/ns#"
   xmlns:rdf="http://www.w3.org/1999/02/22-rdf-syntax-ns#"
   xmlns:svg="http://www.w3.org/2000/svg"
   xmlns="http://www.w3.org/2000/svg"
   xmlns:sodipodi="http://sodipodi.sourceforge.net/DTD/sodipodi-0.dtd"
   xmlns:inkscape="http://www.inkscape.org/namespaces/inkscape"
   width="210mm"
   height="297mm"
   viewBox="0 0 210 297"
   version="1.1"
   id="svg2473"
   inkscape:version="0.92.4 (unknown)"
   sodipodi:docname="oveja0h.svg">
  <defs
     id="defs2467" />
  <sodipodi:namedview
     id="base"
     pagecolor="#ffffff"
     bordercolor="#666666"
     borderopacity="1.0"
     inkscape:pageopacity="0.0"
     inkscape:pageshadow="2"
     inkscape:zoom="0.35"
     inkscape:cx="285.71429"
     inkscape:cy="674.28571"
     inkscape:document-units="mm"
     inkscape:current-layer="layer1"
     showgrid="false"
     inkscape:window-width="1301"
     inkscape:window-height="744"
     inkscape:window-x="65"
     inkscape:window-y="24"
     inkscape:window-maximized="1" />
  <metadata
     id="metadata2470">
    <rdf:RDF>
      <cc:Work
         rdf:about="">
        <dc:format>image/svg+xml</dc:format>
        <dc:type
           rdf:resource="http://purl.org/dc/dcmitype/StillImage" />
        <dc:title></dc:title>
      </cc:Work>
    </rdf:RDF>
  </metadata>
  <g
     inkscape:label="Layer 1"
     inkscape:groupmode="layer"
     id="layer1">
    <path
       style="fill:none;stroke:#000000;stroke-width:0.26458332px;stroke-linecap:butt;stroke-linejoin:miter;stroke-opacity:1"
       d="m 44.60119,118.59523 9.827382,-12.85119 10.583333,3.02381 5.291667,3.02381 3.023809,-7.55953 9.071427,-1.5119 6.803573,8.31547 c 0,0 -3.02381,4.53572 3.77976,4.53572 6.803573,0 9.827379,-11.33929 9.827379,-11.33929 l 10.58334,1.51191 3.02381,8.31547 6.04761,3.77977 7.55953,-9.07143 9.07143,6.04762 2.26785,13.60714 2.26786,15.11905 11.33929,6.80357 6.04762,-7.55953 5.29166,-12.85119 10.58334,-1.5119 6.04761,12.85119 -9.07142,9.07143 9.82738,12.85119 v 15.11904 l 5.29166,21.92262 -3.77976,9.82738 -9.82738,3.77977 -7.55952,-4.53572 -19.65477,-1.5119 -10.58333,-4.53572 -4.53571,-17.3869 L 127,177.55951 v 0 l -9.82738,18.14286 v 20.41071 c 0,0 -0.75595,6.80357 3.77976,27.21429 4.53571,20.41071 2.26786,27.97024 2.26786,27.97024 h -6.80357 l -8.31548,-24.19048 -1.51191,-22.67857 v -12.85119 l -2.26785,0.75595 -1.51191,48.38096 -3.023806,14.36309 -11.339288,-7.55952 v -20.41072 -31.75 l -5.291666,-20.41071 -9.827379,4.53571 H 62.744048 l -6.047621,-1.5119 -6.80357,-14.3631 -12.095239,27.21429 -8.315476,15.875 v 12.09523 l 12.095239,18.89881 -3.779763,12.85121 -8.315476,-6.04763 -7.559523,-12.85119 -5.291667,-17.38691 -1.511905,-18.14286 10.583334,-22.67857 9.071428,-15.11905 -0.755952,-19.65476 -5.291667,-8.31547 8.315476,-9.07143 -6.047618,-18.14286 z"
       id="path2475"
       inkscape:connector-curvature="0" />
    <path
       style="fill:none;stroke:#000000;stroke-width:0.26458332px;stroke-linecap:butt;stroke-linejoin:miter;stroke-opacity:1"
       d="m 60.47619,260.71428 -6.047618,-17.38691 v -9.82738 l 2.267855,-13.60714 -1.511904,-4.53572 -0.755951,-1.5119 -6.803573,15.875 7.559524,50.6488 z"
       id="path2477"
       inkscape:connector-curvature="0" />
    <path
       style="fill:none;stroke:#000000;stroke-width:0.26458332px;stroke-linecap:butt;stroke-linejoin:miter;stroke-opacity:1"
       d="m 148.92262,173.0238 v 9.82738 l 7.55952,0.75595 5.29167,-5.29167 z"
       id="path2479"
       inkscape:connector-curvature="0" />
    <path
       style="fill:none;stroke:#000000;stroke-width:0.26458332px;stroke-linecap:butt;stroke-linejoin:miter;stroke-opacity:1"
       d="M 34.773809,70.214277 27.214285,86.845229 31.75,99.69642 41.577381,97.428562 Z"
       id="path2481"
       inkscape:connector-curvature="0" />
  </g>
</svg>
