<?xml version="1.0" encoding="UTF-8" standalone="no"?>
<!-- Created with Inkscape (http://www.inkscape.org/) -->

<svg
   xmlns:dc="http://purl.org/dc/elements/1.1/"
   xmlns:cc="http://creativecommons.org/ns#"
   xmlns:rdf="http://www.w3.org/1999/02/22-rdf-syntax-ns#"
   xmlns:svg="http://www.w3.org/2000/svg"
   xmlns="http://www.w3.org/2000/svg"
   xmlns:sodipodi="http://sodipodi.sourceforge.net/DTD/sodipodi-0.dtd"
   xmlns:inkscape="http://www.inkscape.org/namespaces/inkscape"
   width="210mm"
   height="297mm"
   viewBox="0 0 210 297"
   version="1.1"
   id="svg2141"
   inkscape:version="0.92.4 (unknown)"
   sodipodi:docname="perro0h.svg">
  <defs
     id="defs2135" />
  <sodipodi:namedview
     id="base"
     pagecolor="#ffffff"
     bordercolor="#666666"
     borderopacity="1.0"
     inkscape:pageopacity="0.0"
     inkscape:pageshadow="2"
     inkscape:zoom="0.35"
     inkscape:cx="400"
     inkscape:cy="445.71429"
     inkscape:document-units="mm"
     inkscape:current-layer="layer1"
     showgrid="false"
     inkscape:window-width="1301"
     inkscape:window-height="744"
     inkscape:window-x="65"
     inkscape:window-y="24"
     inkscape:window-maximized="1" />
  <metadata
     id="metadata2138">
    <rdf:RDF>
      <cc:Work
         rdf:about="">
        <dc:format>image/svg+xml</dc:format>
        <dc:type
           rdf:resource="http://purl.org/dc/dcmitype/StillImage" />
        <dc:title></dc:title>
      </cc:Work>
    </rdf:RDF>
  </metadata>
  <g
     inkscape:label="Layer 1"
     inkscape:groupmode="layer"
     id="layer1">
    <path
       style="fill:none;stroke:#000000;stroke-width:0.26458332px;stroke-linecap:butt;stroke-linejoin:miter;stroke-opacity:1"
       d="M 41.577381,108.76785 V 92.892847 l 7.559524,-27.214285 9.827379,-36.285714 9.07143,16.630951 3.779761,10.583333 3.779763,8.315479 5.291667,12.851188 7.559521,5.291666 3.779764,-1.511903 7.559524,-19.654763 3.779756,-19.65476 7.55953,-16.630952 6.80357,12.851191 2.26786,15.875 2.26785,19.65476 2.26786,17.386906 c 0,0 9.07143,8.315476 14.3631,13.607146 5.29166,5.29166 20.41071,27.97023 20.41071,27.97023 0,0 0,-3.02381 7.55952,17.38691 7.55953,20.41071 11.33929,27.97023 11.33929,27.97023 l 6.04762,17.38691 -12.85119,21.16667 -15.875,2.26785 -17.38691,-15.11904 -15.875,-18.89881 -5.29166,3.02381 9.07143,9.07143 11.33928,11.33928 3.77976,9.82738 -21.16666,7.55952 -24.19048,-15.11904 -15.874999,-13.60714 c 0,0 3.023809,-10.58334 -0.755952,-2.26786 -3.779761,8.31547 -5.291667,19.65476 -5.291667,19.65476 l -3.77976,48.38095 -9.07143,21.16666 c 0,0 -14.363094,-7.55952 -19.654761,-13.60712 C 36.285715,264.49404 15.875,242.57142 15.875,242.57142 L 10.583333,221.40475 7.5595238,202.50594 v -15.875 l 11.3392852,-5.29166 2.267857,-20.41072 5.291667,-15.11905 z"
       id="path2145"
       inkscape:connector-curvature="0" />
    <path
       style="fill:none;stroke:#000000;stroke-width:0.26458332px;stroke-linecap:butt;stroke-linejoin:miter;stroke-opacity:1"
       d="m 80.886905,123.8869 18.142855,2.26785 6.80357,9.07143 -7.559522,8.31548 H 84.666666 l -9.827382,-2.26786 z"
       id="path2147"
       inkscape:connector-curvature="0" />
    <path
       style="fill:none;stroke:#000000;stroke-width:0.26458332px;stroke-linecap:butt;stroke-linejoin:miter;stroke-opacity:1"
       d="m 153.45833,184.36309 v 15.87499 l 4.53572,2.26786 4.53571,-0.75595 h 3.77976 3.02381 l -1.5119,-5.29167 -1.51191,-6.80357 z"
       id="path2149"
       inkscape:connector-curvature="0" />
  </g>
</svg>
