<?xml version="1.0" encoding="UTF-8" standalone="no"?>
<!DOCTYPE svg PUBLIC "-//W3C//DTD SVG 20010904//EN"
              "http://www.w3.org/TR/2001/REC-SVG-20010904/DTD/svg10.dtd">

<svg xmlns="http://www.w3.org/2000/svg"
     width="8.88889in" height="5.55556in"
     viewBox="0 0 640 400">
  <path id="R"
        fill="none" stroke="black" stroke-width="1"
        d="M 239.41,88.02
           C 239.80,87.45 240.00,86.75 240.00,85.89
             240.00,84.59 239.66,83.62 238.97,82.97
             238.28,82.32 237.24,82.00 235.84,82.00
             235.84,82.00 232.00,82.00 232.00,82.00
             232.00,82.00 232.00,95.00 232.00,95.00
             232.00,95.00 234.00,95.00 234.00,95.00
             234.00,95.00 234.00,90.00 234.00,90.00
             234.00,90.00 235.34,90.00 235.34,90.00
             235.85,90.00 236.29,90.13 236.66,90.39
             237.02,90.65 237.41,91.18 237.83,91.97
             237.83,91.97 239.62,95.00 239.62,95.00
             239.62,95.00 242.00,95.00 242.00,95.00
             242.00,95.00 239.94,91.77 239.94,91.77
             239.56,91.02 239.19,90.43 238.81,90.02
             238.45,89.59 238.07,89.31 237.69,89.17
             238.44,88.95 239.01,88.57 239.41,88.02 Z
           M 235.84,84.00
           C 236.55,84.00 237.09,84.17 237.45,84.50
             237.82,84.84 238.00,85.34 238.00,86.00
             238.00,86.66 237.82,87.16 237.45,87.50
             237.09,87.84 236.55,88.00 235.84,88.00
             235.84,88.00 234.00,88.00 234.00,88.00
             234.00,88.00 234.00,84.00 234.00,84.00
             234.00,84.00 235.84,84.00 235.84,84.00 Z" />
</svg>
