<?xml version="1.0" encoding="UTF-8" standalone="no"?>
<!-- Created with Inkscape (http://www.inkscape.org/) -->

<svg
   xmlns:dc="http://purl.org/dc/elements/1.1/"
   xmlns:cc="http://creativecommons.org/ns#"
   xmlns:rdf="http://www.w3.org/1999/02/22-rdf-syntax-ns#"
   xmlns:svg="http://www.w3.org/2000/svg"
   xmlns="http://www.w3.org/2000/svg"
   xmlns:sodipodi="http://sodipodi.sourceforge.net/DTD/sodipodi-0.dtd"
   xmlns:inkscape="http://www.inkscape.org/namespaces/inkscape"
   width="210mm"
   height="297mm"
   viewBox="0 0 210 297"
   version="1.1"
   id="svg924"
   inkscape:version="0.92.4 (unknown)"
   sodipodi:docname="rinosh.svg">
  <defs
     id="defs918" />
  <sodipodi:namedview
     id="base"
     pagecolor="#ffffff"
     bordercolor="#666666"
     borderopacity="1.0"
     inkscape:pageopacity="0.0"
     inkscape:pageshadow="2"
     inkscape:zoom="0.35"
     inkscape:cx="514.28571"
     inkscape:cy="560"
     inkscape:document-units="mm"
     inkscape:current-layer="layer1"
     showgrid="false"
     inkscape:window-width="1301"
     inkscape:window-height="744"
     inkscape:window-x="65"
     inkscape:window-y="24"
     inkscape:window-maximized="1" />
  <metadata
     id="metadata921">
    <rdf:RDF>
      <cc:Work
         rdf:about="">
        <dc:format>image/svg+xml</dc:format>
        <dc:type
           rdf:resource="http://purl.org/dc/dcmitype/StillImage" />
        <dc:title></dc:title>
      </cc:Work>
    </rdf:RDF>
  </metadata>
  <g
     inkscape:label="Layer 1"
     inkscape:groupmode="layer"
     id="layer1">
    <path
       style="fill:none;stroke:#000000;stroke-width:0.26458332px;stroke-linecap:butt;stroke-linejoin:miter;stroke-opacity:1"
       d="m 49.136905,122.37499 -11.339287,22.67857 -0.755952,31.75 v 7.55953 l -10.583333,11.33928 v 13.60714 l 14.363094,1.51191 18.898811,-11.33929 21.166667,-12.09524 -1.511906,-21.92261 8.315476,16.63095 22.678575,21.16666 v 21.92262 h 9.82738 v -40.06547 l -2.26786,-17.38691 9.82738,-3.02381 12.85119,-10.58333 v -7.55953 l 7.55952,24.94643 2.26786,15.875 12.09524,-3.0238 -5.29167,-25.70239 -3.02381,-16.63095 3.77977,-30.99405 -24.94643,-21.166662 -19.65476,4.535715 -12.09524,18.898807 -18.898812,15.11905 -11.339285,7.55952 -10.583333,12.85119 -6.803572,15.11905 -9.071428,7.55952 -0.755951,-18.8988 z"
       id="path926"
       inkscape:connector-curvature="0" />
    <path
       style="fill:none;stroke:#000000;stroke-width:0.26458332px;stroke-linecap:butt;stroke-linejoin:miter;stroke-opacity:1"
       d="m 68.035714,206.2857 6.047618,0.75595 v 20.41072 l -5.291666,-2.26786 z"
       id="path928"
       inkscape:connector-curvature="0" />
    <path
       style="fill:none;stroke:#000000;stroke-width:0.26458332px;stroke-linecap:butt;stroke-linejoin:miter;stroke-opacity:1"
       d="m 57.452381,188.8988 6.80357,-8.31548 -3.779761,-3.02381 z"
       id="path930"
       inkscape:connector-curvature="0" />
  </g>
</svg>
