<?xml version="1.0" encoding="UTF-8" standalone="no"?>
<!-- Created with Inkscape (http://www.inkscape.org/) -->

<svg
   xmlns:dc="http://purl.org/dc/elements/1.1/"
   xmlns:cc="http://creativecommons.org/ns#"
   xmlns:rdf="http://www.w3.org/1999/02/22-rdf-syntax-ns#"
   xmlns:svg="http://www.w3.org/2000/svg"
   xmlns="http://www.w3.org/2000/svg"
   xmlns:sodipodi="http://sodipodi.sourceforge.net/DTD/sodipodi-0.dtd"
   xmlns:inkscape="http://www.inkscape.org/namespaces/inkscape"
   width="210mm"
   height="297mm"
   viewBox="0 0 210 297"
   version="1.1"
   id="svg845"
   inkscape:version="0.92.4 (unknown)"
   sodipodi:docname="Tcon2hex.svg">
  <defs
     id="defs839" />
  <sodipodi:namedview
     id="base"
     pagecolor="#ffffff"
     bordercolor="#666666"
     borderopacity="1.0"
     inkscape:pageopacity="0.0"
     inkscape:pageshadow="2"
     inkscape:zoom="0.35"
     inkscape:cx="400"
     inkscape:cy="560"
     inkscape:document-units="mm"
     inkscape:current-layer="layer1"
     showgrid="false"
     inkscape:window-width="1301"
     inkscape:window-height="744"
     inkscape:window-x="65"
     inkscape:window-y="24"
     inkscape:window-maximized="1" />
  <metadata
     id="metadata842">
    <rdf:RDF>
      <cc:Work
         rdf:about="">
        <dc:format>image/svg+xml</dc:format>
        <dc:type
           rdf:resource="http://purl.org/dc/dcmitype/StillImage" />
        <dc:title></dc:title>
      </cc:Work>
    </rdf:RDF>
  </metadata>
  <g
     inkscape:label="Layer 1"
     inkscape:groupmode="layer"
     id="layer1">
    <path
       style="fill:none;stroke:#000000;stroke-width:0.26458332px;stroke-linecap:butt;stroke-linejoin:miter;stroke-opacity:1"
       d="m 36.285715,47.535705 c -3.779764,21.922618 -21.166668,17.386906 -3.779764,27.214285 17.386906,9.827381 20.410715,-0.755952 35.529763,9.827381 15.119046,10.583334 12.851191,-30.994048 16.630952,20.410719 3.77976,51.40476 3.77976,43.84523 3.77976,71.05952 0,27.21428 0,34.01785 0,52.91667 0,18.8988 -7.559521,0 0,21.92261 7.559524,21.92263 3.023812,27.21429 15.875004,26.45833 12.85119,-0.75595 12.09524,3.77978 12.85119,-12.09522 0.75595,-15.87501 2.26785,-16.63096 0.75595,-44.6012 -1.5119,-27.97024 -1.5119,-15.11905 -1.5119,-52.91667 0,-37.79762 -2.26786,-56.69643 -2.26786,-70.303568 0,-13.607142 -11.33929,-13.607142 0,-15.875 11.33928,-2.267857 15.11905,-2.267857 31.75,-2.267857 16.63095,0 25.70238,5.291666 30.99405,-1.511906 5.29166,-6.80357 12.85119,-14.363094 10.58333,-21.922618 -2.26786,-7.559524 -7.55953,-16.630952 -24.94643,-14.363094 -17.3869,2.267857 -46.11309,2.267857 -65.767855,2.267857 -19.654763,0 -60.47619,3.779761 -60.47619,3.779761 z"
       id="path847"
       inkscape:connector-curvature="0" />
    <path
       style="fill:none;fill-opacity:1;stroke:none;stroke-width:0.26499999;stroke-miterlimit:4;stroke-dasharray:none;stroke-opacity:1"
       d="M -114.1488,92.136894 H 76.351196 V 296.24404 H -114.1488 Z"
       id="rect849" />
    <path
       style="fill:none;fill-opacity:1;stroke:none;stroke-width:0.26499999;stroke-miterlimit:4;stroke-dasharray:none;stroke-opacity:1"
       d="M 123.97619,92.136894 H 384.77975 V 344.62499 H 123.97619 Z"
       id="rect852" />
  </g>
</svg>
