<?xml version="1.0" encoding="UTF-8" standalone="no"?>
<!-- Created with Inkscape (http://www.inkscape.org/) -->

<svg
   xmlns:dc="http://purl.org/dc/elements/1.1/"
   xmlns:cc="http://creativecommons.org/ns#"
   xmlns:rdf="http://www.w3.org/1999/02/22-rdf-syntax-ns#"
   xmlns:svg="http://www.w3.org/2000/svg"
   xmlns="http://www.w3.org/2000/svg"
   xmlns:sodipodi="http://sodipodi.sourceforge.net/DTD/sodipodi-0.dtd"
   xmlns:inkscape="http://www.inkscape.org/namespaces/inkscape"
   width="210mm"
   height="297mm"
   viewBox="0 0 210 297"
   version="1.1"
   id="svg992"
   inkscape:version="0.92.4 (unknown)"
   sodipodi:docname="velerosh.svg">
  <defs
     id="defs986" />
  <sodipodi:namedview
     id="base"
     pagecolor="#ffffff"
     bordercolor="#666666"
     borderopacity="1.0"
     inkscape:pageopacity="0.0"
     inkscape:pageshadow="2"
     inkscape:zoom="0.35"
     inkscape:cx="285.71429"
     inkscape:cy="560"
     inkscape:document-units="mm"
     inkscape:current-layer="layer1"
     showgrid="false"
     inkscape:window-width="1301"
     inkscape:window-height="744"
     inkscape:window-x="65"
     inkscape:window-y="24"
     inkscape:window-maximized="1" />
  <metadata
     id="metadata989">
    <rdf:RDF>
      <cc:Work
         rdf:about="">
        <dc:format>image/svg+xml</dc:format>
        <dc:type
           rdf:resource="http://purl.org/dc/dcmitype/StillImage" />
        <dc:title></dc:title>
      </cc:Work>
    </rdf:RDF>
  </metadata>
  <g
     inkscape:label="Layer 1"
     inkscape:groupmode="layer"
     id="layer1">
    <path
       style="fill:none;stroke:#000000;stroke-width:0.26458332px;stroke-linecap:butt;stroke-linejoin:miter;stroke-opacity:1"
       d="m 14.363095,139.00594 21.166665,30.2381 H 21.166666 l 21.922618,49.89285 126.244046,-3.02381 3.77976,-18.8988 -48.38095,-6.80358 c 0,0 -13.60714,3.77976 -30.238093,-3.77976 -16.630954,-7.55952 -37.79762,-21.16666 -37.79762,-21.16666 l -15.119046,3.77976 -27.214286,-39.30953 z"
       id="path994"
       inkscape:connector-curvature="0" />
    <path
       style="fill:none;stroke:#000000;stroke-width:0.26458332px;stroke-linecap:butt;stroke-linejoin:miter;stroke-opacity:1"
       d="m 44.60119,73.238087 v 40.065473 c 0,0 -14.363096,-0.75595 12.095237,-3.77976 26.458333,-3.02381 46.113093,0 52.160713,2.26786 6.04762,2.26785 3.02381,-34.773813 3.02381,-34.773813 0,0 9.82738,-3.023809 -12.095236,-6.047618 C 77.863093,67.94642 44.60119,73.238087 44.60119,73.238087 Z"
       id="path996"
       inkscape:connector-curvature="0" />
    <path
       style="fill:none;stroke:#000000;stroke-width:0.26458332px;stroke-linecap:butt;stroke-linejoin:miter;stroke-opacity:1"
       d="m 45.357142,131.44642 c 0,0 12.851191,-9.82738 22.678572,-9.82738 9.827379,0 43.845236,11.33928 43.845236,11.33928 0,0 3.77976,29.48214 -2.26786,33.26191 -6.04762,3.77976 9.07143,12.85119 -12.095234,3.77976 -21.166666,-9.07143 -51.404762,-15.875 -51.404762,-15.875 z"
       id="path998"
       inkscape:connector-curvature="0" />
    <path
       style="fill:none;stroke:#000000;stroke-width:0.26458332px;stroke-linecap:butt;stroke-linejoin:miter;stroke-opacity:1"
       d="M 74.083332,16.541658 V 62.654753 L 79.374999,61.898799 77.863093,18.053563 Z"
       id="path1000"
       inkscape:connector-curvature="0" />
    <path
       style="fill:none;stroke:#000000;stroke-width:0.26458332px;stroke-linecap:butt;stroke-linejoin:miter;stroke-opacity:1"
       d="m 130.77976,38.464278 5.29167,37.041666 c 0,0 8.31547,34.017856 15.11904,49.892856 6.80358,15.875 19.65477,43.84524 27.97024,50.64881 8.31548,6.80357 -53.67262,-1.51191 -53.67262,-1.51191 z"
       id="path1002"
       inkscape:connector-curvature="0" />
    <path
       style="fill:none;stroke:#000000;stroke-width:0.26458332px;stroke-linecap:butt;stroke-linejoin:miter;stroke-opacity:1"
       d="m 112.6369,13.517849 v 34.773808 l -0.75595,11.339287 6.04762,0.755952 -0.75595,-46.869047 z"
       id="path1004"
       inkscape:connector-curvature="0" />
    <path
       style="fill:none;stroke:#000000;stroke-width:0.26458332px;stroke-linecap:butt;stroke-linejoin:miter;stroke-opacity:1"
       d="M 5.2916666,227.45237 198.05952,224.42856 21.922619,238.0357 191.25595,234.25594 21.922619,249.37499"
       id="path1006"
       inkscape:connector-curvature="0" />
  </g>
</svg>
